NimbusRomNo9L-Regu.ufo
<glyph name="quotesingle" format="1">
  <advance width="180"/>
  <unicode hex="0027"/>
  <outline>
    <contour>
      <point x="101" y="431" type="line"/>
      <point x="80" y="431" type="line"/>
      <point x="63" y="521"/>
      <point x="48" y="619"/>
      <point x="48" y="635" type="curve" smooth="yes"/>
      <point x="48" y="658"/>
      <point x="67" y="676"/>
      <point x="91" y="676" type="curve" smooth="yes"/>
      <point x="114" y="676"/>
      <point x="133" y="658"/>
      <point x="133" y="636" type="curve" smooth="yes"/>
      <point x="133" y="607"/>
      <point x="124" y="547"/>
      <point x="108" y="471" type="curve"/>
    </contour>
  </outline>
</glyph>
<glyph name="one" format="1">
  <advance width="500"/>
  <unicode hex="0031"/>
  <outline>
    <contour>
      <point x="291" y="676" type="line"/>
      <point x="299" y="674" type="line"/>
      <point x="299" y="74" type="line" smooth="yes"/>
      <point x="299" y="26"/>
      <point x="315" y="16"/>
      <point x="394" y="15" type="curve"/>
      <point x="394" y="0" type="line"/>
      <point x="118" y="0" type="line"/>
      <point x="118" y="15" type="line"/>
      <point x="160" y="16"/>
      <point x="174" y="19"/>
      <point x="189" y="28" type="curve" smooth="yes"/>
      <point x="205" y="37"/>
      <point x="213" y="60"/>
      <point x="213" y="93" type="curve" smooth="yes"/>
      <point x="213" y="546" type="line" smooth="yes"/>
      <point x="213" y="578"/>
      <point x="204" y="593"/>
      <point x="183" y="593" type="curve" smooth="yes"/>
      <point x="173" y="593"/>
      <point x="156" y="589"/>
      <point x="138" y="582" type="curve" smooth="yes"/>
      <point x="134" y="580"/>
      <point x="123" y="576"/>
      <point x="111" y="571" type="curve"/>
      <point x="111" y="585" type="line"/>
    </contour>
  </outline>
</glyph>
<glyph name="five" format="1">
  <advance width="500"/>
  <unicode hex="0035"/>
  <outline>
    <contour>
      <point x="181" y="583" type="line"/>
      <point x="139" y="498" type="line"/>
      <point x="257" y="477"/>
      <point x="314" y="454"/>
      <point x="358" y="410" type="curve" smooth="yes"/>
      <point x="408" y="360"/>
      <point x="427" y="314"/>
      <point x="427" y="242" type="curve" smooth="yes"/>
      <point x="427" y="166"/>
      <point x="406" y="109"/>
      <point x="360" y="64" type="curve"/>
      <point x="310" y="13"/>
      <point x="238" y="-14"/>
      <point x="154" y="-14" type="curve" smooth="yes"/>
      <point x="79" y="-14"/>
      <point x="32" y="10"/>
      <point x="32" y="48" type="curve" smooth="yes"/>
      <point x="32" y="73"/>
      <point x="46" y="85"/>
      <point x="75" y="85" type="curve" smooth="yes"/>
      <point x="96" y="85"/>
      <point x="119" y="75"/>
      <point x="151" y="52" type="curve" smooth="yes"/>
      <point x="181" y="30"/>
      <point x="198" y="23"/>
      <point x="218" y="23" type="curve" smooth="yes"/>
      <point x="296" y="23"/>
      <point x="357" y="98"/>
      <point x="357" y="194" type="curve" smooth="yes"/>
      <point x="357" y="293"/>
      <point x="304" y="355"/>
      <point x="189" y="392" type="curve" smooth="yes"/>
      <point x="148" y="405"/>
      <point x="108" y="412"/>
      <point x="76" y="412" type="curve" smooth="yes"/>
      <point x="68" y="412"/>
      <point x="64" y="415"/>
      <point x="64" y="420" type="curve" smooth="yes"/>
      <point x="64" y="422"/>
      <point x="64" y="423"/>
      <point x="65" y="425" type="curve" smooth="yes"/>
      <point x="174" y="662" type="line"/>
      <point x="383" y="662" type="line" smooth="yes"/>
      <point x="404" y="662"/>
      <point x="414" y="667"/>
      <point x="429" y="688" type="curve"/>
      <point x="438" y="681" type="line"/>
      <point x="400" y="592" type="line" smooth="yes"/>
      <point x="397" y="585"/>
      <point x="393" y="583"/>
      <point x="377" y="583" type="curve" smooth="yes"/>
    </contour>
  </outline>
</glyph>
<glyph name="nine" format="1">
  <advance width="500"/>
  <unicode hex="0039"/>
  <outline>
    <contour>
      <point x="59" y="-22" type="curve"/>
      <point x="56" y="-2" type="line"/>
      <point x="208" y="24"/>
      <point x="319" y="131"/>
      <point x="360" y="294" type="curve"/>
      <point x="307" y="253"/>
      <point x="265" y="237"/>
      <point x="210" y="237" type="curve" smooth="yes"/>
      <point x="102" y="237"/>
      <point x="30" y="318"/>
      <point x="30" y="440" type="curve" smooth="yes"/>
      <point x="30" y="575"/>
      <point x="119" y="676"/>
      <point x="238" y="676" type="curve" smooth="yes"/>
      <point x="367" y="676"/>
      <point x="459" y="559"/>
      <point x="459" y="394" type="curve" smooth="yes"/>
      <point x="459" y="259"/>
      <point x="398" y="135"/>
      <point x="294" y="59" type="curve" smooth="yes"/>
      <point x="226" y="10"/>
      <point x="171" y="-9"/>
    </contour>
    <contour>
      <point x="362" y="355" type="curve" smooth="yes"/>
      <point x="362" y="394" type="line" smooth="yes"/>
      <point x="362" y="562"/>
      <point x="317" y="648"/>
      <point x="230" y="648" type="curve" smooth="yes"/>
      <point x="201" y="648"/>
      <point x="176" y="637"/>
      <point x="159" y="617" type="curve" smooth="yes"/>
      <point x="138" y="591"/>
      <point x="122" y="531"/>
      <point x="122" y="474" type="curve" smooth="yes"/>
      <point x="122" y="355"/>
      <point x="170" y="280"/>
      <point x="246" y="280" type="curve" smooth="yes"/>
      <point x="282" y="280"/>
      <point x="319" y="293"/>
      <point x="347" y="317" type="curve" smooth="yes"/>
      <point x="358" y="326"/>
      <point x="362" y="335"/>
    </contour>
  </outline>
</glyph>
<glyph name="P" format="1">
  <advance width="556"/>
  <unicode hex="0050"/>
  <outline>
    <contour>
      <point x="202" y="291" type="curve"/>
      <point x="202" y="109" type="line" smooth="yes"/>
      <point x="202" y="36"/>
      <point x="217" y="22"/>
      <point x="296" y="19" type="curve"/>
      <point x="296" y="0" type="line"/>
      <point x="16" y="0" type="line"/>
      <point x="16" y="19" type="line"/>
      <point x="92" y="26"/>
      <point x="100" y="36"/>
      <point x="100" y="120" type="curve" smooth="yes"/>
      <point x="100" y="553" type="line" smooth="yes"/>
      <point x="100" y="625"/>
      <point x="90" y="635"/>
      <point x="16" y="643" type="curve"/>
      <point x="16" y="662" type="line"/>
      <point x="280" y="662" type="line" smooth="yes"/>
      <point x="374" y="662"/>
      <point x="461" y="634"/>
      <point x="501" y="590" type="curve" smooth="yes"/>
      <point x="528" y="561"/>
      <point x="542" y="523"/>
      <point x="542" y="481" type="curve" smooth="yes"/>
      <point x="542" y="415"/>
      <point x="506" y="354"/>
      <point x="446" y="322" type="curve" smooth="yes"/>
      <point x="403" y="298"/>
      <point x="349" y="288"/>
      <point x="271" y="288" type="curve" smooth="yes"/>
      <point x="245" y="288"/>
      <point x="228" y="289"/>
    </contour>
    <contour>
      <point x="202" y="591" type="curve" smooth="yes"/>
      <point x="202" y="331" type="line"/>
      <point x="225" y="329"/>
      <point x="239" y="328"/>
      <point x="259" y="328" type="curve" smooth="yes"/>
      <point x="374" y="328"/>
      <point x="433" y="378"/>
      <point x="433" y="475" type="curve" smooth="yes"/>
      <point x="433" y="578"/>
      <point x="371" y="625"/>
      <point x="236" y="625" type="curve" smooth="yes"/>
      <point x="209" y="625"/>
      <point x="202" y="618"/>
    </contour>
  </outline>
</glyph>
<glyph name="m" format="1">
  <advance width="778"/>
  <unicode hex="006D"/>
  <outline>
    <contour>
      <point x="19" y="398" type="curve"/>
      <point x="19" y="415" type="line"/>
      <point x="74" y="430"/>
      <point x="108" y="441"/>
      <point x="159" y="460" type="curve"/>
      <point x="166" y="458" type="line"/>
      <point x="166" y="383" type="line"/>
      <point x="249" y="446"/>
      <point x="277" y="460"/>
      <point x="321" y="460" type="curve" smooth="yes"/>
      <point x="375" y="460"/>
      <point x="409" y="433"/>
      <point x="427" y="376" type="curve"/>
      <point x="481" y="434"/>
      <point x="532" y="460"/>
      <point x="590" y="460" type="curve" smooth="yes"/>
      <point x="667" y="460"/>
      <point x="706" y="400"/>
      <point x="706" y="282" type="curve" smooth="yes"/>
      <point x="706" y="76" type="line" smooth="yes"/>
      <point x="706" y="37"/>
      <point x="719" y="19"/>
      <point x="749" y="17" type="curve" smooth="yes"/>
      <point x="775" y="15" type="line"/>
      <point x="775" y="0" type="line"/>
      <point x="556" y="0" type="line"/>
      <point x="556" y="15" type="line"/>
      <point x="614" y="22"/>
      <point x="622" y="30"/>
      <point x="622" y="87" type="curve" smooth="yes"/>
      <point x="622" y="298" type="line" smooth="yes"/>
      <point x="622" y="381"/>
      <point x="604" y="408"/>
      <point x="547" y="408" type="curve" smooth="yes"/>
      <point x="501" y="408"/>
      <point x="468" y="390"/>
      <point x="438" y="347" type="curve"/>
      <point x="438" y="95" type="line" smooth="yes"/>
      <point x="438" y="33"/>
      <point x="453" y="16"/>
      <point x="510" y="15" type="curve"/>
      <point x="510" y="0" type="line"/>
      <point x="286" y="0" type="line"/>
      <point x="286" y="15" type="line"/>
      <point x="343" y="19"/>
      <point x="354" y="30"/>
      <point x="354" y="86" type="curve" smooth="yes"/>
      <point x="354" y="303" type="line" smooth="yes"/>
      <point x="354" y="373"/>
      <point x="332" y="408"/>
      <point x="288" y="408" type="curve" smooth="yes"/>
      <point x="253" y="408"/>
      <point x="210" y="391"/>
      <point x="185" y="368" type="curve" smooth="yes"/>
      <point x="178" y="361"/>
      <point x="170" y="351"/>
      <point x="170" y="349" type="curve" smooth="yes"/>
      <point x="170" y="67" type="line" smooth="yes"/>
      <point x="170" y="28"/>
      <point x="185" y="17"/>
      <point x="238" y="15" type="curve"/>
      <point x="238" y="0" type="line"/>
      <point x="16" y="0" type="line"/>
      <point x="16" y="15" type="line"/>
      <point x="72" y="16"/>
      <point x="86" y="31"/>
      <point x="86" y="85" type="curve" smooth="yes"/>
      <point x="86" y="338" type="line" smooth="yes"/>
      <point x="86" y="386"/>
      <point x="77" y="402"/>
      <point x="51" y="402" type="curve" smooth="yes"/>
      <point x="40" y="402"/>
      <point x="32" y="401"/>
    </contour>
  </outline>
</glyph>
<glyph name="n" format="1">
  <advance width="500"/>
  <unicode hex="006E"/>
  <outline>
    <contour>
      <point x="16" y="398" type="curve"/>
      <point x="16" y="415" type="line"/>
      <point x="71" y="431"/>
      <point x="105" y="442"/>
      <point x="154" y="460" type="curve"/>
      <point x="161" y="458" type="line"/>
      <point x="161" y="379" type="line"/>
      <point x="229" y="443"/>
      <point x="260" y="460"/>
      <point x="306" y="460" type="curve" smooth="yes"/>
      <point x="380" y="460"/>
      <point x="424" y="404"/>
      <point x="424" y="310" type="curve" smooth="yes"/>
      <point x="424" y="81" type="line" smooth="yes"/>
      <point x="424" y="32"/>
      <point x="436" y="20"/>
      <point x="485" y="15" type="curve"/>
      <point x="485" y="0" type="line"/>
      <point x="277" y="0" type="line"/>
      <point x="277" y="15" type="line"/>
      <point x="327" y="19"/>
      <point x="340" y="36"/>
      <point x="340" y="99" type="curve" smooth="yes"/>
      <point x="340" y="308" type="line" smooth="yes"/>
      <point x="340" y="374"/>
      <point x="316" y="405"/>
      <point x="267" y="405" type="curve" smooth="yes"/>
      <point x="234" y="405"/>
      <point x="212" y="393"/>
      <point x="164" y="348" type="curve"/>
      <point x="164" y="67" type="line" smooth="yes"/>
      <point x="164" y="31"/>
      <point x="179" y="19"/>
      <point x="230" y="15" type="curve"/>
      <point x="230" y="0" type="line"/>
      <point x="18" y="0" type="line"/>
      <point x="18" y="15" type="line"/>
      <point x="69" y="19"/>
      <point x="80" y="33"/>
      <point x="80" y="90" type="curve" smooth="yes"/>
      <point x="80" y="338" type="line" smooth="yes"/>
      <point x="80" y="387"/>
      <point x="71" y="402"/>
      <point x="43" y="402" type="curve" smooth="yes"/>
      <point x="32" y="402"/>
      <point x="22" y="401"/>
    </contour>
  </outline>
</glyph>
<glyph name="o" format="1">
  <advance width="500"/>
  <unicode hex="006F"/>
  <outline>
    <contour>
      <point x="250" y="460" type="curve" smooth="yes"/>
      <point x="378" y="460"/>
      <point x="470" y="365"/>
      <point x="470" y="234" type="curve" smooth="yes"/>
      <point x="470" y="96"/>
      <point x="374" y="-10"/>
      <point x="248" y="-10" type="curve" smooth="yes"/>
      <point x="122" y="-10"/>
      <point x="29" y="91"/>
      <point x="29" y="226" type="curve" smooth="yes"/>
      <point x="29" y="364"/>
      <point x="120" y="460"/>
    </contour>
    <contour>
      <point x="237" y="432" type="curve" smooth="yes"/>
      <point x="166" y="432"/>
      <point x="119" y="370"/>
      <point x="119" y="275" type="curve" smooth="yes"/>
      <point x="119" y="204"/>
      <point x="135" y="134"/>
      <point x="163" y="82" type="curve" smooth="yes"/>
      <point x="184" y="42"/>
      <point x="221" y="18"/>
      <point x="260" y="18" type="curve" smooth="yes"/>
      <point x="335" y="18"/>
      <point x="380" y="86"/>
      <point x="380" y="199" type="curve" smooth="yes"/>
      <point x="380" y="336"/>
      <point x="321" y="432"/>
    </contour>
  </outline>
</glyph>
<glyph name="guillemotright" format="1">
  <advance width="500"/>
  <unicode hex="00BB"/>
  <outline>
    <contour>
      <point x="458" y="222" type="line"/>
      <point x="427" y="195" type="line" smooth="yes"/>
      <point x="354" y="132"/>
      <point x="314" y="95"/>
      <point x="257" y="39" type="curve" smooth="yes"/>
      <point x="253" y="34"/>
      <point x="251" y="33"/>
      <point x="247" y="33" type="curve" smooth="yes"/>
      <point x="241" y="33"/>
      <point x="237" y="37"/>
      <point x="237" y="42" type="curve" smooth="yes"/>
      <point x="237" y="54"/>
      <point x="280" y="116"/>
      <point x="355" y="211" type="curve"/>
      <point x="361" y="218" type="line"/>
      <point x="365" y="224" type="line"/>
      <point x="290" y="317" type="line" smooth="yes"/>
      <point x="261" y="352"/>
      <point x="236" y="393"/>
      <point x="236" y="406" type="curve" smooth="yes"/>
      <point x="236" y="411"/>
      <point x="241" y="416"/>
      <point x="246" y="416" type="curve" smooth="yes"/>
      <point x="252" y="416"/>
      <point x="273" y="398"/>
      <point x="290" y="377" type="curve"/>
      <point x="292" y="372"/>
      <point x="321" y="344"/>
      <point x="351" y="318" type="curve" smooth="yes"/>
      <point x="360" y="309"/>
      <point x="368" y="302"/>
      <point x="374" y="297" type="curve" smooth="yes"/>
      <point x="377" y="295" type="line"/>
      <point x="382" y="290"/>
      <point x="387" y="285"/>
      <point x="393" y="281" type="curve"/>
    </contour>
    <contour>
      <point x="266" y="222" type="line"/>
      <point x="235" y="195" type="line" smooth="yes"/>
      <point x="162" y="132"/>
      <point x="122" y="95"/>
      <point x="65" y="39" type="curve" smooth="yes"/>
      <point x="61" y="34"/>
      <point x="59" y="33"/>
      <point x="55" y="33" type="curve" smooth="yes"/>
      <point x="49" y="33"/>
      <point x="45" y="37"/>
      <point x="45" y="42" type="curve" smooth="yes"/>
      <point x="45" y="54"/>
      <point x="88" y="116"/>
      <point x="163" y="211" type="curve"/>
      <point x="169" y="218" type="line"/>
      <point x="173" y="224" type="line"/>
      <point x="98" y="317" type="line" smooth="yes"/>
      <point x="69" y="352"/>
      <point x="44" y="393"/>
      <point x="44" y="406" type="curve" smooth="yes"/>
      <point x="44" y="411"/>
      <point x="49" y="416"/>
      <point x="54" y="416" type="curve" smooth="yes"/>
      <point x="60" y="416"/>
      <point x="81" y="398"/>
      <point x="98" y="377" type="curve"/>
      <point x="100" y="372"/>
      <point x="129" y="344"/>
      <point x="159" y="318" type="curve" smooth="yes"/>
      <point x="168" y="309"/>
      <point x="176" y="302"/>
      <point x="182" y="297" type="curve" smooth="yes"/>
      <point x="185" y="295" type="line"/>
      <point x="190" y="290"/>
      <point x="195" y="285"/>
      <point x="201" y="281" type="curve"/>
    </contour>
  </outline>
</glyph>
<glyph name="Atilde" format="1">
  <advance width="722"/>
  <unicode hex="00C3"/>
  <outline>
    <contour>
      <point x="706" y="19" type="curve"/>
      <point x="706" y="0" type="line"/>
      <point x="451" y="0" type="line"/>
      <point x="451" y="19" type="line"/>
      <point x="504" y="20"/>
      <point x="521" y="28"/>
      <point x="521" y="53" type="curve" smooth="yes"/>
      <point x="521" y="67"/>
      <point x="514" y="93"/>
      <point x="502" y="120" type="curve" smooth="yes"/>
      <point x="461" y="216" type="line"/>
      <point x="199" y="216" type="line"/>
      <point x="153" y="99" type="line" smooth="yes"/>
      <point x="148" y="86"/>
      <point x="145" y="72"/>
      <point x="145" y="60" type="curve" smooth="yes"/>
      <point x="145" y="32"/>
      <point x="165" y="19"/>
      <point x="213" y="19" type="curve"/>
      <point x="213" y="0" type="line"/>
      <point x="15" y="0" type="line"/>
      <point x="15" y="19" type="line"/>
      <point x="63" y="21"/>
      <point x="75" y="37"/>
      <point x="139" y="183" type="curve"/>
      <point x="347" y="674" type="line"/>
      <point x="367" y="674" type="line"/>
      <point x="616" y="106" type="line"/>
      <point x="651" y="32"/>
      <point x="661" y="22"/>
    </contour>
    <contour>
      <point x="216" y="257" type="line"/>
      <point x="447" y="257" type="line"/>
      <point x="331" y="532" type="line"/>
    </contour>
    <contour>
      <point x="497" y="850" type="curve"/>
      <point x="526" y="850" type="line"/>
      <point x="505" y="774"/>
      <point x="476" y="744"/>
      <point x="421" y="744" type="curve" smooth="yes"/>
      <point x="396" y="744"/>
      <point x="381" y="748"/>
      <point x="340" y="768" type="curve" smooth="yes"/>
      <point x="317" y="779" type="line" smooth="yes"/>
      <point x="302" y="786"/>
      <point x="288" y="790"/>
      <point x="276" y="790" type="curve" smooth="yes"/>
      <point x="253" y="790"/>
      <point x="236" y="775"/>
      <point x="225" y="744" type="curve"/>
      <point x="196" y="744" type="line"/>
      <point x="211" y="809"/>
      <point x="247" y="845"/>
      <point x="297" y="845" type="curve" smooth="yes"/>
      <point x="319" y="845"/>
      <point x="344" y="839"/>
      <point x="367" y="827" type="curve" smooth="yes"/>
      <point x="391" y="815" type="line" smooth="yes"/>
      <point x="410" y="806"/>
      <point x="429" y="800"/>
      <point x="444" y="800" type="curve" smooth="yes"/>
      <point x="467" y="800"/>
      <point x="480" y="812"/>
    </contour>
  </outline>
</glyph>
<glyph name="Igrave" format="1">
  <advance width="333"/>
  <unicode hex="00CC"/>
  <outline>
    <contour>
      <point x="115" y="109" type="curve" smooth="yes"/>
      <point x="115" y="553" type="line" smooth="yes"/>
      <point x="115" y="627"/>
      <point x="103" y="638"/>
      <point x="18" y="643" type="curve"/>
      <point x="18" y="662" type="line"/>
      <point x="315" y="662" type="line"/>
      <point x="315" y="643" type="line"/>
      <point x="231" y="639"/>
      <point x="217" y="626"/>
      <point x="217" y="553" type="curve" smooth="yes"/>
      <point x="217" y="109" type="line" smooth="yes"/>
      <point x="217" y="36"/>
      <point x="233" y="22"/>
      <point x="315" y="19" type="curve"/>
      <point x="315" y="0" type="line"/>
      <point x="18" y="0" type="line"/>
      <point x="18" y="19" type="line"/>
      <point x="102" y="22"/>
      <point x="115" y="34"/>
    </contour>
    <contour>
      <point x="242" y="719" type="line"/>
      <point x="202" y="719" type="line"/>
      <point x="48" y="816" type="line" smooth="yes"/>
      <point x="30" y="828"/>
      <point x="19" y="843"/>
      <point x="19" y="859" type="curve" smooth="yes"/>
      <point x="19" y="878"/>
      <point x="32" y="890"/>
      <point x="53" y="890" type="curve" smooth="yes"/>
      <point x="68" y="890"/>
      <point x="77" y="885"/>
      <point x="95" y="867" type="curve" smooth="yes"/>
    </contour>
  </outline>
</glyph>
<glyph name="Iacute" format="1">
  <advance width="333"/>
  <unicode hex="00CD"/>
  <outline>
    <contour>
      <point x="115" y="109" type="curve" smooth="yes"/>
      <point x="115" y="553" type="line" smooth="yes"/>
      <point x="115" y="627"/>
      <point x="103" y="638"/>
      <point x="18" y="643" type="curve"/>
      <point x="18" y="662" type="line"/>
      <point x="315" y="662" type="line"/>
      <point x="315" y="643" type="line"/>
      <point x="231" y="639"/>
      <point x="217" y="626"/>
      <point x="217" y="553" type="curve" smooth="yes"/>
      <point x="217" y="109" type="line" smooth="yes"/>
      <point x="217" y="36"/>
      <point x="233" y="22"/>
      <point x="315" y="19" type="curve"/>
      <point x="315" y="0" type="line"/>
      <point x="18" y="0" type="line"/>
      <point x="18" y="19" type="line"/>
      <point x="102" y="22"/>
      <point x="115" y="34"/>
    </contour>
    <contour>
      <point x="133" y="719" type="line"/>
      <point x="93" y="719" type="line"/>
      <point x="240" y="867" type="line" smooth="yes"/>
      <point x="258" y="885"/>
      <point x="267" y="890"/>
      <point x="282" y="890" type="curve" smooth="yes"/>
      <point x="304" y="890"/>
      <point x="317" y="878"/>
      <point x="317" y="858" type="curve" smooth="yes"/>
      <point x="317" y="842"/>
      <point x="308" y="829"/>
      <point x="287" y="816" type="curve" smooth="yes"/>
    </contour>
  </outline>
</glyph>
<glyph name="ae" format="1">
  <advance width="667"/>
  <unicode hex="00E6"/>
  <outline>
    <contour>
      <point x="620" y="154" type="curve"/>
      <point x="632" y="149" type="line"/>
      <point x="605" y="90"/>
      <point x="586" y="62"/>
      <point x="559" y="38" type="curve" smooth="yes"/>
      <point x="523" y="6"/>
      <point x="482" y="-10"/>
      <point x="435" y="-10" type="curve" smooth="yes"/>
      <point x="378" y="-10"/>
      <point x="340" y="11"/>
      <point x="306" y="63" type="curve"/>
      <point x="238" y="7"/>
      <point x="204" y="-10"/>
      <point x="154" y="-10" type="curve" smooth="yes"/>
      <point x="86" y="-10"/>
      <point x="38" y="35"/>
      <point x="38" y="100" type="curve" smooth="yes"/>
      <point x="38" y="160"/>
      <point x="80" y="201"/>
      <point x="187" y="245" type="curve" smooth="yes"/>
      <point x="273" y="281" type="line"/>
      <point x="275" y="344" type="line" smooth="yes"/>
      <point x="276" y="367"/>
      <point x="271" y="398"/>
      <point x="263" y="413" type="curve" smooth="yes"/>
      <point x="256" y="427"/>
      <point x="237" y="436"/>
      <point x="213" y="436" type="curve" smooth="yes"/>
      <point x="171" y="436"/>
      <point x="140" y="413"/>
      <point x="145" y="386" type="curve" smooth="yes"/>
      <point x="146" y="383"/>
      <point x="146" y="380"/>
      <point x="146" y="380" type="curve"/>
      <point x="146" y="369" type="line"/>
      <point x="147" y="352" type="line" smooth="yes"/>
      <point x="148" y="323"/>
      <point x="132" y="304"/>
      <point x="104" y="304" type="curve" smooth="yes"/>
      <point x="77" y="304"/>
      <point x="60" y="323"/>
      <point x="60" y="352" type="curve" smooth="yes"/>
      <point x="60" y="414"/>
      <point x="129" y="460"/>
      <point x="220" y="460" type="curve" smooth="yes"/>
      <point x="269" y="460"/>
      <point x="299" y="448"/>
      <point x="337" y="415" type="curve"/>
      <point x="382" y="449"/>
      <point x="410" y="460"/>
      <point x="456" y="460" type="curve" smooth="yes"/>
      <point x="557" y="460"/>
      <point x="605" y="406"/>
      <point x="616" y="277" type="curve"/>
      <point x="354" y="277" type="line"/>
      <point x="355" y="178"/>
      <point x="360" y="146"/>
      <point x="381" y="107" type="curve" smooth="yes"/>
      <point x="398" y="77"/>
      <point x="435" y="57"/>
      <point x="476" y="57" type="curve" smooth="yes"/>
      <point x="533" y="57"/>
      <point x="572" y="84"/>
    </contour>
    <contour>
      <point x="274" y="201" type="curve" smooth="yes"/>
      <point x="274" y="253" type="line"/>
      <point x="153" y="209"/>
      <point x="125" y="185"/>
      <point x="125" y="125" type="curve" smooth="yes"/>
      <point x="125" y="77"/>
      <point x="155" y="38"/>
      <point x="192" y="38" type="curve" smooth="yes"/>
      <point x="229" y="38"/>
      <point x="294" y="70"/>
      <point x="294" y="88" type="curve" smooth="yes"/>
      <point x="294" y="89"/>
      <point x="294" y="90"/>
      <point x="293" y="91" type="curve" smooth="yes"/>
      <point x="280" y="128"/>
      <point x="274" y="165"/>
    </contour>
    <contour>
      <point x="355" y="307" type="curve"/>
      <point x="521" y="307" type="line"/>
      <point x="519" y="394"/>
      <point x="496" y="431"/>
      <point x="442" y="431" type="curve" smooth="yes"/>
      <point x="385" y="431"/>
      <point x="360" y="395"/>
    </contour>
  </outline>
</glyph>
<glyph name="eth" format="1">
  <advance width="500"/>
  <unicode hex="00F0"/>
  <outline>
    <contour>
      <point x="270" y="575" type="curve"/>
      <point x="147" y="510" type="line"/>
      <point x="114" y="540" type="line"/>
      <point x="235" y="604" type="line"/>
      <point x="188" y="637"/>
      <point x="154" y="651"/>
      <point x="102" y="660" type="curve"/>
      <point x="144" y="683" type="line"/>
      <point x="210" y="677"/>
      <point x="245" y="666"/>
      <point x="296" y="636" type="curve"/>
      <point x="391" y="686" type="line"/>
      <point x="424" y="656" type="line"/>
      <point x="333" y="608" type="line"/>
      <point x="384" y="559"/>
      <point x="402" y="535"/>
      <point x="424" y="490" type="curve" smooth="yes"/>
      <point x="455" y="427"/>
      <point x="471" y="355"/>
      <point x="471" y="285" type="curve" smooth="yes"/>
      <point x="471" y="189"/>
      <point x="437" y="95"/>
      <point x="382" y="43" type="curve" smooth="yes"/>
      <point x="345" y="8"/>
      <point x="300" y="-10"/>
      <point x="247" y="-10" type="curve" smooth="yes"/>
      <point x="123" y="-10"/>
      <point x="29" y="90"/>
      <point x="29" y="223" type="curve" smooth="yes"/>
      <point x="29" y="357"/>
      <point x="121" y="460"/>
      <point x="241" y="460" type="curve" smooth="yes"/>
      <point x="289" y="460"/>
      <point x="316" y="447"/>
      <point x="367" y="400" type="curve"/>
      <point x="352" y="474"/>
      <point x="329" y="515"/>
    </contour>
    <contour>
      <point x="237" y="432" type="curve" smooth="yes"/>
      <point x="167" y="432"/>
      <point x="119" y="369"/>
      <point x="119" y="276" type="curve" smooth="yes"/>
      <point x="119" y="206"/>
      <point x="135" y="136"/>
      <point x="163" y="83" type="curve" smooth="yes"/>
      <point x="185" y="42"/>
      <point x="222" y="18"/>
      <point x="261" y="18" type="curve" smooth="yes"/>
      <point x="337" y="18"/>
      <point x="381" y="86"/>
      <point x="381" y="201" type="curve" smooth="yes"/>
      <point x="381" y="337"/>
      <point x="322" y="432"/>
    </contour>
  </outline>
</glyph>
<glyph name="otilde" format="1">
  <advance width="500"/>
  <unicode hex="00F5"/>
  <outline>
    <contour>
      <point x="250" y="460" type="curve" smooth="yes"/>
      <point x="378" y="460"/>
      <point x="470" y="365"/>
      <point x="470" y="234" type="curve" smooth="yes"/>
      <point x="470" y="96"/>
      <point x="374" y="-10"/>
      <point x="248" y="-10" type="curve" smooth="yes"/>
      <point x="122" y="-10"/>
      <point x="29" y="91"/>
      <point x="29" y="226" type="curve" smooth="yes"/>
      <point x="29" y="364"/>
      <point x="120" y="460"/>
    </contour>
    <contour>
      <point x="237" y="432" type="curve" smooth="yes"/>
      <point x="166" y="432"/>
      <point x="119" y="370"/>
      <point x="119" y="275" type="curve" smooth="yes"/>
      <point x="119" y="204"/>
      <point x="135" y="134"/>
      <point x="163" y="82" type="curve" smooth="yes"/>
      <point x="184" y="42"/>
      <point x="221" y="18"/>
      <point x="260" y="18" type="curve" smooth="yes"/>
      <point x="335" y="18"/>
      <point x="380" y="86"/>
      <point x="380" y="199" type="curve" smooth="yes"/>
      <point x="380" y="336"/>
      <point x="321" y="432"/>
    </contour>
    <contour>
      <point x="386" y="638" type="curve"/>
      <point x="415" y="638" type="line"/>
      <point x="394" y="562"/>
      <point x="365" y="532"/>
      <point x="310" y="532" type="curve" smooth="yes"/>
      <point x="285" y="532"/>
      <point x="270" y="536"/>
      <point x="229" y="556" type="curve" smooth="yes"/>
      <point x="206" y="567" type="line" smooth="yes"/>
      <point x="191" y="574"/>
      <point x="177" y="578"/>
      <point x="165" y="578" type="curve" smooth="yes"/>
      <point x="142" y="578"/>
      <point x="125" y="563"/>
      <point x="114" y="532" type="curve"/>
      <point x="85" y="532" type="line"/>
      <point x="100" y="597"/>
      <point x="136" y="633"/>
      <point x="186" y="633" type="curve" smooth="yes"/>
      <point x="208" y="633"/>
      <point x="233" y="627"/>
      <point x="256" y="615" type="curve" smooth="yes"/>
      <point x="280" y="603" type="line" smooth="yes"/>
      <point x="299" y="594"/>
      <point x="318" y="588"/>
      <point x="333" y="588" type="curve" smooth="yes"/>
      <point x="356" y="588"/>
      <point x="369" y="600"/>
    </contour>
  </outline>
</glyph>
<glyph name="oslash" format="1">
  <advance width="500"/>
  <unicode hex="00F8"/>
  <outline>
    <contour>
      <point x="437" y="551" type="line"/>
      <point x="372" y="426" type="line"/>
      <point x="403" y="404"/>
      <point x="416" y="392"/>
      <point x="432" y="368" type="curve" smooth="yes"/>
      <point x="456" y="330"/>
      <point x="470" y="282"/>
      <point x="470" y="234" type="curve" smooth="yes"/>
      <point x="470" y="95"/>
      <point x="374" y="-10"/>
      <point x="247" y="-10" type="curve" smooth="yes"/>
      <point x="212" y="-10"/>
      <point x="189" y="-5"/>
      <point x="154" y="11" type="curve"/>
      <point x="89" y="-112" type="line"/>
      <point x="52" y="-112" type="line"/>
      <point x="125" y="28" type="line"/>
      <point x="91" y="55"/>
      <point x="78" y="70"/>
      <point x="62" y="97" type="curve" smooth="yes"/>
      <point x="41" y="135"/>
      <point x="29" y="181"/>
      <point x="29" y="227" type="curve" smooth="yes"/>
      <point x="29" y="363"/>
      <point x="120" y="460"/>
      <point x="249" y="460" type="curve" smooth="yes"/>
      <point x="282" y="460"/>
      <point x="306" y="455"/>
      <point x="341" y="442" type="curve"/>
      <point x="398" y="551" type="line"/>
    </contour>
    <contour>
      <point x="340" y="366" type="curve"/>
      <point x="179" y="60" type="line"/>
      <point x="204" y="30"/>
      <point x="227" y="18"/>
      <point x="261" y="18" type="curve" smooth="yes"/>
      <point x="336" y="18"/>
      <point x="380" y="87"/>
      <point x="380" y="203" type="curve" smooth="yes"/>
      <point x="380" y="267"/>
      <point x="369" y="311"/>
    </contour>
    <contour>
      <point x="158" y="92" type="curve"/>
      <point x="317" y="396" type="line"/>
      <point x="290" y="422"/>
      <point x="268" y="432"/>
      <point x="237" y="432" type="curve" smooth="yes"/>
      <point x="166" y="432"/>
      <point x="119" y="370"/>
      <point x="119" y="276" type="curve" smooth="yes"/>
      <point x="119" y="207"/>
      <point x="131" y="149"/>
    </contour>
  </outline>
</glyph>
<glyph name="Ccircumflex" format="1">
  <advance width="667"/>
  <unicode hex="0108"/>
  <outline>
    <contour>
      <point x="486" y="712" type="line"/>
      <point x="452" y="712" type="line"/>
      <point x="330" y="815" type="line"/>
      <point x="209" y="712" type="line"/>
      <point x="175" y="712" type="line"/>
      <point x="299" y="879" type="line"/>
      <point x="361" y="879" type="line"/>
    </contour>
    <contour>
      <point x="620" y="450" type="line"/>
      <point x="597" y="450" type="line"/>
      <point x="578" y="515"/>
      <point x="563" y="543"/>
      <point x="531" y="575" type="curve" smooth="yes"/>
      <point x="491" y="615"/>
      <point x="439" y="636"/>
      <point x="382" y="636" type="curve" smooth="yes"/>
      <point x="237" y="636"/>
      <point x="144" y="519"/>
      <point x="144" y="338" type="curve" smooth="yes"/>
      <point x="144" y="227"/>
      <point x="175" y="137"/>
      <point x="230" y="88" type="curve" smooth="yes"/>
      <point x="273" y="50"/>
      <point x="329" y="30"/>
      <point x="392" y="30" type="curve" smooth="yes"/>
      <point x="475" y="30"/>
      <point x="541" y="60"/>
      <point x="615" y="131" type="curve"/>
      <point x="633" y="113" type="line"/>
      <point x="572" y="32"/>
      <point x="473" y="-14"/>
      <point x="360" y="-14" type="curve" smooth="yes"/>
      <point x="261" y="-14"/>
      <point x="169" y="24"/>
      <point x="109" y="89" type="curve"/>
      <point x="58" y="146"/>
      <point x="28" y="232"/>
      <point x="28" y="325" type="curve" smooth="yes"/>
      <point x="28" y="435"/>
      <point x="66" y="528"/>
      <point x="136" y="590" type="curve" smooth="yes"/>
      <point x="198" y="645"/>
      <point x="281" y="676"/>
      <point x="363" y="676" type="curve" smooth="yes"/>
      <point x="410" y="676"/>
      <point x="460" y="668"/>
      <point x="509" y="652" type="curve"/>
      <point x="524" y="646"/>
      <point x="539" y="643"/>
      <point x="548" y="643" type="curve" smooth="yes"/>
      <point x="568" y="643"/>
      <point x="584" y="655"/>
      <point x="590" y="676" type="curve"/>
      <point x="611" y="676" type="line"/>
    </contour>
  </outline>
</glyph>
<glyph name="ccircumflex" format="1">
  <advance width="444"/>
  <unicode hex="0109"/>
  <outline>
    <contour>
      <point x="374" y="500" type="line"/>
      <point x="340" y="500" type="line"/>
      <point x="218" y="603" type="line"/>
      <point x="97" y="500" type="line"/>
      <point x="63" y="500" type="line"/>
      <point x="187" y="667" type="line"/>
      <point x="249" y="667" type="line"/>
    </contour>
    <contour>
      <point x="398" y="156" type="curve"/>
      <point x="412" y="147" type="line"/>
      <point x="382" y="88"/>
      <point x="363" y="61"/>
      <point x="336" y="37" type="curve" smooth="yes"/>
      <point x="300" y="6"/>
      <point x="260" y="-10"/>
      <point x="215" y="-10" type="curve" smooth="yes"/>
      <point x="104" y="-10"/>
      <point x="25" y="83"/>
      <point x="25" y="213" type="curve" smooth="yes"/>
      <point x="25" y="292"/>
      <point x="53" y="360"/>
      <point x="103" y="404" type="curve" smooth="yes"/>
      <point x="144" y="440"/>
      <point x="195" y="460"/>
      <point x="244" y="460" type="curve" smooth="yes"/>
      <point x="328" y="460"/>
      <point x="398" y="413"/>
      <point x="398" y="357" type="curve" smooth="yes"/>
      <point x="398" y="334"/>
      <point x="376" y="315"/>
      <point x="350" y="315" type="curve" smooth="yes"/>
      <point x="329" y="315"/>
      <point x="311" y="333"/>
      <point x="303" y="361" type="curve" smooth="yes"/>
      <point x="297" y="383" type="line" smooth="yes"/>
      <point x="287" y="420"/>
      <point x="274" y="431"/>
      <point x="238" y="431" type="curve" smooth="yes"/>
      <point x="157" y="431"/>
      <point x="102" y="360"/>
      <point x="102" y="257" type="curve" smooth="yes"/>
      <point x="102" y="142"/>
      <point x="166" y="62"/>
      <point x="257" y="62" type="curve" smooth="yes"/>
      <point x="314" y="62"/>
      <point x="350" y="86"/>
    </contour>
  </outline>
</glyph>
<glyph name="Cdotaccent" format="1">
  <advance width="667"/>
  <unicode hex="010A"/>
  <outline>
    <contour>
      <point x="329" y="811" type="curve" smooth="yes"/>
      <point x="357" y="811"/>
      <point x="380" y="788"/>
      <point x="380" y="761" type="curve" smooth="yes"/>
      <point x="380" y="734"/>
      <point x="357" y="712"/>
      <point x="329" y="712" type="curve" smooth="yes"/>
      <point x="302" y="712"/>
      <point x="281" y="734"/>
      <point x="281" y="762" type="curve" smooth="yes"/>
      <point x="281" y="788"/>
      <point x="304" y="811"/>
    </contour>
    <contour>
      <point x="620" y="450" type="line"/>
      <point x="597" y="450" type="line"/>
      <point x="578" y="515"/>
      <point x="563" y="543"/>
      <point x="531" y="575" type="curve" smooth="yes"/>
      <point x="491" y="615"/>
      <point x="439" y="636"/>
      <point x="382" y="636" type="curve" smooth="yes"/>
      <point x="237" y="636"/>
      <point x="144" y="519"/>
      <point x="144" y="338" type="curve" smooth="yes"/>
      <point x="144" y="227"/>
      <point x="175" y="137"/>
      <point x="230" y="88" type="curve" smooth="yes"/>
      <point x="273" y="50"/>
      <point x="329" y="30"/>
      <point x="392" y="30" type="curve" smooth="yes"/>
      <point x="475" y="30"/>
      <point x="541" y="60"/>
      <point x="615" y="131" type="curve"/>
      <point x="633" y="113" type="line"/>
      <point x="572" y="32"/>
      <point x="473" y="-14"/>
      <point x="360" y="-14" type="curve" smooth="yes"/>
      <point x="261" y="-14"/>
      <point x="169" y="24"/>
      <point x="109" y="89" type="curve"/>
      <point x="58" y="146"/>
      <point x="28" y="232"/>
      <point x="28" y="325" type="curve" smooth="yes"/>
      <point x="28" y="435"/>
      <point x="66" y="528"/>
      <point x="136" y="590" type="curve" smooth="yes"/>
      <point x="198" y="645"/>
      <point x="281" y="676"/>
      <point x="363" y="676" type="curve" smooth="yes"/>
      <point x="410" y="676"/>
      <point x="460" y="668"/>
      <point x="509" y="652" type="curve"/>
      <point x="524" y="646"/>
      <point x="539" y="643"/>
      <point x="548" y="643" type="curve" smooth="yes"/>
      <point x="568" y="643"/>
      <point x="584" y="655"/>
      <point x="590" y="676" type="curve"/>
      <point x="611" y="676" type="line"/>
    </contour>
  </outline>
</glyph>
<glyph name="cdotaccent" format="1">
  <advance width="444"/>
  <unicode hex="010B"/>
  <outline>
    <contour>
      <point x="217" y="599" type="curve" smooth="yes"/>
      <point x="245" y="599"/>
      <point x="268" y="576"/>
      <point x="268" y="549" type="curve" smooth="yes"/>
      <point x="268" y="522"/>
      <point x="245" y="500"/>
      <point x="217" y="500" type="curve" smooth="yes"/>
      <point x="190" y="500"/>
      <point x="169" y="522"/>
      <point x="169" y="550" type="curve" smooth="yes"/>
      <point x="169" y="576"/>
      <point x="192" y="599"/>
    </contour>
    <contour>
      <point x="398" y="156" type="curve"/>
      <point x="412" y="147" type="line"/>
      <point x="382" y="88"/>
      <point x="363" y="61"/>
      <point x="336" y="37" type="curve" smooth="yes"/>
      <point x="300" y="6"/>
      <point x="260" y="-10"/>
      <point x="215" y="-10" type="curve" smooth="yes"/>
      <point x="104" y="-10"/>
      <point x="25" y="83"/>
      <point x="25" y="213" type="curve" smooth="yes"/>
      <point x="25" y="292"/>
      <point x="53" y="360"/>
      <point x="103" y="404" type="curve" smooth="yes"/>
      <point x="144" y="440"/>
      <point x="195" y="460"/>
      <point x="244" y="460" type="curve" smooth="yes"/>
      <point x="328" y="460"/>
      <point x="398" y="413"/>
      <point x="398" y="357" type="curve" smooth="yes"/>
      <point x="398" y="334"/>
      <point x="376" y="315"/>
      <point x="350" y="315" type="curve" smooth="yes"/>
      <point x="329" y="315"/>
      <point x="311" y="333"/>
      <point x="303" y="361" type="curve" smooth="yes"/>
      <point x="297" y="383" type="line" smooth="yes"/>
      <point x="287" y="420"/>
      <point x="274" y="431"/>
      <point x="238" y="431" type="curve" smooth="yes"/>
      <point x="157" y="431"/>
      <point x="102" y="360"/>
      <point x="102" y="257" type="curve" smooth="yes"/>
      <point x="102" y="142"/>
      <point x="166" y="62"/>
      <point x="257" y="62" type="curve" smooth="yes"/>
      <point x="314" y="62"/>
      <point x="350" y="86"/>
    </contour>
  </outline>
</glyph>
<glyph name="gcircumflex" format="1">
  <advance width="500"/>
  <unicode hex="011D"/>
  <outline>
    <contour>
      <point x="405" y="500" type="line"/>
      <point x="371" y="500" type="line"/>
      <point x="249" y="603" type="line"/>
      <point x="128" y="500" type="line"/>
      <point x="94" y="500" type="line"/>
      <point x="218" y="667" type="line"/>
      <point x="280" y="667" type="line"/>
    </contour>
    <contour>
      <point x="470" y="388" type="line"/>
      <point x="387" y="388" type="line"/>
      <point x="401" y="356"/>
      <point x="406" y="333"/>
      <point x="406" y="304" type="curve" smooth="yes"/>
      <point x="406" y="254"/>
      <point x="391" y="219"/>
      <point x="358" y="191" type="curve" smooth="yes"/>
      <point x="327" y="164"/>
      <point x="287" y="149"/>
      <point x="250" y="149" type="curve" smooth="yes"/>
      <point x="244" y="149"/>
      <point x="231" y="150"/>
      <point x="212" y="152" type="curve" smooth="yes"/>
      <point x="209" y="152"/>
      <point x="202" y="153"/>
      <point x="193" y="154" type="curve"/>
      <point x="166" y="146"/>
      <point x="133" y="111"/>
      <point x="133" y="91" type="curve" smooth="yes"/>
      <point x="133" y="75"/>
      <point x="158" y="66"/>
      <point x="211" y="64" type="curve" smooth="yes"/>
      <point x="340" y="58" type="line" smooth="yes"/>
      <point x="414" y="55"/>
      <point x="461" y="13"/>
      <point x="461" y="-49" type="curve" smooth="yes"/>
      <point x="461" y="-87"/>
      <point x="444" y="-119"/>
      <point x="406" y="-150" type="curve" smooth="yes"/>
      <point x="354" y="-192"/>
      <point x="276" y="-218"/>
      <point x="201" y="-218" type="curve" smooth="yes"/>
      <point x="106" y="-218"/>
      <point x="28" y="-174"/>
      <point x="28" y="-121" type="curve" smooth="yes"/>
      <point x="28" y="-84"/>
      <point x="55" y="-51"/>
      <point x="126" y="1" type="curve"/>
      <point x="85" y="21"/>
      <point x="73" y="33"/>
      <point x="73" y="54" type="curve" smooth="yes"/>
      <point x="73" y="74"/>
      <point x="86" y="94"/>
      <point x="119" y="123" type="curve" smooth="yes"/>
      <point x="125" y="128"/>
      <point x="143" y="145"/>
      <point x="162" y="163" type="curve"/>
      <point x="96" y="196"/>
      <point x="69" y="234"/>
      <point x="69" y="297" type="curve" smooth="yes"/>
      <point x="69" y="388"/>
      <point x="143" y="460"/>
      <point x="236" y="460" type="curve" smooth="yes"/>
      <point x="262" y="460"/>
      <point x="289" y="455"/>
      <point x="316" y="445" type="curve" smooth="yes"/>
      <point x="338" y="437" type="line" smooth="yes"/>
      <point x="358" y="430"/>
      <point x="373" y="427"/>
      <point x="393" y="427" type="curve" smooth="yes"/>
      <point x="470" y="427" type="line"/>
    </contour>
    <contour>
      <point x="147" y="-2" type="curve"/>
      <point x="105" y="-52"/>
      <point x="98" y="-65"/>
      <point x="98" y="-88" type="curve" smooth="yes"/>
      <point x="98" y="-132"/>
      <point x="156" y="-161"/>
      <point x="244" y="-161" type="curve" smooth="yes"/>
      <point x="357" y="-161"/>
      <point x="433" y="-122"/>
      <point x="433" y="-64" type="curve" smooth="yes"/>
      <point x="433" y="-28"/>
      <point x="400" y="-15"/>
      <point x="309" y="-15" type="curve" smooth="yes"/>
      <point x="260" y="-15"/>
      <point x="180" y="-9"/>
    </contour>
    <contour>
      <point x="152" y="338" type="curve" smooth="yes"/>
      <point x="152" y="335" type="line" smooth="yes"/>
      <point x="152" y="239"/>
      <point x="194" y="174"/>
      <point x="254" y="174" type="curve" smooth="yes"/>
      <point x="300" y="174"/>
      <point x="329" y="209"/>
      <point x="329" y="265" type="curve" smooth="yes"/>
      <point x="329" y="304"/>
      <point x="317" y="350"/>
      <point x="299" y="385" type="curve" smooth="yes"/>
      <point x="283" y="415"/>
      <point x="257" y="432"/>
      <point x="226" y="432" type="curve" smooth="yes"/>
      <point x="180" y="432"/>
      <point x="152" y="397"/>
    </contour>
  </outline>
</glyph>
<glyph name="hbar" format="1">
  <advance width="548"/>
  <unicode hex="0127"/>
  <outline>
    <contour>
      <point x="391" y="300" type="line" smooth="yes"/>
      <point x="391" y="370"/>
      <point x="366" y="406"/>
      <point x="316" y="406" type="curve" smooth="yes"/>
      <point x="277" y="406"/>
      <point x="247" y="389"/>
      <point x="205" y="343" type="curve"/>
      <point x="205" y="102" type="line" smooth="yes"/>
      <point x="205" y="33"/>
      <point x="215" y="21"/>
      <point x="273" y="15" type="curve"/>
      <point x="273" y="0" type="line"/>
      <point x="57" y="0" type="line"/>
      <point x="57" y="15" type="line"/>
      <point x="115" y="23"/>
      <point x="121" y="32"/>
      <point x="121" y="102" type="curve" smooth="yes"/>
      <point x="121" y="492" type="line"/>
      <point x="9" y="492" type="line"/>
      <point x="9" y="546" type="line"/>
      <point x="121" y="546" type="line"/>
      <point x="121" y="573" type="line" smooth="yes"/>
      <point x="121" y="616"/>
      <point x="113" y="624"/>
      <point x="70" y="624" type="curve" smooth="yes"/>
      <point x="65" y="624"/>
      <point x="62" y="624"/>
      <point x="58" y="623" type="curve"/>
      <point x="58" y="639" type="line"/>
      <point x="85" y="647" type="line" smooth="yes"/>
      <point x="141" y="663"/>
      <point x="166" y="671"/>
      <point x="200" y="683" type="curve"/>
      <point x="205" y="680" type="line"/>
      <point x="205" y="546" type="line"/>
      <point x="320" y="546" type="line"/>
      <point x="320" y="492" type="line"/>
      <point x="205" y="492" type="line"/>
      <point x="205" y="376" type="line"/>
      <point x="251" y="436"/>
      <point x="293" y="460"/>
      <point x="352" y="460" type="curve" smooth="yes"/>
      <point x="433" y="460"/>
      <point x="475" y="406"/>
      <point x="475" y="301" type="curve" smooth="yes"/>
      <point x="475" y="102" type="line" smooth="yes"/>
      <point x="475" y="33"/>
      <point x="481" y="25"/>
      <point x="535" y="15" type="curve"/>
      <point x="535" y="0" type="line"/>
      <point x="323" y="0" type="line"/>
      <point x="323" y="15" type="line"/>
      <point x="381" y="21"/>
      <point x="391" y="34"/>
      <point x="391" y="102" type="curve" smooth="yes"/>
    </contour>
  </outline>
</glyph>
<glyph name="itilde" format="1">
  <advance width="278"/>
  <unicode hex="0129"/>
  <outline>
    <contour>
      <point x="271" y="606" type="curve"/>
      <point x="300" y="606" type="line"/>
      <point x="279" y="530"/>
      <point x="250" y="500"/>
      <point x="195" y="500" type="curve" smooth="yes"/>
      <point x="170" y="500"/>
      <point x="155" y="504"/>
      <point x="114" y="524" type="curve" smooth="yes"/>
      <point x="91" y="535" type="line" smooth="yes"/>
      <point x="76" y="542"/>
      <point x="62" y="546"/>
      <point x="50" y="546" type="curve" smooth="yes"/>
      <point x="27" y="546"/>
      <point x="10" y="531"/>
      <point x="-1" y="500" type="curve"/>
      <point x="-30" y="500" type="line"/>
      <point x="-15" y="565"/>
      <point x="21" y="601"/>
      <point x="71" y="601" type="curve" smooth="yes"/>
      <point x="93" y="601"/>
      <point x="118" y="595"/>
      <point x="141" y="583" type="curve" smooth="yes"/>
      <point x="165" y="571" type="line" smooth="yes"/>
      <point x="184" y="562"/>
      <point x="203" y="556"/>
      <point x="218" y="556" type="curve" smooth="yes"/>
      <point x="241" y="556"/>
      <point x="254" y="568"/>
    </contour>
    <contour>
      <point x="175" y="460" type="line"/>
      <point x="179" y="457" type="line"/>
      <point x="179" y="102" type="line" smooth="yes"/>
      <point x="179" y="30"/>
      <point x="187" y="20"/>
      <point x="253" y="15" type="curve"/>
      <point x="253" y="0" type="line"/>
      <point x="16" y="0" type="line"/>
      <point x="16" y="15" type="line"/>
      <point x="85" y="19"/>
      <point x="95" y="30"/>
      <point x="95" y="102" type="curve" smooth="yes"/>
      <point x="95" y="334" type="line" smooth="yes"/>
      <point x="95" y="378"/>
      <point x="86" y="394"/>
      <point x="62" y="394" type="curve" smooth="yes"/>
      <point x="53" y="394"/>
      <point x="40" y="393"/>
      <point x="28" y="391" type="curve" smooth="yes"/>
      <point x="20" y="390" type="line"/>
      <point x="20" y="405" type="line"/>
    </contour>
  </outline>
</glyph>
<glyph name="ibreve" format="1">
  <advance width="278"/>
  <unicode hex="012D"/>
  <outline>
    <contour>
      <point x="246" y="657" type="curve"/>
      <point x="275" y="657" type="line"/>
      <point x="263" y="551"/>
      <point x="217" y="500"/>
      <point x="133" y="500" type="curve" smooth="yes"/>
      <point x="86" y="500"/>
      <point x="46" y="519"/>
      <point x="21" y="554" type="curve" smooth="yes"/>
      <point x="2" y="582"/>
      <point x="-5" y="606"/>
      <point x="-6" y="657" type="curve"/>
      <point x="23" y="657" type="line"/>
      <point x="37" y="590"/>
      <point x="71" y="560"/>
      <point x="135" y="560" type="curve" smooth="yes"/>
      <point x="193" y="560"/>
      <point x="218" y="581"/>
    </contour>
    <contour>
      <point x="175" y="460" type="line"/>
      <point x="179" y="457" type="line"/>
      <point x="179" y="102" type="line" smooth="yes"/>
      <point x="179" y="30"/>
      <point x="187" y="20"/>
      <point x="253" y="15" type="curve"/>
      <point x="253" y="0" type="line"/>
      <point x="16" y="0" type="line"/>
      <point x="16" y="15" type="line"/>
      <point x="85" y="19"/>
      <point x="95" y="30"/>
      <point x="95" y="102" type="curve" smooth="yes"/>
      <point x="95" y="334" type="line" smooth="yes"/>
      <point x="95" y="378"/>
      <point x="86" y="394"/>
      <point x="62" y="394" type="curve" smooth="yes"/>
      <point x="53" y="394"/>
      <point x="40" y="393"/>
      <point x="28" y="391" type="curve" smooth="yes"/>
      <point x="20" y="390" type="line"/>
      <point x="20" y="405" type="line"/>
    </contour>
  </outline>
</glyph>
<glyph name="Idotaccent" format="1">
  <advance width="333"/>
  <unicode hex="0130"/>
  <outline>
    <contour>
      <point x="115" y="109" type="curve" smooth="yes"/>
      <point x="115" y="553" type="line" smooth="yes"/>
      <point x="115" y="627"/>
      <point x="103" y="638"/>
      <point x="18" y="643" type="curve"/>
      <point x="18" y="662" type="line"/>
      <point x="315" y="662" type="line"/>
      <point x="315" y="643" type="line"/>
      <point x="231" y="639"/>
      <point x="217" y="626"/>
      <point x="217" y="553" type="curve" smooth="yes"/>
      <point x="217" y="109" type="line" smooth="yes"/>
      <point x="217" y="36"/>
      <point x="233" y="22"/>
      <point x="315" y="19" type="curve"/>
      <point x="315" y="0" type="line"/>
      <point x="18" y="0" type="line"/>
      <point x="18" y="19" type="line"/>
      <point x="102" y="22"/>
      <point x="115" y="34"/>
    </contour>
    <contour>
      <point x="166" y="834" type="curve" smooth="yes"/>
      <point x="194" y="834"/>
      <point x="217" y="811"/>
      <point x="217" y="784" type="curve" smooth="yes"/>
      <point x="217" y="757"/>
      <point x="194" y="735"/>
      <point x="166" y="735" type="curve" smooth="yes"/>
      <point x="139" y="735"/>
      <point x="118" y="757"/>
      <point x="118" y="785" type="curve" smooth="yes"/>
      <point x="118" y="811"/>
      <point x="141" y="834"/>
    </contour>
  </outline>
</glyph>
<glyph name="Kcommaaccent" format="1">
  <advance width="722"/>
  <unicode hex="0136"/>
  <outline>
    <contour>
      <point x="413" y="643" type="curve"/>
      <point x="413" y="662" type="line"/>
      <point x="675" y="662" type="line"/>
      <point x="675" y="643" type="line"/>
      <point x="607" y="638"/>
      <point x="591" y="630"/>
      <point x="523" y="565" type="curve"/>
      <point x="333" y="377" type="line"/>
      <point x="566" y="127" type="line" smooth="yes"/>
      <point x="657" y="30"/>
      <point x="671" y="20"/>
      <point x="723" y="19" type="curve"/>
      <point x="723" y="0" type="line"/>
      <point x="418" y="0" type="line"/>
      <point x="418" y="19" type="line"/>
      <point x="430" y="20"/>
      <point x="441" y="20"/>
      <point x="446" y="20" type="curve" smooth="yes"/>
      <point x="474" y="21"/>
      <point x="488" y="28"/>
      <point x="488" y="42" type="curve" smooth="yes"/>
      <point x="488" y="66"/>
      <point x="434" y="137"/>
      <point x="358" y="212" type="curve" smooth="yes"/>
      <point x="252" y="317" type="line"/>
      <point x="226" y="296" type="line"/>
      <point x="226" y="109" type="line" smooth="yes"/>
      <point x="226" y="36"/>
      <point x="238" y="24"/>
      <point x="316" y="19" type="curve"/>
      <point x="316" y="0" type="line"/>
      <point x="34" y="0" type="line"/>
      <point x="34" y="19" type="line"/>
      <point x="113" y="24"/>
      <point x="124" y="37"/>
      <point x="124" y="120" type="curve" smooth="yes"/>
      <point x="124" y="553" type="line" smooth="yes"/>
      <point x="124" y="624"/>
      <point x="112" y="637"/>
      <point x="34" y="643" type="curve"/>
      <point x="34" y="662" type="line"/>
      <point x="318" y="662" type="line"/>
      <point x="318" y="643" type="line"/>
      <point x="237" y="637"/>
      <point x="226" y="626"/>
      <point x="226" y="553" type="curve" smooth="yes"/>
      <point x="226" y="348" type="line"/>
      <point x="403" y="509" type="line" smooth="yes"/>
      <point x="458" y="560"/>
      <point x="481" y="590"/>
      <point x="481" y="612" type="curve" smooth="yes"/>
      <point x="481" y="632"/>
      <point x="469" y="640"/>
      <point x="439" y="642" type="curve" smooth="yes"/>
      <point x="435" y="642"/>
      <point x="425" y="642"/>
    </contour>
    <contour>
      <point x="318" y="-281" type="curve"/>
      <point x="309" y="-262" type="line"/>
      <point x="363" y="-225"/>
      <point x="391" y="-188"/>
      <point x="391" y="-156" type="curve" smooth="yes"/>
      <point x="391" y="-148"/>
      <point x="385" y="-142"/>
      <point x="377" y="-142" type="curve" smooth="yes"/>
      <point x="376" y="-142"/>
      <point x="376" y="-142"/>
      <point x="369" y="-144" type="curve" smooth="yes"/>
      <point x="363" y="-145"/>
      <point x="356" y="-146"/>
      <point x="350" y="-146" type="curve" smooth="yes"/>
      <point x="314" y="-146"/>
      <point x="291" y="-127"/>
      <point x="291" y="-95" type="curve" smooth="yes"/>
      <point x="291" y="-61"/>
      <point x="315" y="-38"/>
      <point x="350" y="-38" type="curve" smooth="yes"/>
      <point x="395" y="-38"/>
      <point x="430" y="-77"/>
      <point x="430" y="-127" type="curve" smooth="yes"/>
      <point x="430" y="-187"/>
      <point x="385" y="-248"/>
    </contour>
  </outline>
</glyph>
<glyph name="Lacute" format="1">
  <advance width="611"/>
  <unicode hex="0139"/>
  <outline>
    <contour>
      <point x="573" y="174" type="curve"/>
      <point x="598" y="174" type="line"/>
      <point x="550" y="0" type="line"/>
      <point x="12" y="0" type="line"/>
      <point x="12" y="19" type="line"/>
      <point x="85" y="24"/>
      <point x="99" y="39"/>
      <point x="99" y="109" type="curve" smooth="yes"/>
      <point x="99" y="553" type="line" smooth="yes"/>
      <point x="99" y="623"/>
      <point x="86" y="637"/>
      <point x="12" y="643" type="curve"/>
      <point x="12" y="662" type="line"/>
      <point x="294" y="662" type="line"/>
      <point x="294" y="643" type="line"/>
      <point x="215" y="638"/>
      <point x="201" y="624"/>
      <point x="201" y="553" type="curve" smooth="yes"/>
      <point x="201" y="80" type="line" smooth="yes"/>
      <point x="201" y="45"/>
      <point x="214" y="39"/>
      <point x="287" y="39" type="curve" smooth="yes"/>
      <point x="354" y="39" type="line" smooth="yes"/>
      <point x="437" y="39"/>
      <point x="492" y="57"/>
      <point x="527" y="96" type="curve" smooth="yes"/>
      <point x="542" y="113"/>
      <point x="556" y="136"/>
    </contour>
    <contour>
      <point x="272" y="719" type="line"/>
      <point x="232" y="719" type="line"/>
      <point x="379" y="867" type="line" smooth="yes"/>
      <point x="397" y="885"/>
      <point x="406" y="890"/>
      <point x="421" y="890" type="curve" smooth="yes"/>
      <point x="443" y="890"/>
      <point x="456" y="878"/>
      <point x="456" y="858" type="curve" smooth="yes"/>
      <point x="456" y="842"/>
      <point x="447" y="829"/>
      <point x="426" y="816" type="curve" smooth="yes"/>
    </contour>
  </outline>
</glyph>
<glyph name="Lcommaaccent" format="1">
  <advance width="611"/>
  <unicode hex="013B"/>
  <outline>
    <contour>
      <point x="573" y="174" type="curve"/>
      <point x="598" y="174" type="line"/>
      <point x="550" y="0" type="line"/>
      <point x="12" y="0" type="line"/>
      <point x="12" y="19" type="line"/>
      <point x="85" y="24"/>
      <point x="99" y="39"/>
      <point x="99" y="109" type="curve" smooth="yes"/>
      <point x="99" y="553" type="line" smooth="yes"/>
      <point x="99" y="623"/>
      <point x="86" y="637"/>
      <point x="12" y="643" type="curve"/>
      <point x="12" y="662" type="line"/>
      <point x="294" y="662" type="line"/>
      <point x="294" y="643" type="line"/>
      <point x="215" y="638"/>
      <point x="201" y="624"/>
      <point x="201" y="553" type="curve" smooth="yes"/>
      <point x="201" y="80" type="line" smooth="yes"/>
      <point x="201" y="45"/>
      <point x="214" y="39"/>
      <point x="287" y="39" type="curve" smooth="yes"/>
      <point x="354" y="39" type="line" smooth="yes"/>
      <point x="437" y="39"/>
      <point x="492" y="57"/>
      <point x="527" y="96" type="curve" smooth="yes"/>
      <point x="542" y="113"/>
      <point x="556" y="136"/>
    </contour>
    <contour>
      <point x="263" y="-281" type="curve"/>
      <point x="254" y="-262" type="line"/>
      <point x="308" y="-225"/>
      <point x="336" y="-188"/>
      <point x="336" y="-156" type="curve" smooth="yes"/>
      <point x="336" y="-148"/>
      <point x="330" y="-142"/>
      <point x="322" y="-142" type="curve" smooth="yes"/>
      <point x="321" y="-142"/>
      <point x="321" y="-142"/>
      <point x="314" y="-144" type="curve" smooth="yes"/>
      <point x="308" y="-145"/>
      <point x="301" y="-146"/>
      <point x="295" y="-146" type="curve" smooth="yes"/>
      <point x="259" y="-146"/>
      <point x="236" y="-127"/>
      <point x="236" y="-95" type="curve" smooth="yes"/>
      <point x="236" y="-61"/>
      <point x="260" y="-38"/>
      <point x="295" y="-38" type="curve" smooth="yes"/>
      <point x="340" y="-38"/>
      <point x="375" y="-77"/>
      <point x="375" y="-127" type="curve" smooth="yes"/>
      <point x="375" y="-187"/>
      <point x="330" y="-248"/>
    </contour>
  </outline>
</glyph>
<glyph name="lcommaaccent" format="1">
  <advance width="278"/>
  <unicode hex="013C"/>
  <outline>
    <contour>
      <point x="19" y="623" type="line"/>
      <point x="19" y="639" type="line"/>
      <point x="88" y="656"/>
      <point x="126" y="666"/>
      <point x="178" y="683" type="curve"/>
      <point x="182" y="681" type="line"/>
      <point x="182" y="84" type="line" smooth="yes"/>
      <point x="182" y="29"/>
      <point x="194" y="19"/>
      <point x="257" y="15" type="curve"/>
      <point x="257" y="0" type="line"/>
      <point x="21" y="0" type="line"/>
      <point x="21" y="15" type="line"/>
      <point x="84" y="20"/>
      <point x="98" y="33"/>
      <point x="98" y="87" type="curve" smooth="yes"/>
      <point x="98" y="564" type="line" smooth="yes"/>
      <point x="98" y="611"/>
      <point x="88" y="625"/>
      <point x="56" y="625" type="curve" smooth="yes"/>
      <point x="48" y="625"/>
      <point x="36" y="624"/>
      <point x="25" y="623" type="curve"/>
    </contour>
    <contour>
      <point x="96" y="-281" type="curve"/>
      <point x="87" y="-262" type="line"/>
      <point x="141" y="-225"/>
      <point x="169" y="-188"/>
      <point x="169" y="-156" type="curve" smooth="yes"/>
      <point x="169" y="-148"/>
      <point x="163" y="-142"/>
      <point x="155" y="-142" type="curve" smooth="yes"/>
      <point x="154" y="-142"/>
      <point x="154" y="-142"/>
      <point x="147" y="-144" type="curve" smooth="yes"/>
      <point x="141" y="-145"/>
      <point x="134" y="-146"/>
      <point x="128" y="-146" type="curve" smooth="yes"/>
      <point x="92" y="-146"/>
      <point x="69" y="-127"/>
      <point x="69" y="-95" type="curve" smooth="yes"/>
      <point x="69" y="-61"/>
      <point x="93" y="-38"/>
      <point x="128" y="-38" type="curve" smooth="yes"/>
      <point x="173" y="-38"/>
      <point x="208" y="-77"/>
      <point x="208" y="-127" type="curve" smooth="yes"/>
      <point x="208" y="-187"/>
      <point x="163" y="-248"/>
    </contour>
  </outline>
</glyph>
<glyph name="ncommaaccent" format="1">
  <advance width="500"/>
  <unicode hex="0146"/>
  <outline>
    <contour>
      <point x="16" y="398" type="curve"/>
      <point x="16" y="415" type="line"/>
      <point x="71" y="431"/>
      <point x="105" y="442"/>
      <point x="154" y="460" type="curve"/>
      <point x="161" y="458" type="line"/>
      <point x="161" y="379" type="line"/>
      <point x="229" y="443"/>
      <point x="260" y="460"/>
      <point x="306" y="460" type="curve" smooth="yes"/>
      <point x="380" y="460"/>
      <point x="424" y="404"/>
      <point x="424" y="310" type="curve" smooth="yes"/>
      <point x="424" y="81" type="line" smooth="yes"/>
      <point x="424" y="32"/>
      <point x="436" y="20"/>
      <point x="485" y="15" type="curve"/>
      <point x="485" y="0" type="line"/>
      <point x="277" y="0" type="line"/>
      <point x="277" y="15" type="line"/>
      <point x="327" y="19"/>
      <point x="340" y="36"/>
      <point x="340" y="99" type="curve" smooth="yes"/>
      <point x="340" y="308" type="line" smooth="yes"/>
      <point x="340" y="374"/>
      <point x="316" y="405"/>
      <point x="267" y="405" type="curve" smooth="yes"/>
      <point x="234" y="405"/>
      <point x="212" y="393"/>
      <point x="164" y="348" type="curve"/>
      <point x="164" y="67" type="line" smooth="yes"/>
      <point x="164" y="31"/>
      <point x="179" y="19"/>
      <point x="230" y="15" type="curve"/>
      <point x="230" y="0" type="line"/>
      <point x="18" y="0" type="line"/>
      <point x="18" y="15" type="line"/>
      <point x="69" y="19"/>
      <point x="80" y="33"/>
      <point x="80" y="90" type="curve" smooth="yes"/>
      <point x="80" y="338" type="line" smooth="yes"/>
      <point x="80" y="387"/>
      <point x="71" y="402"/>
      <point x="43" y="402" type="curve" smooth="yes"/>
      <point x="32" y="402"/>
      <point x="22" y="401"/>
    </contour>
    <contour>
      <point x="207" y="-281" type="curve"/>
      <point x="198" y="-262" type="line"/>
      <point x="252" y="-225"/>
      <point x="280" y="-188"/>
      <point x="280" y="-156" type="curve" smooth="yes"/>
      <point x="280" y="-148"/>
      <point x="274" y="-142"/>
      <point x="266" y="-142" type="curve" smooth="yes"/>
      <point x="265" y="-142"/>
      <point x="265" y="-142"/>
      <point x="258" y="-144" type="curve" smooth="yes"/>
      <point x="252" y="-145"/>
      <point x="245" y="-146"/>
      <point x="239" y="-146" type="curve" smooth="yes"/>
      <point x="203" y="-146"/>
      <point x="180" y="-127"/>
      <point x="180" y="-95" type="curve" smooth="yes"/>
      <point x="180" y="-61"/>
      <point x="204" y="-38"/>
      <point x="239" y="-38" type="curve" smooth="yes"/>
      <point x="284" y="-38"/>
      <point x="319" y="-77"/>
      <point x="319" y="-127" type="curve" smooth="yes"/>
      <point x="319" y="-187"/>
      <point x="274" y="-248"/>
    </contour>
  </outline>
</glyph>
<glyph name="Obreve" format="1">
  <advance width="722"/>
  <unicode hex="014E"/>
  <outline>
    <contour>
      <point x="472" y="869" type="curve"/>
      <point x="501" y="869" type="line"/>
      <point x="489" y="763"/>
      <point x="443" y="712"/>
      <point x="359" y="712" type="curve" smooth="yes"/>
      <point x="312" y="712"/>
      <point x="272" y="731"/>
      <point x="247" y="766" type="curve" smooth="yes"/>
      <point x="228" y="794"/>
      <point x="221" y="818"/>
      <point x="220" y="869" type="curve"/>
      <point x="249" y="869" type="line"/>
      <point x="263" y="802"/>
      <point x="297" y="772"/>
      <point x="361" y="772" type="curve" smooth="yes"/>
      <point x="419" y="772"/>
      <point x="444" y="793"/>
    </contour>
    <contour>
      <point x="361" y="676" type="curve" smooth="yes"/>
      <point x="457" y="676"/>
      <point x="541" y="640"/>
      <point x="604" y="571" type="curve" smooth="yes"/>
      <point x="659" y="511"/>
      <point x="688" y="426"/>
      <point x="688" y="327" type="curve" smooth="yes"/>
      <point x="688" y="126"/>
      <point x="552" y="-14"/>
      <point x="355" y="-14" type="curve" smooth="yes"/>
      <point x="267" y="-14"/>
      <point x="178" y="25"/>
      <point x="120" y="88" type="curve" smooth="yes"/>
      <point x="66" y="146"/>
      <point x="34" y="237"/>
      <point x="34" y="331" type="curve" smooth="yes"/>
      <point x="34" y="532"/>
      <point x="170" y="676"/>
    </contour>
    <contour>
      <point x="361" y="640" type="curve" smooth="yes"/>
      <point x="306" y="640"/>
      <point x="257" y="618"/>
      <point x="218" y="575" type="curve" smooth="yes"/>
      <point x="176" y="528"/>
      <point x="148" y="431"/>
      <point x="148" y="329" type="curve" smooth="yes"/>
      <point x="148" y="218"/>
      <point x="181" y="117"/>
      <point x="233" y="71" type="curve" smooth="yes"/>
      <point x="268" y="40"/>
      <point x="313" y="22"/>
      <point x="359" y="22" type="curve" smooth="yes"/>
      <point x="412" y="22"/>
      <point x="457" y="40"/>
      <point x="492" y="75" type="curve" smooth="yes"/>
      <point x="515" y="98"/>
      <point x="532" y="123"/>
      <point x="541" y="148" type="curve" smooth="yes"/>
      <point x="561" y="200"/>
      <point x="574" y="269"/>
      <point x="574" y="328" type="curve" smooth="yes"/>
      <point x="574" y="447"/>
      <point x="543" y="541"/>
      <point x="489" y="590" type="curve" smooth="yes"/>
      <point x="453" y="622"/>
      <point x="407" y="640"/>
    </contour>
  </outline>
</glyph>
<glyph name="obreve" format="1">
  <advance width="500"/>
  <unicode hex="014F"/>
  <outline>
    <contour>
      <point x="361" y="657" type="curve"/>
      <point x="390" y="657" type="line"/>
      <point x="378" y="551"/>
      <point x="332" y="500"/>
      <point x="248" y="500" type="curve" smooth="yes"/>
      <point x="201" y="500"/>
      <point x="161" y="519"/>
      <point x="136" y="554" type="curve" smooth="yes"/>
      <point x="117" y="582"/>
      <point x="110" y="606"/>
      <point x="109" y="657" type="curve"/>
      <point x="138" y="657" type="line"/>
      <point x="152" y="590"/>
      <point x="186" y="560"/>
      <point x="250" y="560" type="curve" smooth="yes"/>
      <point x="308" y="560"/>
      <point x="333" y="581"/>
    </contour>
    <contour>
      <point x="250" y="460" type="curve" smooth="yes"/>
      <point x="378" y="460"/>
      <point x="470" y="365"/>
      <point x="470" y="234" type="curve" smooth="yes"/>
      <point x="470" y="96"/>
      <point x="374" y="-10"/>
      <point x="248" y="-10" type="curve" smooth="yes"/>
      <point x="122" y="-10"/>
      <point x="29" y="91"/>
      <point x="29" y="226" type="curve" smooth="yes"/>
      <point x="29" y="364"/>
      <point x="120" y="460"/>
    </contour>
    <contour>
      <point x="237" y="432" type="curve" smooth="yes"/>
      <point x="166" y="432"/>
      <point x="119" y="370"/>
      <point x="119" y="275" type="curve" smooth="yes"/>
      <point x="119" y="204"/>
      <point x="135" y="134"/>
      <point x="163" y="82" type="curve" smooth="yes"/>
      <point x="184" y="42"/>
      <point x="221" y="18"/>
      <point x="260" y="18" type="curve" smooth="yes"/>
      <point x="335" y="18"/>
      <point x="380" y="86"/>
      <point x="380" y="199" type="curve" smooth="yes"/>
      <point x="380" y="336"/>
      <point x="321" y="432"/>
    </contour>
  </outline>
</glyph>
<glyph name="ohungarumlaut" format="1">
  <advance width="500"/>
  <unicode hex="0151"/>
  <outline>
    <contour>
      <point x="250" y="460" type="curve" smooth="yes"/>
      <point x="378" y="460"/>
      <point x="470" y="365"/>
      <point x="470" y="234" type="curve" smooth="yes"/>
      <point x="470" y="96"/>
      <point x="374" y="-10"/>
      <point x="248" y="-10" type="curve" smooth="yes"/>
      <point x="122" y="-10"/>
      <point x="29" y="91"/>
      <point x="29" y="226" type="curve" smooth="yes"/>
      <point x="29" y="364"/>
      <point x="120" y="460"/>
    </contour>
    <contour>
      <point x="237" y="432" type="curve" smooth="yes"/>
      <point x="166" y="432"/>
      <point x="119" y="370"/>
      <point x="119" y="275" type="curve" smooth="yes"/>
      <point x="119" y="204"/>
      <point x="135" y="134"/>
      <point x="163" y="82" type="curve" smooth="yes"/>
      <point x="184" y="42"/>
      <point x="221" y="18"/>
      <point x="260" y="18" type="curve" smooth="yes"/>
      <point x="335" y="18"/>
      <point x="380" y="86"/>
      <point x="380" y="199" type="curve" smooth="yes"/>
      <point x="380" y="336"/>
      <point x="321" y="432"/>
    </contour>
    <contour>
      <point x="277" y="507" type="line"/>
      <point x="237" y="507" type="line"/>
      <point x="384" y="655" type="line" smooth="yes"/>
      <point x="402" y="673"/>
      <point x="411" y="678"/>
      <point x="426" y="678" type="curve" smooth="yes"/>
      <point x="448" y="678"/>
      <point x="461" y="666"/>
      <point x="461" y="646" type="curve" smooth="yes"/>
      <point x="461" y="630"/>
      <point x="452" y="617"/>
      <point x="431" y="604" type="curve" smooth="yes"/>
    </contour>
    <contour>
      <point x="121" y="507" type="line"/>
      <point x="81" y="507" type="line"/>
      <point x="228" y="655" type="line" smooth="yes"/>
      <point x="246" y="673"/>
      <point x="255" y="678"/>
      <point x="270" y="678" type="curve" smooth="yes"/>
      <point x="292" y="678"/>
      <point x="305" y="666"/>
      <point x="305" y="646" type="curve" smooth="yes"/>
      <point x="305" y="630"/>
      <point x="296" y="617"/>
      <point x="275" y="604" type="curve" smooth="yes"/>
    </contour>
  </outline>
</glyph>
<glyph name="OE" format="1">
  <advance width="889"/>
  <unicode hex="0152"/>
  <outline>
    <contour>
      <point x="838" y="521" type="line"/>
      <point x="815" y="521" type="line"/>
      <point x="803" y="610"/>
      <point x="778" y="626"/>
      <point x="647" y="626" type="curve" smooth="yes"/>
      <point x="596" y="626" type="line" smooth="yes"/>
      <point x="540" y="626"/>
      <point x="531" y="623"/>
      <point x="531" y="602" type="curve" smooth="yes"/>
      <point x="531" y="366" type="line"/>
      <point x="635" y="366" type="line" smooth="yes"/>
      <point x="697" y="366"/>
      <point x="733" y="376"/>
      <point x="748" y="397" type="curve" smooth="yes"/>
      <point x="759" y="412"/>
      <point x="764" y="427"/>
      <point x="767" y="464" type="curve"/>
      <point x="788" y="464" type="line"/>
      <point x="788" y="230" type="line"/>
      <point x="767" y="230" type="line"/>
      <point x="758" y="309"/>
      <point x="738" y="329"/>
      <point x="669" y="329" type="curve" smooth="yes"/>
      <point x="531" y="329" type="line"/>
      <point x="531" y="84" type="line" smooth="yes"/>
      <point x="531" y="47"/>
      <point x="543" y="37"/>
      <point x="587" y="38" type="curve" smooth="yes"/>
      <point x="711" y="40" type="line" smooth="yes"/>
      <point x="774" y="42"/>
      <point x="810" y="73"/>
      <point x="861" y="168" type="curve"/>
      <point x="885" y="168" type="line"/>
      <point x="841" y="0" type="line"/>
      <point x="491" y="0" type="line" smooth="yes"/>
      <point x="470" y="0"/>
      <point x="410" y="-2"/>
      <point x="370" y="-4" type="curve" smooth="yes"/>
      <point x="347" y="-5"/>
      <point x="326" y="-6"/>
      <point x="312" y="-6" type="curve" smooth="yes"/>
      <point x="238" y="-6"/>
      <point x="170" y="21"/>
      <point x="120" y="71" type="curve" smooth="yes"/>
      <point x="60" y="130"/>
      <point x="30" y="214"/>
      <point x="30" y="322" type="curve" smooth="yes"/>
      <point x="30" y="437"/>
      <point x="67" y="537"/>
      <point x="131" y="593" type="curve" smooth="yes"/>
      <point x="186" y="642"/>
      <point x="259" y="668"/>
      <point x="342" y="668" type="curve" smooth="yes"/>
      <point x="356" y="668"/>
      <point x="359" y="668"/>
      <point x="407" y="665" type="curve" smooth="yes"/>
      <point x="425" y="664"/>
      <point x="491" y="662"/>
      <point x="512" y="662" type="curve" smooth="yes"/>
      <point x="838" y="662" type="line"/>
    </contour>
    <contour>
      <point x="431" y="131" type="curve" smooth="yes"/>
      <point x="431" y="527" type="line" smooth="yes"/>
      <point x="431" y="600"/>
      <point x="401" y="632"/>
      <point x="332" y="632" type="curve" smooth="yes"/>
      <point x="211" y="632"/>
      <point x="142" y="521"/>
      <point x="142" y="325" type="curve" smooth="yes"/>
      <point x="142" y="135"/>
      <point x="209" y="31"/>
      <point x="331" y="31" type="curve" smooth="yes"/>
      <point x="402" y="31"/>
      <point x="431" y="60"/>
    </contour>
  </outline>
</glyph>
<glyph name="Rcommaaccent" format="1">
  <advance width="667"/>
  <unicode hex="0156"/>
  <outline>
    <contour>
      <point x="659" y="19" type="curve"/>
      <point x="659" y="0" type="line"/>
      <point x="498" y="0" type="line"/>
      <point x="260" y="308" type="line"/>
      <point x="204" y="306" type="line"/>
      <point x="204" y="109" type="line" smooth="yes"/>
      <point x="204" y="37"/>
      <point x="217" y="24"/>
      <point x="294" y="19" type="curve"/>
      <point x="294" y="0" type="line"/>
      <point x="17" y="0" type="line"/>
      <point x="17" y="19" type="line"/>
      <point x="92" y="25"/>
      <point x="102" y="37"/>
      <point x="102" y="120" type="curve" smooth="yes"/>
      <point x="102" y="553" type="line" smooth="yes"/>
      <point x="102" y="624"/>
      <point x="92" y="635"/>
      <point x="17" y="643" type="curve"/>
      <point x="17" y="662" type="line"/>
      <point x="293" y="662" type="line" smooth="yes"/>
      <point x="387" y="662"/>
      <point x="470" y="636"/>
      <point x="508" y="595" type="curve" smooth="yes"/>
      <point x="534" y="566"/>
      <point x="547" y="529"/>
      <point x="547" y="486" type="curve" smooth="yes"/>
      <point x="547" y="439"/>
      <point x="528" y="397"/>
      <point x="496" y="371" type="curve" smooth="yes"/>
      <point x="463" y="344"/>
      <point x="433" y="332"/>
      <point x="366" y="319" type="curve"/>
      <point x="572" y="66" type="line"/>
      <point x="601" y="32"/>
      <point x="621" y="22"/>
    </contour>
    <contour>
      <point x="204" y="589" type="curve" smooth="yes"/>
      <point x="204" y="343" type="line"/>
      <point x="300" y="345"/>
      <point x="335" y="351"/>
      <point x="381" y="377" type="curve"/>
      <point x="417" y="396"/>
      <point x="438" y="438"/>
      <point x="438" y="488" type="curve" smooth="yes"/>
      <point x="438" y="582"/>
      <point x="380" y="625"/>
      <point x="255" y="625" type="curve" smooth="yes"/>
      <point x="215" y="625"/>
      <point x="204" y="617"/>
    </contour>
    <contour>
      <point x="291" y="-281" type="curve"/>
      <point x="282" y="-262" type="line"/>
      <point x="336" y="-225"/>
      <point x="364" y="-188"/>
      <point x="364" y="-156" type="curve" smooth="yes"/>
      <point x="364" y="-148"/>
      <point x="358" y="-142"/>
      <point x="350" y="-142" type="curve" smooth="yes"/>
      <point x="349" y="-142"/>
      <point x="349" y="-142"/>
      <point x="342" y="-144" type="curve" smooth="yes"/>
      <point x="336" y="-145"/>
      <point x="329" y="-146"/>
      <point x="323" y="-146" type="curve" smooth="yes"/>
      <point x="287" y="-146"/>
      <point x="264" y="-127"/>
      <point x="264" y="-95" type="curve" smooth="yes"/>
      <point x="264" y="-61"/>
      <point x="288" y="-38"/>
      <point x="323" y="-38" type="curve" smooth="yes"/>
      <point x="368" y="-38"/>
      <point x="403" y="-77"/>
      <point x="403" y="-127" type="curve" smooth="yes"/>
      <point x="403" y="-187"/>
      <point x="358" y="-248"/>
    </contour>
  </outline>
</glyph>
<glyph name="rcommaaccent" format="1">
  <advance width="333"/>
  <unicode hex="0157"/>
  <outline>
    <contour>
      <point x="7" y="390" type="curve"/>
      <point x="7" y="406" type="line"/>
      <point x="66" y="425"/>
      <point x="102" y="438"/>
      <point x="155" y="460" type="curve"/>
      <point x="160" y="458" type="line"/>
      <point x="160" y="366" type="line"/>
      <point x="209" y="437"/>
      <point x="238" y="460"/>
      <point x="280" y="460" type="curve" smooth="yes"/>
      <point x="314" y="460"/>
      <point x="335" y="440"/>
      <point x="335" y="407" type="curve" smooth="yes"/>
      <point x="335" y="379"/>
      <point x="320" y="362"/>
      <point x="296" y="362" type="curve" smooth="yes"/>
      <point x="283" y="362"/>
      <point x="272" y="368"/>
      <point x="256" y="382" type="curve" smooth="yes"/>
      <point x="245" y="392"/>
      <point x="236" y="397"/>
      <point x="230" y="397" type="curve" smooth="yes"/>
      <point x="203" y="397"/>
      <point x="160" y="347"/>
      <point x="160" y="315" type="curve" smooth="yes"/>
      <point x="160" y="90" type="line" smooth="yes"/>
      <point x="160" y="33"/>
      <point x="177" y="18"/>
      <point x="245" y="15" type="curve"/>
      <point x="245" y="0" type="line"/>
      <point x="5" y="0" type="line"/>
      <point x="5" y="15" type="line"/>
      <point x="69" y="27"/>
      <point x="76" y="34"/>
      <point x="76" y="84" type="curve" smooth="yes"/>
      <point x="76" y="334" type="line" smooth="yes"/>
      <point x="76" y="378"/>
      <point x="67" y="394"/>
      <point x="42" y="394" type="curve" smooth="yes"/>
      <point x="30" y="394"/>
      <point x="21" y="393"/>
    </contour>
    <contour>
      <point x="84" y="-281" type="curve"/>
      <point x="75" y="-262" type="line"/>
      <point x="129" y="-225"/>
      <point x="157" y="-188"/>
      <point x="157" y="-156" type="curve" smooth="yes"/>
      <point x="157" y="-148"/>
      <point x="151" y="-142"/>
      <point x="143" y="-142" type="curve" smooth="yes"/>
      <point x="142" y="-142"/>
      <point x="142" y="-142"/>
      <point x="135" y="-144" type="curve" smooth="yes"/>
      <point x="129" y="-145"/>
      <point x="122" y="-146"/>
      <point x="116" y="-146" type="curve" smooth="yes"/>
      <point x="80" y="-146"/>
      <point x="57" y="-127"/>
      <point x="57" y="-95" type="curve" smooth="yes"/>
      <point x="57" y="-61"/>
      <point x="81" y="-38"/>
      <point x="116" y="-38" type="curve" smooth="yes"/>
      <point x="161" y="-38"/>
      <point x="196" y="-77"/>
      <point x="196" y="-127" type="curve" smooth="yes"/>
      <point x="196" y="-187"/>
      <point x="151" y="-248"/>
    </contour>
  </outline>
</glyph>
<glyph name="Rcaron" format="1">
  <advance width="667"/>
  <unicode hex="0158"/>
  <outline>
    <contour>
      <point x="659" y="19" type="curve"/>
      <point x="659" y="0" type="line"/>
      <point x="498" y="0" type="line"/>
      <point x="260" y="308" type="line"/>
      <point x="204" y="306" type="line"/>
      <point x="204" y="109" type="line" smooth="yes"/>
      <point x="204" y="37"/>
      <point x="217" y="24"/>
      <point x="294" y="19" type="curve"/>
      <point x="294" y="0" type="line"/>
      <point x="17" y="0" type="line"/>
      <point x="17" y="19" type="line"/>
      <point x="92" y="25"/>
      <point x="102" y="37"/>
      <point x="102" y="120" type="curve" smooth="yes"/>
      <point x="102" y="553" type="line" smooth="yes"/>
      <point x="102" y="624"/>
      <point x="92" y="635"/>
      <point x="17" y="643" type="curve"/>
      <point x="17" y="662" type="line"/>
      <point x="293" y="662" type="line" smooth="yes"/>
      <point x="387" y="662"/>
      <point x="470" y="636"/>
      <point x="508" y="595" type="curve" smooth="yes"/>
      <point x="534" y="566"/>
      <point x="547" y="529"/>
      <point x="547" y="486" type="curve" smooth="yes"/>
      <point x="547" y="439"/>
      <point x="528" y="397"/>
      <point x="496" y="371" type="curve" smooth="yes"/>
      <point x="463" y="344"/>
      <point x="433" y="332"/>
      <point x="366" y="319" type="curve"/>
      <point x="572" y="66" type="line"/>
      <point x="601" y="32"/>
      <point x="621" y="22"/>
    </contour>
    <contour>
      <point x="204" y="589" type="curve" smooth="yes"/>
      <point x="204" y="343" type="line"/>
      <point x="300" y="345"/>
      <point x="335" y="351"/>
      <point x="381" y="377" type="curve"/>
      <point x="417" y="396"/>
      <point x="438" y="438"/>
      <point x="438" y="488" type="curve" smooth="yes"/>
      <point x="438" y="582"/>
      <point x="380" y="625"/>
      <point x="255" y="625" type="curve" smooth="yes"/>
      <point x="215" y="625"/>
      <point x="204" y="617"/>
    </contour>
    <contour>
      <point x="489" y="886" type="line"/>
      <point x="364" y="719" type="line"/>
      <point x="302" y="719" type="line"/>
      <point x="178" y="886" type="line"/>
      <point x="212" y="886" type="line"/>
      <point x="333" y="783" type="line"/>
      <point x="455" y="886" type="line"/>
    </contour>
  </outline>
</glyph>
<glyph name="rcaron" format="1">
  <advance width="333"/>
  <unicode hex="0159"/>
  <outline>
    <contour>
      <point x="7" y="390" type="curve"/>
      <point x="7" y="406" type="line"/>
      <point x="66" y="425"/>
      <point x="102" y="438"/>
      <point x="155" y="460" type="curve"/>
      <point x="160" y="458" type="line"/>
      <point x="160" y="366" type="line"/>
      <point x="209" y="437"/>
      <point x="238" y="460"/>
      <point x="280" y="460" type="curve" smooth="yes"/>
      <point x="314" y="460"/>
      <point x="335" y="440"/>
      <point x="335" y="407" type="curve" smooth="yes"/>
      <point x="335" y="379"/>
      <point x="320" y="362"/>
      <point x="296" y="362" type="curve" smooth="yes"/>
      <point x="283" y="362"/>
      <point x="272" y="368"/>
      <point x="256" y="382" type="curve" smooth="yes"/>
      <point x="245" y="392"/>
      <point x="236" y="397"/>
      <point x="230" y="397" type="curve" smooth="yes"/>
      <point x="203" y="397"/>
      <point x="160" y="347"/>
      <point x="160" y="315" type="curve" smooth="yes"/>
      <point x="160" y="90" type="line" smooth="yes"/>
      <point x="160" y="33"/>
      <point x="177" y="18"/>
      <point x="245" y="15" type="curve"/>
      <point x="245" y="0" type="line"/>
      <point x="5" y="0" type="line"/>
      <point x="5" y="15" type="line"/>
      <point x="69" y="27"/>
      <point x="76" y="34"/>
      <point x="76" y="84" type="curve" smooth="yes"/>
      <point x="76" y="334" type="line" smooth="yes"/>
      <point x="76" y="378"/>
      <point x="67" y="394"/>
      <point x="42" y="394" type="curve" smooth="yes"/>
      <point x="30" y="394"/>
      <point x="21" y="393"/>
    </contour>
    <contour>
      <point x="322" y="674" type="line"/>
      <point x="197" y="507" type="line"/>
      <point x="135" y="507" type="line"/>
      <point x="11" y="674" type="line"/>
      <point x="45" y="674" type="line"/>
      <point x="166" y="571" type="line"/>
      <point x="288" y="674" type="line"/>
    </contour>
  </outline>
</glyph>
<glyph name="tcommaaccent" format="1">
  <advance width="278"/>
  <unicode hex="0163"/>
  <outline>
    <contour>
      <point x="255" y="450" type="line"/>
      <point x="255" y="418" type="line"/>
      <point x="154" y="418" type="line"/>
      <point x="154" y="132" type="line" smooth="yes"/>
      <point x="154" y="69"/>
      <point x="169" y="42"/>
      <point x="206" y="42" type="curve" smooth="yes"/>
      <point x="228" y="42"/>
      <point x="245" y="52"/>
      <point x="266" y="77" type="curve"/>
      <point x="279" y="66" type="line"/>
      <point x="246" y="14"/>
      <point x="208" y="-10"/>
      <point x="159" y="-10" type="curve" smooth="yes"/>
      <point x="100" y="-10"/>
      <point x="70" y="33"/>
      <point x="70" y="117" type="curve" smooth="yes"/>
      <point x="70" y="418" type="line"/>
      <point x="17" y="418" type="line"/>
      <point x="14" y="420"/>
      <point x="13" y="422"/>
      <point x="13" y="425" type="curve" smooth="yes"/>
      <point x="13" y="430"/>
      <point x="19" y="437"/>
      <point x="30" y="444" type="curve"/>
      <point x="46" y="448"/>
      <point x="89" y="496"/>
      <point x="127" y="551" type="curve" smooth="yes"/>
      <point x="134" y="561"/>
      <point x="140" y="570"/>
      <point x="147" y="579" type="curve"/>
      <point x="153" y="579"/>
      <point x="154" y="576"/>
      <point x="154" y="566" type="curve" smooth="yes"/>
      <point x="154" y="450" type="line"/>
    </contour>
    <contour>
      <point x="96" y="-281" type="curve"/>
      <point x="87" y="-262" type="line"/>
      <point x="141" y="-225"/>
      <point x="169" y="-188"/>
      <point x="169" y="-156" type="curve" smooth="yes"/>
      <point x="169" y="-148"/>
      <point x="163" y="-142"/>
      <point x="155" y="-142" type="curve" smooth="yes"/>
      <point x="154" y="-142"/>
      <point x="154" y="-142"/>
      <point x="147" y="-144" type="curve" smooth="yes"/>
      <point x="141" y="-145"/>
      <point x="134" y="-146"/>
      <point x="128" y="-146" type="curve" smooth="yes"/>
      <point x="92" y="-146"/>
      <point x="69" y="-127"/>
      <point x="69" y="-95" type="curve" smooth="yes"/>
      <point x="69" y="-61"/>
      <point x="93" y="-38"/>
      <point x="128" y="-38" type="curve" smooth="yes"/>
      <point x="173" y="-38"/>
      <point x="208" y="-77"/>
      <point x="208" y="-127" type="curve" smooth="yes"/>
      <point x="208" y="-187"/>
      <point x="163" y="-248"/>
    </contour>
  </outline>
</glyph>
<glyph name="tcaron" format="1">
  <advance width="278"/>
  <unicode hex="0165"/>
  <outline>
    <contour>
      <point x="180" y="450" type="line"/>
      <point x="179" y="452" type="line"/>
      <point x="233" y="489"/>
      <point x="261" y="525"/>
      <point x="261" y="558" type="curve" smooth="yes"/>
      <point x="261" y="566"/>
      <point x="255" y="572"/>
      <point x="247" y="572" type="curve" smooth="yes"/>
      <point x="246" y="572"/>
      <point x="246" y="572"/>
      <point x="239" y="570" type="curve" smooth="yes"/>
      <point x="233" y="569"/>
      <point x="226" y="568"/>
      <point x="220" y="568" type="curve" smooth="yes"/>
      <point x="184" y="568"/>
      <point x="161" y="587"/>
      <point x="161" y="619" type="curve" smooth="yes"/>
      <point x="161" y="653"/>
      <point x="185" y="676"/>
      <point x="220" y="676" type="curve" smooth="yes"/>
      <point x="265" y="676"/>
      <point x="300" y="637"/>
      <point x="300" y="587" type="curve" smooth="yes"/>
      <point x="300" y="539"/>
      <point x="270" y="488"/>
      <point x="218" y="450" type="curve"/>
      <point x="255" y="450" type="line"/>
      <point x="255" y="418" type="line"/>
      <point x="154" y="418" type="line"/>
      <point x="154" y="132" type="line" smooth="yes"/>
      <point x="154" y="69"/>
      <point x="169" y="42"/>
      <point x="206" y="42" type="curve" smooth="yes"/>
      <point x="228" y="42"/>
      <point x="245" y="52"/>
      <point x="266" y="77" type="curve"/>
      <point x="279" y="66" type="line"/>
      <point x="246" y="14"/>
      <point x="208" y="-10"/>
      <point x="159" y="-10" type="curve" smooth="yes"/>
      <point x="100" y="-10"/>
      <point x="70" y="33"/>
      <point x="70" y="117" type="curve" smooth="yes"/>
      <point x="70" y="418" type="line"/>
      <point x="17" y="418" type="line"/>
      <point x="14" y="420"/>
      <point x="13" y="422"/>
      <point x="13" y="425" type="curve" smooth="yes"/>
      <point x="13" y="430"/>
      <point x="19" y="437"/>
      <point x="30" y="444" type="curve"/>
      <point x="46" y="448"/>
      <point x="89" y="496"/>
      <point x="127" y="551" type="curve" smooth="yes"/>
      <point x="134" y="561"/>
      <point x="140" y="570"/>
      <point x="147" y="579" type="curve"/>
      <point x="153" y="579"/>
      <point x="154" y="576"/>
      <point x="154" y="566" type="curve" smooth="yes"/>
      <point x="154" y="450" type="line"/>
    </contour>
  </outline>
</glyph>
<glyph name="Utilde" format="1">
  <advance width="722"/>
  <unicode hex="0168"/>
  <outline>
    <contour>
      <point x="495" y="818" type="curve"/>
      <point x="524" y="818" type="line"/>
      <point x="503" y="742"/>
      <point x="474" y="712"/>
      <point x="419" y="712" type="curve" smooth="yes"/>
      <point x="394" y="712"/>
      <point x="379" y="716"/>
      <point x="338" y="736" type="curve" smooth="yes"/>
      <point x="315" y="747" type="line" smooth="yes"/>
      <point x="300" y="754"/>
      <point x="286" y="758"/>
      <point x="274" y="758" type="curve" smooth="yes"/>
      <point x="251" y="758"/>
      <point x="234" y="743"/>
      <point x="223" y="712" type="curve"/>
      <point x="194" y="712" type="line"/>
      <point x="209" y="777"/>
      <point x="245" y="813"/>
      <point x="295" y="813" type="curve" smooth="yes"/>
      <point x="317" y="813"/>
      <point x="342" y="807"/>
      <point x="365" y="795" type="curve" smooth="yes"/>
      <point x="389" y="783" type="line" smooth="yes"/>
      <point x="408" y="774"/>
      <point x="427" y="768"/>
      <point x="442" y="768" type="curve" smooth="yes"/>
      <point x="465" y="768"/>
      <point x="478" y="780"/>
    </contour>
    <contour>
      <point x="611" y="515" type="curve" smooth="yes"/>
      <point x="611" y="254" type="line" smooth="yes"/>
      <point x="611" y="177"/>
      <point x="602" y="131"/>
      <point x="578" y="89" type="curve" smooth="yes"/>
      <point x="539" y="21"/>
      <point x="464" y="-14"/>
      <point x="355" y="-14" type="curve" smooth="yes"/>
      <point x="185" y="-14"/>
      <point x="104" y="68"/>
      <point x="104" y="241" type="curve" smooth="yes"/>
      <point x="104" y="553" type="line" smooth="yes"/>
      <point x="104" y="626"/>
      <point x="93" y="637"/>
      <point x="14" y="643" type="curve"/>
      <point x="14" y="662" type="line"/>
      <point x="297" y="662" type="line"/>
      <point x="297" y="643" type="line"/>
      <point x="217" y="636"/>
      <point x="206" y="625"/>
      <point x="206" y="553" type="curve" smooth="yes"/>
      <point x="206" y="233" type="line" smooth="yes"/>
      <point x="206" y="170"/>
      <point x="213" y="133"/>
      <point x="231" y="101" type="curve" smooth="yes"/>
      <point x="258" y="54"/>
      <point x="307" y="30"/>
      <point x="378" y="30" type="curve" smooth="yes"/>
      <point x="453" y="30"/>
      <point x="517" y="61"/>
      <point x="544" y="109" type="curve" smooth="yes"/>
      <point x="560" y="139"/>
      <point x="567" y="177"/>
      <point x="567" y="245" type="curve" smooth="yes"/>
      <point x="567" y="515" type="line" smooth="yes"/>
      <point x="567" y="615"/>
      <point x="551" y="637"/>
      <point x="473" y="643" type="curve"/>
      <point x="473" y="662" type="line"/>
      <point x="705" y="662" type="line"/>
      <point x="705" y="643" type="line"/>
      <point x="623" y="633"/>
      <point x="611" y="617"/>
    </contour>
  </outline>
</glyph>
<glyph name="ubreve" format="1">
  <advance width="500"/>
  <unicode hex="016D"/>
  <outline>
    <contour>
      <point x="355" y="657" type="curve"/>
      <point x="384" y="657" type="line"/>
      <point x="372" y="551"/>
      <point x="326" y="500"/>
      <point x="242" y="500" type="curve" smooth="yes"/>
      <point x="195" y="500"/>
      <point x="155" y="519"/>
      <point x="130" y="554" type="curve" smooth="yes"/>
      <point x="111" y="582"/>
      <point x="104" y="606"/>
      <point x="103" y="657" type="curve"/>
      <point x="132" y="657" type="line"/>
      <point x="146" y="590"/>
      <point x="180" y="560"/>
      <point x="244" y="560" type="curve" smooth="yes"/>
      <point x="302" y="560"/>
      <point x="327" y="581"/>
    </contour>
    <contour>
      <point x="479" y="50" type="line"/>
      <point x="479" y="36" type="line"/>
      <point x="428" y="22"/>
      <point x="392" y="11"/>
      <point x="342" y="-9" type="curve"/>
      <point x="338" y="-7" type="line"/>
      <point x="338" y="76" type="line"/>
      <point x="295" y="33" type="line" smooth="yes"/>
      <point x="268" y="6"/>
      <point x="229" y="-10"/>
      <point x="192" y="-10" type="curve" smooth="yes"/>
      <point x="119" y="-10"/>
      <point x="71" y="41"/>
      <point x="71" y="120" type="curve" smooth="yes"/>
      <point x="71" y="372" type="line" smooth="yes"/>
      <point x="71" y="418"/>
      <point x="57" y="433"/>
      <point x="9" y="436" type="curve"/>
      <point x="9" y="450" type="line"/>
      <point x="155" y="450" type="line"/>
      <point x="155" y="124" type="line" smooth="yes"/>
      <point x="155" y="82"/>
      <point x="187" y="48"/>
      <point x="226" y="48" type="curve" smooth="yes"/>
      <point x="256" y="48"/>
      <point x="287" y="60"/>
      <point x="314" y="82" type="curve" smooth="yes"/>
      <point x="328" y="93"/>
      <point x="333" y="107"/>
      <point x="333" y="135" type="curve" smooth="yes"/>
      <point x="333" y="370" type="line" smooth="yes"/>
      <point x="333" y="420"/>
      <point x="321" y="430"/>
      <point x="259" y="433" type="curve"/>
      <point x="259" y="450" type="line"/>
      <point x="417" y="450" type="line"/>
      <point x="417" y="107" type="line" smooth="yes"/>
      <point x="417" y="61"/>
      <point x="428" y="50"/>
      <point x="474" y="50" type="curve" smooth="yes"/>
    </contour>
  </outline>
</glyph>
<glyph name="Wcircumflex" format="1">
  <advance width="944"/>
  <unicode hex="0174"/>
  <outline>
    <contour>
      <point x="624" y="712" type="line"/>
      <point x="590" y="712" type="line"/>
      <point x="468" y="815" type="line"/>
      <point x="347" y="712" type="line"/>
      <point x="313" y="712" type="line"/>
      <point x="437" y="879" type="line"/>
      <point x="499" y="879" type="line"/>
    </contour>
    <contour>
      <point x="932" y="662" type="line"/>
      <point x="932" y="643" type="line"/>
      <point x="879" y="633"/>
      <point x="868" y="624"/>
      <point x="849" y="572" type="curve" smooth="yes"/>
      <point x="740" y="278"/>
      <point x="730" y="250"/>
      <point x="645" y="-11" type="curve"/>
      <point x="630" y="-11" type="line"/>
      <point x="470" y="412" type="line"/>
      <point x="316" y="-11" type="line"/>
      <point x="301" y="-11" type="line"/>
      <point x="108" y="526" type="line"/>
      <point x="71" y="620"/>
      <point x="56" y="638"/>
      <point x="5" y="643" type="curve"/>
      <point x="5" y="662" type="line"/>
      <point x="250" y="662" type="line"/>
      <point x="250" y="643" type="line"/>
      <point x="199" y="640"/>
      <point x="185" y="633"/>
      <point x="185" y="611" type="curve" smooth="yes"/>
      <point x="185" y="600"/>
      <point x="189" y="583"/>
      <point x="196" y="565" type="curve" smooth="yes"/>
      <point x="340" y="189" type="line"/>
      <point x="447" y="471" type="line"/>
      <point x="414" y="553" type="line"/>
      <point x="380" y="633"/>
      <point x="370" y="642"/>
      <point x="313" y="643" type="curve"/>
      <point x="313" y="662" type="line"/>
      <point x="580" y="662" type="line"/>
      <point x="580" y="643" type="line"/>
      <point x="526" y="642"/>
      <point x="503" y="632"/>
      <point x="503" y="608" type="curve" smooth="yes"/>
      <point x="503" y="597"/>
      <point x="509" y="578"/>
      <point x="518" y="557" type="curve" smooth="yes"/>
      <point x="519" y="554"/>
      <point x="528" y="532"/>
      <point x="530" y="527" type="curve" smooth="yes"/>
      <point x="662" y="186" type="line"/>
      <point x="787" y="525" type="line" smooth="yes"/>
      <point x="797" y="553"/>
      <point x="803" y="579"/>
      <point x="803" y="600" type="curve" smooth="yes"/>
      <point x="803" y="627"/>
      <point x="785" y="638"/>
      <point x="734" y="643" type="curve"/>
      <point x="734" y="662" type="line"/>
    </contour>
  </outline>
</glyph>
<glyph name="Zacute" format="1">
  <advance width="611"/>
  <unicode hex="0179"/>
  <outline>
    <contour>
      <point x="574" y="176" type="curve"/>
      <point x="597" y="176" type="line"/>
      <point x="573" y="0" type="line"/>
      <point x="9" y="0" type="line"/>
      <point x="9" y="15" type="line"/>
      <point x="446" y="624" type="line"/>
      <point x="225" y="624" type="line" smooth="yes"/>
      <point x="159" y="624"/>
      <point x="114" y="610"/>
      <point x="91" y="581" type="curve" smooth="yes"/>
      <point x="74" y="560"/>
      <point x="66" y="540"/>
      <point x="57" y="491" type="curve"/>
      <point x="31" y="491" type="line"/>
      <point x="51" y="662" type="line"/>
      <point x="577" y="662" type="line"/>
      <point x="577" y="647" type="line"/>
      <point x="145" y="38" type="line"/>
      <point x="402" y="38" type="line" smooth="yes"/>
      <point x="459" y="38"/>
      <point x="503" y="52"/>
      <point x="527" y="77" type="curve" smooth="yes"/>
      <point x="547" y="99"/>
      <point x="557" y="120"/>
    </contour>
    <contour>
      <point x="272" y="719" type="line"/>
      <point x="232" y="719" type="line"/>
      <point x="379" y="867" type="line" smooth="yes"/>
      <point x="397" y="885"/>
      <point x="406" y="890"/>
      <point x="421" y="890" type="curve" smooth="yes"/>
      <point x="443" y="890"/>
      <point x="456" y="878"/>
      <point x="456" y="858" type="curve" smooth="yes"/>
      <point x="456" y="842"/>
      <point x="447" y="829"/>
      <point x="426" y="816" type="curve" smooth="yes"/>
    </contour>
  </outline>
</glyph>
<glyph name="scommaaccent" format="1">
  <advance width="389"/>
  <unicode hex="0219"/>
  <outline>
    <contour>
      <point x="315" y="314" type="line"/>
      <point x="300" y="314" type="line"/>
      <point x="277" y="403"/>
      <point x="247" y="437"/>
      <point x="190" y="437" type="curve" smooth="yes"/>
      <point x="144" y="437"/>
      <point x="113" y="409"/>
      <point x="113" y="369" type="curve" smooth="yes"/>
      <point x="113" y="342"/>
      <point x="128" y="317"/>
      <point x="156" y="301" type="curve" smooth="yes"/>
      <point x="264" y="237" type="line" smooth="yes"/>
      <point x="324" y="201"/>
      <point x="348" y="168"/>
      <point x="348" y="118" type="curve" smooth="yes"/>
      <point x="348" y="48"/>
      <point x="284" y="-10"/>
      <point x="207" y="-10" type="curve" smooth="yes"/>
      <point x="189" y="-10"/>
      <point x="162" y="-6"/>
      <point x="134" y="0" type="curve"/>
      <point x="111" y="6"/>
      <point x="97" y="8"/>
      <point x="88" y="8" type="curve" smooth="yes"/>
      <point x="76" y="8"/>
      <point x="72" y="6"/>
      <point x="65" y="-4" type="curve"/>
      <point x="52" y="-4" type="line"/>
      <point x="52" y="152" type="line"/>
      <point x="68" y="152" type="line"/>
      <point x="81" y="95"/>
      <point x="90" y="72"/>
      <point x="111" y="47" type="curve" smooth="yes"/>
      <point x="130" y="25"/>
      <point x="161" y="12"/>
      <point x="195" y="12" type="curve" smooth="yes"/>
      <point x="246" y="12"/>
      <point x="278" y="40"/>
      <point x="278" y="84" type="curve" smooth="yes"/>
      <point x="278" y="115"/>
      <point x="261" y="139"/>
      <point x="226" y="159" type="curve" smooth="yes"/>
      <point x="168" y="192" type="line" smooth="yes"/>
      <point x="83" y="240"/>
      <point x="51" y="280"/>
      <point x="51" y="336" type="curve" smooth="yes"/>
      <point x="51" y="408"/>
      <point x="108" y="459"/>
      <point x="187" y="459" type="curve" smooth="yes"/>
      <point x="213" y="459"/>
      <point x="235" y="455"/>
      <point x="257" y="447" type="curve" smooth="yes"/>
      <point x="268" y="442"/>
      <point x="278" y="440"/>
      <point x="284" y="440" type="curve" smooth="yes"/>
      <point x="288" y="440"/>
      <point x="289" y="441"/>
      <point x="298" y="448" type="curve"/>
      <point x="300" y="450" type="line"/>
      <point x="311" y="450" type="line"/>
    </contour>
    <contour>
      <point x="152" y="-281" type="curve"/>
      <point x="143" y="-262" type="line"/>
      <point x="197" y="-225"/>
      <point x="225" y="-188"/>
      <point x="225" y="-156" type="curve" smooth="yes"/>
      <point x="225" y="-148"/>
      <point x="219" y="-142"/>
      <point x="211" y="-142" type="curve" smooth="yes"/>
      <point x="210" y="-142"/>
      <point x="210" y="-142"/>
      <point x="203" y="-144" type="curve" smooth="yes"/>
      <point x="197" y="-145"/>
      <point x="190" y="-146"/>
      <point x="184" y="-146" type="curve" smooth="yes"/>
      <point x="148" y="-146"/>
      <point x="125" y="-127"/>
      <point x="125" y="-95" type="curve" smooth="yes"/>
      <point x="125" y="-61"/>
      <point x="149" y="-38"/>
      <point x="184" y="-38" type="curve" smooth="yes"/>
      <point x="229" y="-38"/>
      <point x="264" y="-77"/>
      <point x="264" y="-127" type="curve" smooth="yes"/>
      <point x="264" y="-187"/>
      <point x="219" y="-248"/>
    </contour>
  </outline>
</glyph>
<glyph name="breve" format="1">
  <advance width="333"/>
  <unicode hex="02D8"/>
  <outline>
    <contour>
      <point x="278" y="664" type="curve"/>
      <point x="307" y="664" type="line"/>
      <point x="295" y="558"/>
      <point x="249" y="507"/>
      <point x="165" y="507" type="curve" smooth="yes"/>
      <point x="118" y="507"/>
      <point x="78" y="526"/>
      <point x="53" y="561" type="curve" smooth="yes"/>
      <point x="34" y="589"/>
      <point x="27" y="613"/>
      <point x="26" y="664" type="curve"/>
      <point x="55" y="664" type="line"/>
      <point x="69" y="597"/>
      <point x="103" y="567"/>
      <point x="167" y="567" type="curve" smooth="yes"/>
      <point x="225" y="567"/>
      <point x="250" y="588"/>
    </contour>
  </outline>
</glyph>
<glyph name="hungarumlaut" format="1">
  <advance width="333"/>
  <unicode hex="02DD"/>
  <outline>
    <contour>
      <point x="193" y="507" type="line"/>
      <point x="153" y="507" type="line"/>
      <point x="300" y="655" type="line" smooth="yes"/>
      <point x="318" y="673"/>
      <point x="327" y="678"/>
      <point x="342" y="678" type="curve" smooth="yes"/>
      <point x="364" y="678"/>
      <point x="377" y="666"/>
      <point x="377" y="646" type="curve" smooth="yes"/>
      <point x="377" y="630"/>
      <point x="368" y="617"/>
      <point x="347" y="604" type="curve" smooth="yes"/>
    </contour>
    <contour>
      <point x="37" y="507" type="line"/>
      <point x="-3" y="507" type="line"/>
      <point x="144" y="655" type="line" smooth="yes"/>
      <point x="162" y="673"/>
      <point x="171" y="678"/>
      <point x="186" y="678" type="curve" smooth="yes"/>
      <point x="208" y="678"/>
      <point x="221" y="666"/>
      <point x="221" y="646" type="curve" smooth="yes"/>
      <point x="221" y="630"/>
      <point x="212" y="617"/>
      <point x="191" y="604" type="curve" smooth="yes"/>
    </contour>
  </outline>
</glyph>
<glyph name="afii10023" format="1">
  <advance width="611"/>
  <unicode hex="0401"/>
  <outline>
    <contour>
      <point x="204" y="833" type="curve" smooth="yes"/>
      <point x="232" y="833"/>
      <point x="255" y="810"/>
      <point x="255" y="783" type="curve" smooth="yes"/>
      <point x="255" y="756"/>
      <point x="232" y="734"/>
      <point x="204" y="734" type="curve" smooth="yes"/>
      <point x="177" y="734"/>
      <point x="156" y="756"/>
      <point x="156" y="784" type="curve" smooth="yes"/>
      <point x="156" y="810"/>
      <point x="179" y="833"/>
    </contour>
    <contour>
      <point x="403" y="833" type="curve" smooth="yes"/>
      <point x="431" y="833"/>
      <point x="454" y="810"/>
      <point x="454" y="783" type="curve" smooth="yes"/>
      <point x="454" y="756"/>
      <point x="431" y="734"/>
      <point x="403" y="734" type="curve" smooth="yes"/>
      <point x="376" y="734"/>
      <point x="355" y="756"/>
      <point x="355" y="784" type="curve" smooth="yes"/>
      <point x="355" y="810"/>
      <point x="378" y="833"/>
    </contour>
    <contour>
      <point x="597" y="169" type="line"/>
      <point x="552" y="0" type="line"/>
      <point x="12" y="0" type="line"/>
      <point x="12" y="19" type="line"/>
      <point x="85" y="24"/>
      <point x="99" y="39"/>
      <point x="99" y="109" type="curve" smooth="yes"/>
      <point x="99" y="553" type="line" smooth="yes"/>
      <point x="99" y="623"/>
      <point x="86" y="637"/>
      <point x="12" y="643" type="curve"/>
      <point x="12" y="662" type="line"/>
      <point x="543" y="662" type="line"/>
      <point x="546" y="519" type="line"/>
      <point x="521" y="519" type="line"/>
      <point x="504" y="609"/>
      <point x="482" y="624"/>
      <point x="369" y="624" type="curve" smooth="yes"/>
      <point x="234" y="624" type="line" smooth="yes"/>
      <point x="207" y="624"/>
      <point x="201" y="618"/>
      <point x="201" y="590" type="curve" smooth="yes"/>
      <point x="201" y="368" type="line"/>
      <point x="355" y="368" type="line" smooth="yes"/>
      <point x="402" y="368"/>
      <point x="430" y="376"/>
      <point x="443" y="393" type="curve" smooth="yes"/>
      <point x="454" y="407"/>
      <point x="458" y="422"/>
      <point x="465" y="463" type="curve"/>
      <point x="488" y="463" type="line"/>
      <point x="488" y="231" type="line"/>
      <point x="465" y="231" type="line"/>
      <point x="452" y="314"/>
      <point x="437" y="327"/>
      <point x="355" y="327" type="curve" smooth="yes"/>
      <point x="201" y="327" type="line"/>
      <point x="201" y="80" type="line" smooth="yes"/>
      <point x="201" y="63"/>
      <point x="203" y="52"/>
      <point x="208" y="49" type="curve"/>
      <point x="215" y="42"/>
      <point x="257" y="37"/>
      <point x="306" y="37" type="curve" smooth="yes"/>
      <point x="333" y="37" type="line" smooth="yes"/>
      <point x="476" y="37"/>
      <point x="519" y="61"/>
      <point x="569" y="169" type="curve"/>
    </contour>
  </outline>
</glyph>
<glyph name="afii10051" format="1">
  <advance width="768"/>
  <unicode hex="0402"/>
  <outline>
    <contour>
      <point x="356" y="620" type="line"/>
      <point x="356" y="363" type="line"/>
      <point x="390" y="406"/>
      <point x="438" y="440"/>
      <point x="505" y="440" type="curve" smooth="yes"/>
      <point x="592" y="440"/>
      <point x="711" y="411"/>
      <point x="711" y="319" type="curve" smooth="yes"/>
      <point x="711" y="42" type="line" smooth="yes"/>
      <point x="711" y="-64"/>
      <point x="612" y="-146"/>
      <point x="500" y="-146" type="curve" smooth="yes"/>
      <point x="456" y="-146"/>
      <point x="406" y="-123"/>
      <point x="406" y="-91" type="curve" smooth="yes"/>
      <point x="406" y="-69"/>
      <point x="424" y="-52"/>
      <point x="447" y="-52" type="curve" smooth="yes"/>
      <point x="463" y="-52"/>
      <point x="477" y="-61"/>
      <point x="495" y="-84" type="curve" smooth="yes"/>
      <point x="512" y="-105"/>
      <point x="522" y="-112"/>
      <point x="537" y="-112" type="curve" smooth="yes"/>
      <point x="551" y="-112"/>
      <point x="565" y="-104"/>
      <point x="571" y="-94" type="curve" smooth="yes"/>
      <point x="587" y="-64"/>
      <point x="595" y="-32"/>
      <point x="595" y="45" type="curve" smooth="yes"/>
      <point x="595" y="312" type="line" smooth="yes"/>
      <point x="595" y="366"/>
      <point x="527" y="385"/>
      <point x="470" y="385" type="curve" smooth="yes"/>
      <point x="409" y="385"/>
      <point x="356" y="339"/>
      <point x="356" y="320" type="curve" smooth="yes"/>
      <point x="356" y="109" type="line" smooth="yes"/>
      <point x="356" y="36"/>
      <point x="370" y="23"/>
      <point x="452" y="19" type="curve"/>
      <point x="452" y="0" type="line"/>
      <point x="160" y="0" type="line"/>
      <point x="160" y="19" type="line"/>
      <point x="243" y="24"/>
      <point x="254" y="35"/>
      <point x="254" y="120" type="curve" smooth="yes"/>
      <point x="254" y="620" type="line"/>
      <point x="200" y="620" type="line" smooth="yes"/>
      <point x="88" y="620"/>
      <point x="65" y="601"/>
      <point x="41" y="492" type="curve"/>
      <point x="17" y="492" type="line"/>
      <point x="23" y="662" type="line"/>
      <point x="587" y="662" type="line"/>
      <point x="593" y="492" type="line"/>
      <point x="569" y="492" type="line"/>
      <point x="546" y="602"/>
      <point x="524" y="620"/>
      <point x="410" y="620" type="curve" smooth="yes"/>
    </contour>
  </outline>
</glyph>
<glyph name="afii10052" format="1">
  <advance width="556"/>
  <unicode hex="0403"/>
  <outline>
    <contour>
      <point x="201" y="109" type="line" smooth="yes"/>
      <point x="201" y="37"/>
      <point x="215" y="23"/>
      <point x="292" y="19" type="curve"/>
      <point x="292" y="0" type="line"/>
      <point x="12" y="0" type="line"/>
      <point x="12" y="19" type="line"/>
      <point x="88" y="24"/>
      <point x="99" y="37"/>
      <point x="99" y="120" type="curve" smooth="yes"/>
      <point x="99" y="553" type="line" smooth="yes"/>
      <point x="99" y="623"/>
      <point x="86" y="637"/>
      <point x="12" y="643" type="curve"/>
      <point x="12" y="662" type="line"/>
      <point x="543" y="662" type="line"/>
      <point x="546" y="519" type="line"/>
      <point x="521" y="519" type="line"/>
      <point x="504" y="609"/>
      <point x="482" y="624"/>
      <point x="369" y="624" type="curve" smooth="yes"/>
      <point x="233" y="624" type="line" smooth="yes"/>
      <point x="206" y="624"/>
      <point x="201" y="618"/>
      <point x="201" y="590" type="curve" smooth="yes"/>
    </contour>
    <contour>
      <point x="207" y="712" type="line"/>
      <point x="167" y="712" type="line"/>
      <point x="314" y="860" type="line" smooth="yes"/>
      <point x="332" y="878"/>
      <point x="341" y="883"/>
      <point x="356" y="883" type="curve" smooth="yes"/>
      <point x="378" y="883"/>
      <point x="391" y="871"/>
      <point x="391" y="851" type="curve" smooth="yes"/>
      <point x="391" y="835"/>
      <point x="382" y="822"/>
      <point x="361" y="809" type="curve" smooth="yes"/>
    </contour>
  </outline>
</glyph>
<glyph name="afii10059" format="1">
  <advance width="980"/>
  <unicode hex="040A"/>
  <outline>
    <contour>
      <point x="424" y="19" type="line"/>
      <point x="502" y="24"/>
      <point x="512" y="36"/>
      <point x="512" y="120" type="curve" smooth="yes"/>
      <point x="512" y="330" type="line"/>
      <point x="209" y="330" type="line"/>
      <point x="209" y="109" type="line" smooth="yes"/>
      <point x="209" y="38"/>
      <point x="222" y="25"/>
      <point x="297" y="19" type="curve"/>
      <point x="297" y="0" type="line"/>
      <point x="19" y="0" type="line"/>
      <point x="19" y="19" type="line"/>
      <point x="97" y="24"/>
      <point x="107" y="36"/>
      <point x="107" y="120" type="curve" smooth="yes"/>
      <point x="107" y="553" type="line" smooth="yes"/>
      <point x="107" y="625"/>
      <point x="96" y="636"/>
      <point x="19" y="643" type="curve"/>
      <point x="19" y="662" type="line"/>
      <point x="297" y="662" type="line"/>
      <point x="297" y="643" type="line"/>
      <point x="220" y="636"/>
      <point x="209" y="625"/>
      <point x="209" y="553" type="curve" smooth="yes"/>
      <point x="209" y="374" type="line"/>
      <point x="512" y="374" type="line"/>
      <point x="512" y="553" type="line" smooth="yes"/>
      <point x="512" y="625"/>
      <point x="501" y="636"/>
      <point x="424" y="643" type="curve"/>
      <point x="424" y="662" type="line"/>
      <point x="702" y="662" type="line"/>
      <point x="702" y="643" type="line"/>
      <point x="623" y="640"/>
      <point x="608" y="626"/>
      <point x="608" y="553" type="curve" smooth="yes"/>
      <point x="608" y="374" type="line"/>
      <point x="677" y="374" type="line" smooth="yes"/>
      <point x="755" y="374"/>
      <point x="809" y="364"/>
      <point x="852" y="340" type="curve" smooth="yes"/>
      <point x="912" y="308"/>
      <point x="948" y="247"/>
      <point x="948" y="181" type="curve" smooth="yes"/>
      <point x="948" y="139"/>
      <point x="934" y="101"/>
      <point x="907" y="72" type="curve" smooth="yes"/>
      <point x="867" y="28"/>
      <point x="780" y="0"/>
      <point x="686" y="0" type="curve" smooth="yes"/>
      <point x="424" y="0" type="line"/>
    </contour>
    <contour>
      <point x="608" y="71" type="line" smooth="yes"/>
      <point x="608" y="44"/>
      <point x="615" y="37"/>
      <point x="642" y="37" type="curve" smooth="yes"/>
      <point x="777" y="37"/>
      <point x="839" y="84"/>
      <point x="839" y="187" type="curve" smooth="yes"/>
      <point x="839" y="284"/>
      <point x="780" y="334"/>
      <point x="665" y="334" type="curve" smooth="yes"/>
      <point x="645" y="334"/>
      <point x="631" y="333"/>
      <point x="608" y="331" type="curve"/>
    </contour>
  </outline>
</glyph>
<glyph name="afii10060" format="1">
  <advance width="869"/>
  <unicode hex="040B"/>
  <outline>
    <contour>
      <point x="356" y="322" type="curve"/>
      <point x="356" y="109" type="line" smooth="yes"/>
      <point x="356" y="36"/>
      <point x="370" y="23"/>
      <point x="452" y="19" type="curve"/>
      <point x="452" y="0" type="line"/>
      <point x="160" y="0" type="line"/>
      <point x="160" y="19" type="line"/>
      <point x="243" y="24"/>
      <point x="254" y="35"/>
      <point x="254" y="120" type="curve" smooth="yes"/>
      <point x="254" y="620" type="line"/>
      <point x="200" y="620" type="line" smooth="yes"/>
      <point x="88" y="620"/>
      <point x="65" y="601"/>
      <point x="41" y="492" type="curve"/>
      <point x="17" y="492" type="line"/>
      <point x="23" y="662" type="line"/>
      <point x="587" y="662" type="line"/>
      <point x="593" y="492" type="line"/>
      <point x="569" y="492" type="line"/>
      <point x="546" y="602"/>
      <point x="524" y="620"/>
      <point x="410" y="620" type="curve" smooth="yes"/>
      <point x="356" y="620" type="line"/>
      <point x="356" y="366" type="line"/>
      <point x="396" y="400"/>
      <point x="451" y="427"/>
      <point x="511" y="427" type="curve" smooth="yes"/>
      <point x="650" y="427"/>
      <point x="761" y="350"/>
      <point x="761" y="235" type="curve" smooth="yes"/>
      <point x="761" y="109" type="line" smooth="yes"/>
      <point x="761" y="37"/>
      <point x="772" y="26"/>
      <point x="849" y="19" type="curve"/>
      <point x="849" y="0" type="line"/>
      <point x="571" y="0" type="line"/>
      <point x="571" y="19" type="line"/>
      <point x="648" y="26"/>
      <point x="659" y="37"/>
      <point x="659" y="109" type="curve" smooth="yes"/>
      <point x="659" y="236" type="line" smooth="yes"/>
      <point x="659" y="316"/>
      <point x="598" y="383"/>
      <point x="514" y="383" type="curve" smooth="yes"/>
      <point x="459" y="383"/>
      <point x="401" y="358"/>
    </contour>
  </outline>
</glyph>
<glyph name="uni040D" format="1">
  <advance width="722"/>
  <unicode hex="040D"/>
  <outline>
    <contour>
      <point x="209" y="210" type="line"/>
      <point x="512" y="514" type="line"/>
      <point x="512" y="553" type="line" smooth="yes"/>
      <point x="512" y="625"/>
      <point x="501" y="636"/>
      <point x="424" y="643" type="curve"/>
      <point x="424" y="662" type="line"/>
      <point x="702" y="662" type="line"/>
      <point x="702" y="643" type="line"/>
      <point x="625" y="636"/>
      <point x="614" y="625"/>
      <point x="614" y="553" type="curve" smooth="yes"/>
      <point x="614" y="109" type="line" smooth="yes"/>
      <point x="614" y="38"/>
      <point x="627" y="25"/>
      <point x="702" y="19" type="curve"/>
      <point x="702" y="0" type="line"/>
      <point x="424" y="0" type="line"/>
      <point x="424" y="19" type="line"/>
      <point x="502" y="24"/>
      <point x="512" y="36"/>
      <point x="512" y="120" type="curve" smooth="yes"/>
      <point x="512" y="450" type="line"/>
      <point x="209" y="146" type="line"/>
      <point x="209" y="109" type="line" smooth="yes"/>
      <point x="209" y="38"/>
      <point x="222" y="25"/>
      <point x="297" y="19" type="curve"/>
      <point x="297" y="0" type="line"/>
      <point x="19" y="0" type="line"/>
      <point x="19" y="19" type="line"/>
      <point x="97" y="24"/>
      <point x="107" y="36"/>
      <point x="107" y="120" type="curve" smooth="yes"/>
      <point x="107" y="553" type="line" smooth="yes"/>
      <point x="107" y="625"/>
      <point x="96" y="636"/>
      <point x="19" y="643" type="curve"/>
      <point x="19" y="662" type="line"/>
      <point x="297" y="662" type="line"/>
      <point x="297" y="643" type="line"/>
      <point x="220" y="636"/>
      <point x="209" y="625"/>
      <point x="209" y="553" type="curve" smooth="yes"/>
    </contour>
    <contour>
      <point x="472" y="712" type="line"/>
      <point x="432" y="712" type="line"/>
      <point x="278" y="809" type="line" smooth="yes"/>
      <point x="260" y="821"/>
      <point x="249" y="836"/>
      <point x="249" y="852" type="curve" smooth="yes"/>
      <point x="249" y="871"/>
      <point x="262" y="883"/>
      <point x="283" y="883" type="curve" smooth="yes"/>
      <point x="298" y="883"/>
      <point x="307" y="878"/>
      <point x="325" y="860" type="curve" smooth="yes"/>
    </contour>
  </outline>
</glyph>
<glyph name="afii10145" format="1">
  <advance width="722"/>
  <unicode hex="040F"/>
  <outline>
    <contour>
      <point x="702" y="0" type="line"/>
      <point x="424" y="0" type="line"/>
      <point x="388" y="-26"/>
      <point x="390" y="-183"/>
      <point x="390" y="-183" type="curve"/>
      <point x="334" y="-183" type="line"/>
      <point x="334" y="-183"/>
      <point x="338" y="-30"/>
      <point x="298" y="0" type="curve"/>
      <point x="19" y="0" type="line"/>
      <point x="19" y="19" type="line"/>
      <point x="96" y="26"/>
      <point x="107" y="37"/>
      <point x="107" y="109" type="curve" smooth="yes"/>
      <point x="107" y="542" type="line" smooth="yes"/>
      <point x="107" y="626"/>
      <point x="97" y="638"/>
      <point x="19" y="643" type="curve"/>
      <point x="19" y="662" type="line"/>
      <point x="297" y="662" type="line"/>
      <point x="297" y="643" type="line"/>
      <point x="222" y="637"/>
      <point x="209" y="624"/>
      <point x="209" y="553" type="curve" smooth="yes"/>
      <point x="209" y="44" type="line"/>
      <point x="512" y="44" type="line"/>
      <point x="512" y="542" type="line" smooth="yes"/>
      <point x="512" y="626"/>
      <point x="502" y="638"/>
      <point x="424" y="643" type="curve"/>
      <point x="424" y="662" type="line"/>
      <point x="702" y="662" type="line"/>
      <point x="702" y="643" type="line"/>
      <point x="627" y="637"/>
      <point x="614" y="624"/>
      <point x="614" y="553" type="curve" smooth="yes"/>
      <point x="614" y="109" type="line" smooth="yes"/>
      <point x="614" y="37"/>
      <point x="625" y="26"/>
      <point x="702" y="19" type="curve"/>
    </contour>
  </outline>
</glyph>
<glyph name="afii10018" format="1">
  <advance width="650"/>
  <unicode hex="0411"/>
  <outline>
    <contour>
      <point x="552" y="662" type="line"/>
      <point x="555" y="519" type="line"/>
      <point x="530" y="519" type="line"/>
      <point x="513" y="609"/>
      <point x="491" y="624"/>
      <point x="378" y="624" type="curve" smooth="yes"/>
      <point x="242" y="624" type="line" smooth="yes"/>
      <point x="215" y="624"/>
      <point x="210" y="618"/>
      <point x="210" y="590" type="curve" smooth="yes"/>
      <point x="210" y="407" type="line"/>
      <point x="222" y="415"/>
      <point x="286" y="423"/>
      <point x="337" y="423" type="curve" smooth="yes"/>
      <point x="421" y="423"/>
      <point x="476" y="408"/>
      <point x="538" y="353" type="curve" smooth="yes"/>
      <point x="580" y="315"/>
      <point x="588" y="248"/>
      <point x="588" y="204" type="curve" smooth="yes"/>
      <point x="588" y="156"/>
      <point x="568" y="87"/>
      <point x="532" y="55" type="curve" smooth="yes"/>
      <point x="495" y="21"/>
      <point x="424" y="0"/>
      <point x="346" y="0" type="curve" smooth="yes"/>
      <point x="12" y="0" type="line"/>
      <point x="12" y="19" type="line"/>
      <point x="95" y="22"/>
      <point x="108" y="35"/>
      <point x="108" y="109" type="curve" smooth="yes"/>
      <point x="108" y="553" type="line" smooth="yes"/>
      <point x="108" y="627"/>
      <point x="96" y="638"/>
      <point x="12" y="643" type="curve"/>
      <point x="12" y="662" type="line"/>
    </contour>
    <contour>
      <point x="210" y="367" type="curve"/>
      <point x="210" y="78" type="line" smooth="yes"/>
      <point x="210" y="46"/>
      <point x="224" y="37"/>
      <point x="273" y="37" type="curve" smooth="yes"/>
      <point x="339" y="37"/>
      <point x="380" y="45"/>
      <point x="412" y="63" type="curve" smooth="yes"/>
      <point x="452" y="86"/>
      <point x="473" y="149"/>
      <point x="473" y="203" type="curve" smooth="yes"/>
      <point x="473" y="266"/>
      <point x="446" y="335"/>
      <point x="389" y="359" type="curve" smooth="yes"/>
      <point x="362" y="370"/>
      <point x="333" y="379"/>
      <point x="279" y="379" type="curve" smooth="yes"/>
      <point x="261" y="379"/>
      <point x="228" y="375"/>
    </contour>
  </outline>
</glyph>
<glyph name="afii10020" format="1">
  <advance width="536"/>
  <unicode hex="0413"/>
  <outline>
    <contour>
      <point x="201" y="109" type="line" smooth="yes"/>
      <point x="201" y="37"/>
      <point x="215" y="23"/>
      <point x="292" y="19" type="curve"/>
      <point x="292" y="0" type="line"/>
      <point x="12" y="0" type="line"/>
      <point x="12" y="19" type="line"/>
      <point x="88" y="24"/>
      <point x="99" y="37"/>
      <point x="99" y="120" type="curve" smooth="yes"/>
      <point x="99" y="553" type="line" smooth="yes"/>
      <point x="99" y="623"/>
      <point x="86" y="637"/>
      <point x="12" y="643" type="curve"/>
      <point x="12" y="662" type="line"/>
      <point x="523" y="662" type="line"/>
      <point x="526" y="519" type="line"/>
      <point x="501" y="519" type="line"/>
      <point x="484" y="609"/>
      <point x="462" y="624"/>
      <point x="349" y="624" type="curve" smooth="yes"/>
      <point x="233" y="624" type="line" smooth="yes"/>
      <point x="206" y="624"/>
      <point x="201" y="618"/>
      <point x="201" y="590" type="curve" smooth="yes"/>
    </contour>
  </outline>
</glyph>
<glyph name="afii10021" format="1">
  <advance width="672"/>
  <unicode hex="0414"/>
  <outline>
    <contour>
      <point x="143" y="109" type="curve" smooth="yes"/>
      <point x="163" y="152"/>
      <point x="187" y="264"/>
      <point x="187" y="347" type="curve" smooth="yes"/>
      <point x="187" y="553" type="line" smooth="yes"/>
      <point x="187" y="625"/>
      <point x="176" y="636"/>
      <point x="99" y="643" type="curve"/>
      <point x="99" y="662" type="line"/>
      <point x="636" y="662" type="line"/>
      <point x="636" y="643" type="line"/>
      <point x="559" y="636"/>
      <point x="548" y="625"/>
      <point x="548" y="553" type="curve" smooth="yes"/>
      <point x="548" y="128" type="line" smooth="yes"/>
      <point x="548" y="56"/>
      <point x="559" y="45"/>
      <point x="636" y="38" type="curve"/>
      <point x="644" y="-170" type="line"/>
      <point x="619" y="-170" type="line"/>
      <point x="602" y="-80"/>
      <point x="570" y="0"/>
      <point x="457" y="0" type="curve" smooth="yes"/>
      <point x="209" y="0" type="line" smooth="yes"/>
      <point x="96" y="0"/>
      <point x="65" y="-80"/>
      <point x="48" y="-170" type="curve"/>
      <point x="23" y="-170" type="line"/>
      <point x="31" y="38" type="line"/>
      <point x="117" y="39"/>
      <point x="121" y="61"/>
    </contour>
    <contour>
      <point x="201" y="44" type="curve"/>
      <point x="358" y="44" type="line"/>
      <point x="436" y="49"/>
      <point x="446" y="61"/>
      <point x="446" y="145" type="curve" smooth="yes"/>
      <point x="446" y="618" type="line"/>
      <point x="230" y="618" type="line"/>
      <point x="230" y="357" type="line" smooth="yes"/>
      <point x="230" y="252"/>
      <point x="212" y="155"/>
      <point x="183" y="87" type="curve" smooth="yes"/>
      <point x="163" y="40"/>
      <point x="201" y="44"/>
    </contour>
  </outline>
</glyph>
<glyph name="afii10027" format="1">
  <advance width="715"/>
  <unicode hex="0419"/>
  <outline>
    <contour>
      <point x="202" y="210" type="line"/>
      <point x="505" y="514" type="line"/>
      <point x="505" y="553" type="line" smooth="yes"/>
      <point x="505" y="625"/>
      <point x="494" y="636"/>
      <point x="417" y="643" type="curve"/>
      <point x="417" y="662" type="line"/>
      <point x="695" y="662" type="line"/>
      <point x="695" y="643" type="line"/>
      <point x="618" y="636"/>
      <point x="607" y="625"/>
      <point x="607" y="553" type="curve" smooth="yes"/>
      <point x="607" y="109" type="line" smooth="yes"/>
      <point x="607" y="38"/>
      <point x="620" y="25"/>
      <point x="695" y="19" type="curve"/>
      <point x="695" y="0" type="line"/>
      <point x="417" y="0" type="line"/>
      <point x="417" y="19" type="line"/>
      <point x="495" y="24"/>
      <point x="505" y="36"/>
      <point x="505" y="120" type="curve" smooth="yes"/>
      <point x="505" y="450" type="line"/>
      <point x="202" y="146" type="line"/>
      <point x="202" y="109" type="line" smooth="yes"/>
      <point x="202" y="38"/>
      <point x="215" y="25"/>
      <point x="290" y="19" type="curve"/>
      <point x="290" y="0" type="line"/>
      <point x="12" y="0" type="line"/>
      <point x="12" y="19" type="line"/>
      <point x="90" y="24"/>
      <point x="100" y="36"/>
      <point x="100" y="120" type="curve" smooth="yes"/>
      <point x="100" y="553" type="line" smooth="yes"/>
      <point x="100" y="625"/>
      <point x="89" y="636"/>
      <point x="12" y="643" type="curve"/>
      <point x="12" y="662" type="line"/>
      <point x="290" y="662" type="line"/>
      <point x="290" y="643" type="line"/>
      <point x="213" y="636"/>
      <point x="202" y="625"/>
      <point x="202" y="553" type="curve" smooth="yes"/>
    </contour>
    <contour>
      <point x="465" y="875" type="curve"/>
      <point x="494" y="875" type="line"/>
      <point x="482" y="769"/>
      <point x="436" y="718"/>
      <point x="352" y="718" type="curve" smooth="yes"/>
      <point x="305" y="718"/>
      <point x="265" y="737"/>
      <point x="240" y="772" type="curve" smooth="yes"/>
      <point x="221" y="800"/>
      <point x="214" y="824"/>
      <point x="213" y="875" type="curve"/>
      <point x="242" y="875" type="line"/>
      <point x="256" y="808"/>
      <point x="290" y="778"/>
      <point x="354" y="778" type="curve" smooth="yes"/>
      <point x="412" y="778"/>
      <point x="437" y="799"/>
    </contour>
  </outline>
</glyph>
<glyph name="afii10028" format="1">
  <advance width="690"/>
  <unicode hex="041A"/>
  <outline>
    <contour>
      <point x="587" y="604" type="curve" smooth="yes"/>
      <point x="587" y="578"/>
      <point x="563" y="556"/>
      <point x="543" y="556" type="curve" smooth="yes"/>
      <point x="479" y="556"/>
      <point x="494" y="590"/>
      <point x="466" y="590" type="curve" smooth="yes"/>
      <point x="450" y="590"/>
      <point x="438" y="572"/>
      <point x="424" y="510" type="curve" smooth="yes"/>
      <point x="404" y="420"/>
      <point x="364" y="355"/>
      <point x="331" y="347" type="curve"/>
      <point x="369" y="341"/>
      <point x="392" y="316"/>
      <point x="420" y="272" type="curve"/>
      <point x="508" y="127" type="line" smooth="yes"/>
      <point x="577" y="13"/>
      <point x="599" y="20"/>
      <point x="651" y="19" type="curve"/>
      <point x="651" y="0" type="line"/>
      <point x="487" y="0" type="line"/>
      <point x="350" y="222" type="line"/>
      <point x="308" y="288"/>
      <point x="290" y="326"/>
      <point x="236" y="326" type="curve" smooth="yes"/>
      <point x="204" y="326" type="line"/>
      <point x="204" y="109" type="line" smooth="yes"/>
      <point x="204" y="36"/>
      <point x="216" y="24"/>
      <point x="294" y="19" type="curve"/>
      <point x="294" y="0" type="line"/>
      <point x="12" y="0" type="line"/>
      <point x="12" y="19" type="line"/>
      <point x="91" y="24"/>
      <point x="102" y="37"/>
      <point x="102" y="120" type="curve" smooth="yes"/>
      <point x="102" y="553" type="line" smooth="yes"/>
      <point x="102" y="624"/>
      <point x="90" y="637"/>
      <point x="12" y="643" type="curve"/>
      <point x="12" y="662" type="line"/>
      <point x="296" y="662" type="line"/>
      <point x="296" y="643" type="line"/>
      <point x="215" y="637"/>
      <point x="204" y="626"/>
      <point x="204" y="553" type="curve" smooth="yes"/>
      <point x="204" y="364" type="line"/>
      <point x="236" y="364" type="line" smooth="yes"/>
      <point x="310" y="364"/>
      <point x="360" y="432"/>
      <point x="383" y="520" type="curve" smooth="yes"/>
      <point x="418" y="652"/>
      <point x="461" y="668"/>
      <point x="514" y="668" type="curve" smooth="yes"/>
      <point x="558" y="668"/>
      <point x="587" y="652"/>
    </contour>
  </outline>
</glyph>
<glyph name="afii10029" format="1">
  <advance width="702"/>
  <unicode hex="041B"/>
  <outline>
    <contour>
      <point x="682" y="662" type="line"/>
      <point x="682" y="643" type="line"/>
      <point x="605" y="636"/>
      <point x="594" y="625"/>
      <point x="594" y="553" type="curve" smooth="yes"/>
      <point x="594" y="109" type="line" smooth="yes"/>
      <point x="594" y="38"/>
      <point x="607" y="25"/>
      <point x="682" y="19" type="curve"/>
      <point x="682" y="0" type="line"/>
      <point x="404" y="0" type="line"/>
      <point x="404" y="19" type="line"/>
      <point x="482" y="24"/>
      <point x="492" y="36"/>
      <point x="492" y="120" type="curve" smooth="yes"/>
      <point x="492" y="618" type="line"/>
      <point x="296" y="618" type="line"/>
      <point x="296" y="389" type="line" smooth="yes"/>
      <point x="296" y="216"/>
      <point x="256" y="-12"/>
      <point x="127" y="-13" type="curve" smooth="yes"/>
      <point x="81" y="-13"/>
      <point x="26" y="0"/>
      <point x="26" y="41" type="curve" smooth="yes"/>
      <point x="26" y="73"/>
      <point x="46" y="102"/>
      <point x="78" y="102" type="curve" smooth="yes"/>
      <point x="124" y="102"/>
      <point x="116" y="68"/>
      <point x="151" y="67" type="curve" smooth="yes"/>
      <point x="180" y="66"/>
      <point x="194" y="76"/>
      <point x="209" y="109" type="curve" smooth="yes"/>
      <point x="240" y="178"/>
      <point x="253" y="273"/>
      <point x="253" y="356" type="curve" smooth="yes"/>
      <point x="253" y="553" type="line" smooth="yes"/>
      <point x="253" y="625"/>
      <point x="242" y="636"/>
      <point x="165" y="643" type="curve"/>
      <point x="165" y="662" type="line"/>
    </contour>
  </outline>
</glyph>
<glyph name="afii10038" format="1">
  <advance width="732"/>
  <unicode hex="0424"/>
  <outline>
    <contour>
      <point x="315" y="90" type="curve"/>
      <point x="184" y="90"/>
      <point x="10" y="132"/>
      <point x="10" y="331" type="curve" smooth="yes"/>
      <point x="10" y="536"/>
      <point x="186" y="574"/>
      <point x="315" y="574" type="curve"/>
      <point x="315" y="615"/>
      <point x="316" y="648"/>
      <point x="218" y="643" type="curve"/>
      <point x="218" y="662" type="line"/>
      <point x="515" y="662" type="line"/>
      <point x="515" y="643" type="line"/>
      <point x="418" y="647"/>
      <point x="417" y="616"/>
      <point x="417" y="574" type="curve"/>
      <point x="546" y="574"/>
      <point x="722" y="536"/>
      <point x="722" y="331" type="curve" smooth="yes"/>
      <point x="722" y="132"/>
      <point x="548" y="90"/>
      <point x="417" y="90" type="curve"/>
      <point x="417" y="49"/>
      <point x="420" y="14"/>
      <point x="515" y="19" type="curve"/>
      <point x="515" y="0" type="line"/>
      <point x="218" y="0" type="line"/>
      <point x="218" y="19" type="line"/>
      <point x="315" y="15"/>
      <point x="315" y="48"/>
    </contour>
    <contour>
      <point x="315" y="132" type="curve"/>
      <point x="315" y="532" type="line"/>
      <point x="230" y="532"/>
      <point x="102" y="498"/>
      <point x="102" y="331" type="curve" smooth="yes"/>
      <point x="102" y="168"/>
      <point x="227" y="132"/>
    </contour>
    <contour>
      <point x="417" y="132" type="line"/>
      <point x="505" y="132"/>
      <point x="630" y="168"/>
      <point x="630" y="331" type="curve" smooth="yes"/>
      <point x="630" y="498"/>
      <point x="502" y="532"/>
      <point x="417" y="532" type="curve"/>
    </contour>
  </outline>
</glyph>
<glyph name="afii10040" format="1">
  <advance width="715"/>
  <unicode hex="0426"/>
  <outline>
    <contour>
      <point x="501" y="0" type="curve" smooth="yes"/>
      <point x="12" y="0" type="line"/>
      <point x="12" y="19" type="line"/>
      <point x="89" y="26"/>
      <point x="100" y="37"/>
      <point x="100" y="109" type="curve" smooth="yes"/>
      <point x="100" y="553" type="line" smooth="yes"/>
      <point x="100" y="624"/>
      <point x="87" y="637"/>
      <point x="12" y="643" type="curve"/>
      <point x="12" y="662" type="line"/>
      <point x="290" y="662" type="line"/>
      <point x="290" y="643" type="line"/>
      <point x="212" y="638"/>
      <point x="202" y="626"/>
      <point x="202" y="542" type="curve" smooth="yes"/>
      <point x="202" y="44" type="line"/>
      <point x="485" y="44" type="line"/>
      <point x="485" y="553" type="line" smooth="yes"/>
      <point x="485" y="624"/>
      <point x="472" y="637"/>
      <point x="397" y="643" type="curve"/>
      <point x="397" y="662" type="line"/>
      <point x="675" y="662" type="line"/>
      <point x="675" y="643" type="line"/>
      <point x="597" y="638"/>
      <point x="587" y="626"/>
      <point x="587" y="542" type="curve" smooth="yes"/>
      <point x="587" y="128" type="line" smooth="yes"/>
      <point x="587" y="56"/>
      <point x="598" y="45"/>
      <point x="675" y="38" type="curve"/>
      <point x="683" y="-170" type="line"/>
      <point x="658" y="-170" type="line"/>
      <point x="641" y="-80"/>
      <point x="614" y="0"/>
    </contour>
  </outline>
</glyph>
<glyph name="afii10041" format="1">
  <advance width="701"/>
  <unicode hex="0427"/>
  <outline>
    <contour>
      <point x="209" y="426" type="line" smooth="yes"/>
      <point x="209" y="346"/>
      <point x="249" y="279"/>
      <point x="333" y="279" type="curve" smooth="yes"/>
      <point x="388" y="279"/>
      <point x="446" y="304"/>
      <point x="491" y="340" type="curve"/>
      <point x="491" y="553" type="line" smooth="yes"/>
      <point x="491" y="625"/>
      <point x="480" y="636"/>
      <point x="403" y="643" type="curve"/>
      <point x="403" y="662" type="line"/>
      <point x="681" y="662" type="line"/>
      <point x="681" y="643" type="line"/>
      <point x="604" y="636"/>
      <point x="593" y="625"/>
      <point x="593" y="553" type="curve" smooth="yes"/>
      <point x="593" y="109" type="line" smooth="yes"/>
      <point x="593" y="38"/>
      <point x="606" y="25"/>
      <point x="681" y="19" type="curve"/>
      <point x="681" y="0" type="line"/>
      <point x="403" y="0" type="line"/>
      <point x="403" y="19" type="line"/>
      <point x="481" y="24"/>
      <point x="491" y="36"/>
      <point x="491" y="120" type="curve" smooth="yes"/>
      <point x="491" y="296" type="line"/>
      <point x="451" y="262"/>
      <point x="396" y="235"/>
      <point x="336" y="235" type="curve" smooth="yes"/>
      <point x="197" y="235"/>
      <point x="107" y="312"/>
      <point x="107" y="427" type="curve" smooth="yes"/>
      <point x="107" y="553" type="line" smooth="yes"/>
      <point x="107" y="625"/>
      <point x="96" y="636"/>
      <point x="19" y="643" type="curve"/>
      <point x="19" y="662" type="line"/>
      <point x="297" y="662" type="line"/>
      <point x="297" y="643" type="line"/>
      <point x="220" y="636"/>
      <point x="209" y="625"/>
      <point x="209" y="553" type="curve" smooth="yes"/>
    </contour>
  </outline>
</glyph>
<glyph name="afii10042" format="1">
  <advance width="972"/>
  <unicode hex="0428"/>
  <outline>
    <contour>
      <point x="431" y="44" type="line"/>
      <point x="431" y="553" type="line" smooth="yes"/>
      <point x="431" y="624"/>
      <point x="418" y="637"/>
      <point x="343" y="643" type="curve"/>
      <point x="343" y="662" type="line"/>
      <point x="621" y="662" type="line"/>
      <point x="621" y="643" type="line"/>
      <point x="543" y="638"/>
      <point x="533" y="634"/>
      <point x="533" y="550" type="curve" smooth="yes"/>
      <point x="534" y="44" type="line"/>
      <point x="762" y="44" type="line"/>
      <point x="762" y="553" type="line" smooth="yes"/>
      <point x="762" y="624"/>
      <point x="749" y="637"/>
      <point x="674" y="643" type="curve"/>
      <point x="674" y="662" type="line"/>
      <point x="952" y="662" type="line"/>
      <point x="952" y="643" type="line"/>
      <point x="874" y="638"/>
      <point x="864" y="626"/>
      <point x="864" y="542" type="curve" smooth="yes"/>
      <point x="864" y="109" type="line" smooth="yes"/>
      <point x="864" y="37"/>
      <point x="875" y="26"/>
      <point x="952" y="19" type="curve"/>
      <point x="952" y="0" type="line"/>
      <point x="12" y="0" type="line"/>
      <point x="12" y="19" type="line"/>
      <point x="89" y="26"/>
      <point x="100" y="37"/>
      <point x="100" y="109" type="curve" smooth="yes"/>
      <point x="100" y="553" type="line" smooth="yes"/>
      <point x="100" y="624"/>
      <point x="87" y="637"/>
      <point x="12" y="643" type="curve"/>
      <point x="12" y="662" type="line"/>
      <point x="290" y="662" type="line"/>
      <point x="290" y="643" type="line"/>
      <point x="212" y="638"/>
      <point x="202" y="626"/>
      <point x="202" y="542" type="curve" smooth="yes"/>
      <point x="202" y="44" type="line"/>
    </contour>
  </outline>
</glyph>
<glyph name="afii10043" format="1">
  <advance width="974"/>
  <unicode hex="0429"/>
  <outline>
    <contour>
      <point x="778" y="0" type="curve" smooth="yes"/>
      <point x="12" y="0" type="line"/>
      <point x="12" y="19" type="line"/>
      <point x="89" y="26"/>
      <point x="100" y="37"/>
      <point x="100" y="109" type="curve" smooth="yes"/>
      <point x="100" y="553" type="line" smooth="yes"/>
      <point x="100" y="624"/>
      <point x="87" y="637"/>
      <point x="12" y="643" type="curve"/>
      <point x="12" y="662" type="line"/>
      <point x="290" y="662" type="line"/>
      <point x="290" y="643" type="line"/>
      <point x="212" y="638"/>
      <point x="202" y="626"/>
      <point x="202" y="542" type="curve" smooth="yes"/>
      <point x="202" y="44" type="line"/>
      <point x="431" y="44" type="line"/>
      <point x="431" y="553" type="line" smooth="yes"/>
      <point x="431" y="624"/>
      <point x="418" y="637"/>
      <point x="343" y="643" type="curve"/>
      <point x="343" y="662" type="line"/>
      <point x="621" y="662" type="line"/>
      <point x="621" y="643" type="line"/>
      <point x="543" y="638"/>
      <point x="533" y="634"/>
      <point x="533" y="550" type="curve" smooth="yes"/>
      <point x="534" y="44" type="line"/>
      <point x="762" y="44" type="line"/>
      <point x="762" y="553" type="line" smooth="yes"/>
      <point x="762" y="624"/>
      <point x="749" y="637"/>
      <point x="674" y="643" type="curve"/>
      <point x="674" y="662" type="line"/>
      <point x="952" y="662" type="line"/>
      <point x="952" y="643" type="line"/>
      <point x="874" y="638"/>
      <point x="864" y="626"/>
      <point x="864" y="542" type="curve" smooth="yes"/>
      <point x="864" y="128" type="line" smooth="yes"/>
      <point x="864" y="56"/>
      <point x="875" y="45"/>
      <point x="952" y="38" type="curve"/>
      <point x="960" y="-170" type="line"/>
      <point x="935" y="-170" type="line"/>
      <point x="918" y="-80"/>
      <point x="891" y="0"/>
    </contour>
  </outline>
</glyph>
<glyph name="afii10044" format="1">
  <advance width="710"/>
  <unicode hex="042A"/>
  <outline>
    <contour>
      <point x="254" y="620" type="line"/>
      <point x="200" y="620" type="line" smooth="yes"/>
      <point x="88" y="620"/>
      <point x="65" y="601"/>
      <point x="41" y="492" type="curve"/>
      <point x="17" y="492" type="line"/>
      <point x="23" y="662" type="line"/>
      <point x="450" y="662" type="line"/>
      <point x="450" y="643" type="line"/>
      <point x="371" y="640"/>
      <point x="356" y="626"/>
      <point x="356" y="553" type="curve" smooth="yes"/>
      <point x="356" y="391" type="line"/>
      <point x="382" y="393"/>
      <point x="399" y="394"/>
      <point x="425" y="394" type="curve" smooth="yes"/>
      <point x="503" y="394"/>
      <point x="557" y="384"/>
      <point x="600" y="360" type="curve" smooth="yes"/>
      <point x="660" y="328"/>
      <point x="696" y="257"/>
      <point x="696" y="191" type="curve" smooth="yes"/>
      <point x="696" y="149"/>
      <point x="682" y="101"/>
      <point x="655" y="72" type="curve" smooth="yes"/>
      <point x="615" y="28"/>
      <point x="528" y="0"/>
      <point x="434" y="0" type="curve" smooth="yes"/>
      <point x="170" y="0" type="line"/>
      <point x="170" y="19" type="line"/>
      <point x="244" y="27"/>
      <point x="254" y="37"/>
      <point x="254" y="109" type="curve" smooth="yes"/>
    </contour>
    <contour>
      <point x="354" y="71" type="line" smooth="yes"/>
      <point x="354" y="44"/>
      <point x="361" y="37"/>
      <point x="388" y="37" type="curve" smooth="yes"/>
      <point x="523" y="37"/>
      <point x="585" y="94"/>
      <point x="585" y="197" type="curve" smooth="yes"/>
      <point x="585" y="294"/>
      <point x="526" y="354"/>
      <point x="411" y="354" type="curve" smooth="yes"/>
      <point x="391" y="354"/>
      <point x="377" y="353"/>
      <point x="354" y="351" type="curve"/>
    </contour>
  </outline>
</glyph>
<glyph name="afii10046" format="1">
  <advance width="556"/>
  <unicode hex="042C"/>
  <outline>
    <contour>
      <point x="202" y="394" type="line"/>
      <point x="271" y="394" type="line" smooth="yes"/>
      <point x="349" y="394"/>
      <point x="403" y="384"/>
      <point x="446" y="360" type="curve" smooth="yes"/>
      <point x="506" y="328"/>
      <point x="542" y="257"/>
      <point x="542" y="191" type="curve" smooth="yes"/>
      <point x="542" y="149"/>
      <point x="528" y="101"/>
      <point x="501" y="72" type="curve" smooth="yes"/>
      <point x="461" y="28"/>
      <point x="374" y="0"/>
      <point x="280" y="0" type="curve" smooth="yes"/>
      <point x="16" y="0" type="line"/>
      <point x="16" y="19" type="line"/>
      <point x="90" y="27"/>
      <point x="100" y="37"/>
      <point x="100" y="109" type="curve" smooth="yes"/>
      <point x="100" y="542" type="line" smooth="yes"/>
      <point x="100" y="626"/>
      <point x="92" y="636"/>
      <point x="16" y="643" type="curve"/>
      <point x="16" y="662" type="line"/>
      <point x="296" y="662" type="line"/>
      <point x="296" y="643" type="line"/>
      <point x="217" y="640"/>
      <point x="202" y="626"/>
      <point x="202" y="553" type="curve" smooth="yes"/>
    </contour>
    <contour>
      <point x="202" y="71" type="line" smooth="yes"/>
      <point x="202" y="44"/>
      <point x="209" y="37"/>
      <point x="236" y="37" type="curve" smooth="yes"/>
      <point x="371" y="37"/>
      <point x="433" y="94"/>
      <point x="433" y="197" type="curve" smooth="yes"/>
      <point x="433" y="294"/>
      <point x="374" y="354"/>
      <point x="259" y="354" type="curve" smooth="yes"/>
      <point x="239" y="354"/>
      <point x="225" y="353"/>
      <point x="202" y="351" type="curve"/>
    </contour>
  </outline>
</glyph>
<glyph name="afii10047" format="1">
  <advance width="649"/>
  <unicode hex="042D"/>
  <outline>
    <contour>
      <point x="498" y="359" type="line"/>
      <point x="491" y="528"/>
      <point x="400" y="636"/>
      <point x="261" y="636" type="curve" smooth="yes"/>
      <point x="204" y="636"/>
      <point x="152" y="615"/>
      <point x="112" y="575" type="curve" smooth="yes"/>
      <point x="80" y="543"/>
      <point x="65" y="515"/>
      <point x="46" y="450" type="curve"/>
      <point x="23" y="450" type="line"/>
      <point x="32" y="676" type="line"/>
      <point x="53" y="676" type="line"/>
      <point x="59" y="655"/>
      <point x="75" y="643"/>
      <point x="95" y="643" type="curve" smooth="yes"/>
      <point x="104" y="643"/>
      <point x="119" y="646"/>
      <point x="134" y="652" type="curve"/>
      <point x="183" y="668"/>
      <point x="233" y="676"/>
      <point x="280" y="676" type="curve" smooth="yes"/>
      <point x="362" y="676"/>
      <point x="445" y="645"/>
      <point x="507" y="590" type="curve" smooth="yes"/>
      <point x="577" y="528"/>
      <point x="615" y="435"/>
      <point x="615" y="325" type="curve" smooth="yes"/>
      <point x="615" y="232"/>
      <point x="585" y="146"/>
      <point x="534" y="89" type="curve"/>
      <point x="474" y="24"/>
      <point x="382" y="-14"/>
      <point x="283" y="-14" type="curve" smooth="yes"/>
      <point x="170" y="-14"/>
      <point x="71" y="32"/>
      <point x="10" y="113" type="curve"/>
      <point x="28" y="131" type="line"/>
      <point x="102" y="60"/>
      <point x="168" y="30"/>
      <point x="251" y="30" type="curve" smooth="yes"/>
      <point x="314" y="30"/>
      <point x="370" y="50"/>
      <point x="413" y="88" type="curve" smooth="yes"/>
      <point x="464" y="134"/>
      <point x="495" y="215"/>
      <point x="499" y="315" type="curve"/>
      <point x="195" y="315" type="line"/>
      <point x="195" y="359" type="line"/>
    </contour>
  </outline>
</glyph>
<glyph name="afii10067" format="1">
  <advance width="460"/>
  <unicode hex="0432"/>
  <outline>
    <contour>
      <point x="15" y="450" type="line"/>
      <point x="200" y="450" type="line" smooth="yes"/>
      <point x="373" y="450"/>
      <point x="411" y="411"/>
      <point x="411" y="334" type="curve" smooth="yes"/>
      <point x="411" y="307"/>
      <point x="396" y="281"/>
      <point x="371" y="266" type="curve" smooth="yes"/>
      <point x="347" y="252"/>
      <point x="345" y="245"/>
      <point x="293" y="237" type="curve"/>
      <point x="358" y="226"/>
      <point x="366" y="223"/>
      <point x="396" y="204" type="curve" smooth="yes"/>
      <point x="427" y="184"/>
      <point x="437" y="152"/>
      <point x="437" y="122" type="curve" smooth="yes"/>
      <point x="437" y="90"/>
      <point x="425" y="53"/>
      <point x="389" y="31" type="curve" smooth="yes"/>
      <point x="352" y="8"/>
      <point x="312" y="0"/>
      <point x="222" y="0" type="curve" smooth="yes"/>
      <point x="15" y="0" type="line"/>
      <point x="15" y="15" type="line"/>
      <point x="58" y="18"/>
      <point x="78" y="32"/>
      <point x="78" y="84" type="curve" smooth="yes"/>
      <point x="78" y="333" type="line" smooth="yes"/>
      <point x="78" y="383"/>
      <point x="82" y="434"/>
      <point x="15" y="434" type="curve"/>
    </contour>
    <contour>
      <point x="162" y="218" type="line"/>
      <point x="162" y="77" type="line" smooth="yes"/>
      <point x="162" y="55"/>
      <point x="150" y="36"/>
      <point x="199" y="36" type="curve" smooth="yes"/>
      <point x="265" y="36"/>
      <point x="286" y="39"/>
      <point x="306" y="52" type="curve" smooth="yes"/>
      <point x="333" y="70"/>
      <point x="349" y="92"/>
      <point x="349" y="122" type="curve" smooth="yes"/>
      <point x="349" y="158"/>
      <point x="319" y="199"/>
      <point x="271" y="213" type="curve" smooth="yes"/>
      <point x="256" y="217"/>
      <point x="235" y="218"/>
      <point x="206" y="218" type="curve" smooth="yes"/>
    </contour>
    <contour>
      <point x="162" y="254" type="line"/>
      <point x="213" y="254" type="line" smooth="yes"/>
      <point x="293" y="254"/>
      <point x="327" y="290"/>
      <point x="328" y="332" type="curve" smooth="yes"/>
      <point x="329" y="382"/>
      <point x="295" y="413"/>
      <point x="212" y="413" type="curve" smooth="yes"/>
      <point x="183" y="413" type="line" smooth="yes"/>
      <point x="168" y="413"/>
      <point x="162" y="407"/>
      <point x="162" y="392" type="curve" smooth="yes"/>
    </contour>
  </outline>
</glyph>
<glyph name="afii10074" format="1">
  <advance width="512"/>
  <unicode hex="0438"/>
  <outline>
    <contour>
      <point x="162" y="167" type="line"/>
      <point x="352" y="343" type="line"/>
      <point x="352" y="351" type="line" smooth="yes"/>
      <point x="352" y="414"/>
      <point x="339" y="431"/>
      <point x="289" y="435" type="curve"/>
      <point x="289" y="450" type="line"/>
      <point x="497" y="450" type="line"/>
      <point x="497" y="435" type="line"/>
      <point x="448" y="430"/>
      <point x="436" y="418"/>
      <point x="436" y="369" type="curve" smooth="yes"/>
      <point x="436" y="81" type="line" smooth="yes"/>
      <point x="436" y="32"/>
      <point x="448" y="20"/>
      <point x="497" y="15" type="curve"/>
      <point x="497" y="0" type="line"/>
      <point x="289" y="0" type="line"/>
      <point x="289" y="15" type="line"/>
      <point x="339" y="19"/>
      <point x="352" y="36"/>
      <point x="352" y="99" type="curve" smooth="yes"/>
      <point x="352" y="287" type="line"/>
      <point x="162" y="111" type="line"/>
      <point x="162" y="81" type="line" smooth="yes"/>
      <point x="162" y="32"/>
      <point x="174" y="20"/>
      <point x="223" y="15" type="curve"/>
      <point x="223" y="0" type="line"/>
      <point x="15" y="0" type="line"/>
      <point x="15" y="15" type="line"/>
      <point x="65" y="19"/>
      <point x="78" y="36"/>
      <point x="78" y="99" type="curve" smooth="yes"/>
      <point x="78" y="351" type="line" smooth="yes"/>
      <point x="78" y="414"/>
      <point x="65" y="431"/>
      <point x="15" y="435" type="curve"/>
      <point x="15" y="450" type="line"/>
      <point x="223" y="450" type="line"/>
      <point x="223" y="435" type="line"/>
      <point x="174" y="430"/>
      <point x="162" y="418"/>
      <point x="162" y="369" type="curve" smooth="yes"/>
    </contour>
  </outline>
</glyph>
<glyph name="afii10075" format="1">
  <advance width="512"/>
  <unicode hex="0439"/>
  <outline>
    <contour>
      <point x="162" y="167" type="line"/>
      <point x="352" y="343" type="line"/>
      <point x="352" y="351" type="line" smooth="yes"/>
      <point x="352" y="414"/>
      <point x="339" y="431"/>
      <point x="289" y="435" type="curve"/>
      <point x="289" y="450" type="line"/>
      <point x="497" y="450" type="line"/>
      <point x="497" y="435" type="line"/>
      <point x="448" y="430"/>
      <point x="436" y="418"/>
      <point x="436" y="369" type="curve" smooth="yes"/>
      <point x="436" y="81" type="line" smooth="yes"/>
      <point x="436" y="32"/>
      <point x="448" y="20"/>
      <point x="497" y="15" type="curve"/>
      <point x="497" y="0" type="line"/>
      <point x="289" y="0" type="line"/>
      <point x="289" y="15" type="line"/>
      <point x="339" y="19"/>
      <point x="352" y="36"/>
      <point x="352" y="99" type="curve" smooth="yes"/>
      <point x="352" y="287" type="line"/>
      <point x="162" y="111" type="line"/>
      <point x="162" y="81" type="line" smooth="yes"/>
      <point x="162" y="32"/>
      <point x="174" y="20"/>
      <point x="223" y="15" type="curve"/>
      <point x="223" y="0" type="line"/>
      <point x="15" y="0" type="line"/>
      <point x="15" y="15" type="line"/>
      <point x="65" y="19"/>
      <point x="78" y="36"/>
      <point x="78" y="99" type="curve" smooth="yes"/>
      <point x="78" y="351" type="line" smooth="yes"/>
      <point x="78" y="414"/>
      <point x="65" y="431"/>
      <point x="15" y="435" type="curve"/>
      <point x="15" y="450" type="line"/>
      <point x="223" y="450" type="line"/>
      <point x="223" y="435" type="line"/>
      <point x="174" y="430"/>
      <point x="162" y="418"/>
      <point x="162" y="369" type="curve" smooth="yes"/>
    </contour>
    <contour>
      <point x="368" y="667" type="curve"/>
      <point x="397" y="667" type="line"/>
      <point x="385" y="561"/>
      <point x="339" y="510"/>
      <point x="255" y="510" type="curve" smooth="yes"/>
      <point x="208" y="510"/>
      <point x="168" y="529"/>
      <point x="143" y="564" type="curve" smooth="yes"/>
      <point x="124" y="592"/>
      <point x="117" y="616"/>
      <point x="116" y="667" type="curve"/>
      <point x="145" y="667" type="line"/>
      <point x="159" y="600"/>
      <point x="193" y="570"/>
      <point x="257" y="570" type="curve" smooth="yes"/>
      <point x="315" y="570"/>
      <point x="340" y="591"/>
    </contour>
  </outline>
</glyph>
<glyph name="afii10077" format="1">
  <advance width="495"/>
  <unicode hex="043B"/>
  <outline>
    <contour>
      <point x="335" y="413" type="line"/>
      <point x="204" y="413" type="line"/>
      <point x="204" y="221" type="line" smooth="yes"/>
      <point x="204" y="44"/>
      <point x="134" y="-9"/>
      <point x="80" y="-9" type="curve" smooth="yes"/>
      <point x="49" y="-9"/>
      <point x="14" y="0"/>
      <point x="14" y="32" type="curve" smooth="yes"/>
      <point x="14" y="54"/>
      <point x="22" y="74"/>
      <point x="47" y="75" type="curve" smooth="yes"/>
      <point x="74" y="76"/>
      <point x="82" y="50"/>
      <point x="109" y="50" type="curve" smooth="yes"/>
      <point x="145" y="50"/>
      <point x="163" y="154"/>
      <point x="163" y="217" type="curve" smooth="yes"/>
      <point x="163" y="351" type="line" smooth="yes"/>
      <point x="163" y="414"/>
      <point x="150" y="431"/>
      <point x="100" y="435" type="curve"/>
      <point x="100" y="450" type="line"/>
      <point x="480" y="450" type="line"/>
      <point x="480" y="435" type="line"/>
      <point x="431" y="430"/>
      <point x="419" y="418"/>
      <point x="419" y="369" type="curve" smooth="yes"/>
      <point x="419" y="81" type="line" smooth="yes"/>
      <point x="419" y="32"/>
      <point x="431" y="20"/>
      <point x="480" y="15" type="curve"/>
      <point x="480" y="0" type="line"/>
      <point x="272" y="0" type="line"/>
      <point x="272" y="15" type="line"/>
      <point x="322" y="19"/>
      <point x="335" y="36"/>
      <point x="335" y="99" type="curve" smooth="yes"/>
    </contour>
  </outline>
</glyph>
<glyph name="afii10079" format="1">
  <advance width="497"/>
  <unicode hex="043D"/>
  <outline>
    <contour>
      <point x="162" y="253" type="line"/>
      <point x="337" y="253" type="line"/>
      <point x="337" y="351" type="line" smooth="yes"/>
      <point x="337" y="414"/>
      <point x="324" y="431"/>
      <point x="274" y="435" type="curve"/>
      <point x="274" y="450" type="line"/>
      <point x="482" y="450" type="line"/>
      <point x="482" y="435" type="line"/>
      <point x="433" y="430"/>
      <point x="421" y="418"/>
      <point x="421" y="369" type="curve" smooth="yes"/>
      <point x="421" y="81" type="line" smooth="yes"/>
      <point x="421" y="32"/>
      <point x="433" y="20"/>
      <point x="482" y="15" type="curve"/>
      <point x="482" y="0" type="line"/>
      <point x="274" y="0" type="line"/>
      <point x="274" y="15" type="line"/>
      <point x="324" y="19"/>
      <point x="337" y="36"/>
      <point x="337" y="99" type="curve" smooth="yes"/>
      <point x="337" y="216" type="line"/>
      <point x="162" y="216" type="line"/>
      <point x="162" y="81" type="line" smooth="yes"/>
      <point x="162" y="32"/>
      <point x="174" y="20"/>
      <point x="223" y="15" type="curve"/>
      <point x="223" y="0" type="line"/>
      <point x="15" y="0" type="line"/>
      <point x="15" y="15" type="line"/>
      <point x="65" y="19"/>
      <point x="78" y="36"/>
      <point x="78" y="99" type="curve" smooth="yes"/>
      <point x="78" y="351" type="line" smooth="yes"/>
      <point x="78" y="414"/>
      <point x="65" y="431"/>
      <point x="15" y="435" type="curve"/>
      <point x="15" y="450" type="line"/>
      <point x="223" y="450" type="line"/>
      <point x="223" y="435" type="line"/>
      <point x="174" y="430"/>
      <point x="162" y="418"/>
      <point x="162" y="369" type="curve" smooth="yes"/>
    </contour>
  </outline>
</glyph>
<glyph name="afii10086" format="1">
  <advance width="709"/>
  <unicode hex="0444"/>
  <outline>
    <contour>
      <point x="314" y="438" type="curve"/>
      <point x="314" y="560" type="line" smooth="yes"/>
      <point x="314" y="607"/>
      <point x="307" y="617"/>
      <point x="273" y="617" type="curve" smooth="yes"/>
      <point x="264" y="617"/>
      <point x="257" y="617"/>
      <point x="248" y="616" type="curve"/>
      <point x="248" y="632" type="line"/>
      <point x="303" y="649"/>
      <point x="338" y="662"/>
      <point x="392" y="683" type="curve"/>
      <point x="398" y="681" type="line"/>
      <point x="398" y="381" type="line"/>
      <point x="442" y="435"/>
      <point x="466" y="461"/>
      <point x="522" y="461" type="curve" smooth="yes"/>
      <point x="619" y="461"/>
      <point x="679" y="371"/>
      <point x="679" y="247" type="curve" smooth="yes"/>
      <point x="679" y="102"/>
      <point x="597" y="-10"/>
      <point x="479" y="-10" type="curve" smooth="yes"/>
      <point x="437" y="-10"/>
      <point x="433" y="0"/>
      <point x="398" y="33" type="curve"/>
      <point x="398" y="-124" type="line" smooth="yes"/>
      <point x="398" y="-187"/>
      <point x="411" y="-198"/>
      <point x="486" y="-199" type="curve"/>
      <point x="486" y="-217" type="line"/>
      <point x="244" y="-217" type="line"/>
      <point x="244" y="-200" type="line"/>
      <point x="303" y="-194"/>
      <point x="314" y="-183"/>
      <point x="314" y="-131" type="curve" smooth="yes"/>
      <point x="314" y="64" type="line"/>
      <point x="270" y="16"/>
      <point x="235" y="-11"/>
      <point x="177" y="-11" type="curve" smooth="yes"/>
      <point x="83" y="-11"/>
      <point x="27" y="79"/>
      <point x="27" y="205" type="curve" smooth="yes"/>
      <point x="27" y="349"/>
      <point x="113" y="461"/>
      <point x="238" y="461" type="curve" smooth="yes"/>
      <point x="277" y="461"/>
      <point x="276" y="456"/>
    </contour>
    <contour>
      <point x="314" y="127" type="curve" smooth="yes"/>
      <point x="314" y="333" type="line" smooth="yes"/>
      <point x="314" y="400"/>
      <point x="303" y="433"/>
      <point x="241" y="433" type="curve" smooth="yes"/>
      <point x="156" y="433"/>
      <point x="113" y="359"/>
      <point x="113" y="241" type="curve" smooth="yes"/>
      <point x="113" y="175"/>
      <point x="134" y="110"/>
      <point x="166" y="81" type="curve"/>
      <point x="186" y="61"/>
      <point x="203" y="51"/>
      <point x="234" y="51" type="curve" smooth="yes"/>
      <point x="265" y="51"/>
      <point x="278" y="63"/>
      <point x="300" y="82" type="curve" smooth="yes"/>
      <point x="310" y="90"/>
      <point x="314" y="103"/>
    </contour>
    <contour>
      <point x="398" y="334" type="curve" smooth="yes"/>
      <point x="398" y="88" type="line" smooth="yes"/>
      <point x="398" y="58"/>
      <point x="435" y="22"/>
      <point x="482" y="22" type="curve" smooth="yes"/>
      <point x="554" y="22"/>
      <point x="593" y="97"/>
      <point x="593" y="208" type="curve" smooth="yes"/>
      <point x="593" y="324"/>
      <point x="554" y="400"/>
      <point x="480" y="400" type="curve" smooth="yes"/>
      <point x="434" y="400"/>
      <point x="398" y="364"/>
    </contour>
  </outline>
</glyph>
<glyph name="afii10087" format="1">
  <advance width="500"/>
  <unicode hex="0445"/>
  <outline>
    <contour>
      <point x="278" y="0" type="line"/>
      <point x="278" y="15" type="line"/>
      <point x="311" y="17"/>
      <point x="318" y="21"/>
      <point x="318" y="39" type="curve" smooth="yes"/>
      <point x="318" y="45"/>
      <point x="316" y="51"/>
      <point x="312" y="57" type="curve" smooth="yes"/>
      <point x="221" y="197" type="line"/>
      <point x="142" y="74" type="line" smooth="yes"/>
      <point x="129" y="54"/>
      <point x="122" y="39"/>
      <point x="122" y="33" type="curve" smooth="yes"/>
      <point x="122" y="20"/>
      <point x="134" y="15"/>
      <point x="162" y="15" type="curve"/>
      <point x="162" y="0" type="line"/>
      <point x="17" y="0" type="line"/>
      <point x="17" y="15" type="line"/>
      <point x="50" y="18"/>
      <point x="60" y="25"/>
      <point x="90" y="66" type="curve"/>
      <point x="204" y="231" type="line"/>
      <point x="110" y="375" type="line" smooth="yes"/>
      <point x="79" y="422"/>
      <point x="63" y="435"/>
      <point x="33" y="435" type="curve" smooth="yes"/>
      <point x="24" y="435" type="line"/>
      <point x="24" y="450" type="line"/>
      <point x="231" y="450" type="line"/>
      <point x="231" y="435" type="line"/>
      <point x="201" y="434"/>
      <point x="188" y="427"/>
      <point x="188" y="413" type="curve" smooth="yes"/>
      <point x="188" y="400"/>
      <point x="206" y="366"/>
      <point x="234" y="324" type="curve"/>
      <point x="248" y="304" type="line"/>
      <point x="261" y="324"/>
      <point x="273" y="342"/>
      <point x="278" y="348" type="curve" smooth="yes"/>
      <point x="303" y="379"/>
      <point x="315" y="401"/>
      <point x="315" y="413" type="curve" smooth="yes"/>
      <point x="315" y="427"/>
      <point x="305" y="433"/>
      <point x="275" y="435" type="curve"/>
      <point x="275" y="450" type="line"/>
      <point x="433" y="450" type="line"/>
      <point x="433" y="435" type="line"/>
      <point x="401" y="434"/>
      <point x="371" y="418"/>
      <point x="352" y="391" type="curve" smooth="yes"/>
      <point x="269" y="271" type="line"/>
      <point x="397" y="75" type="line"/>
      <point x="428" y="31"/>
      <point x="448" y="15"/>
      <point x="479" y="15" type="curve"/>
      <point x="479" y="0" type="line"/>
    </contour>
  </outline>
</glyph>
<glyph name="afii10088" format="1">
  <advance width="497"/>
  <unicode hex="0446"/>
  <outline>
    <contour>
      <point x="482" y="15" type="curve"/>
      <point x="485" y="-125" type="line"/>
      <point x="467" y="-125" type="line"/>
      <point x="458" y="-52"/>
      <point x="428" y="0"/>
      <point x="368" y="0" type="curve" smooth="yes"/>
      <point x="15" y="0" type="line"/>
      <point x="15" y="15" type="line"/>
      <point x="64" y="20"/>
      <point x="76" y="32"/>
      <point x="76" y="81" type="curve" smooth="yes"/>
      <point x="76" y="369" type="line" smooth="yes"/>
      <point x="76" y="418"/>
      <point x="64" y="430"/>
      <point x="15" y="435" type="curve"/>
      <point x="15" y="450" type="line"/>
      <point x="223" y="450" type="line"/>
      <point x="223" y="435" type="line"/>
      <point x="173" y="431"/>
      <point x="160" y="414"/>
      <point x="160" y="351" type="curve" smooth="yes"/>
      <point x="160" y="37" type="line"/>
      <point x="335" y="37" type="line"/>
      <point x="335" y="369" type="line" smooth="yes"/>
      <point x="335" y="418"/>
      <point x="323" y="430"/>
      <point x="274" y="435" type="curve"/>
      <point x="274" y="450" type="line"/>
      <point x="482" y="450" type="line"/>
      <point x="482" y="435" type="line"/>
      <point x="432" y="431"/>
      <point x="419" y="414"/>
      <point x="419" y="351" type="curve" smooth="yes"/>
      <point x="419" y="99" type="line" smooth="yes"/>
      <point x="419" y="36"/>
      <point x="432" y="19"/>
    </contour>
  </outline>
</glyph>
<glyph name="afii10091" format="1">
  <advance width="705"/>
  <unicode hex="0449"/>
  <outline>
    <contour>
      <point x="569" y="0" type="curve" smooth="yes"/>
      <point x="15" y="0" type="line"/>
      <point x="15" y="15" type="line"/>
      <point x="64" y="20"/>
      <point x="76" y="32"/>
      <point x="76" y="81" type="curve" smooth="yes"/>
      <point x="76" y="369" type="line" smooth="yes"/>
      <point x="76" y="418"/>
      <point x="64" y="430"/>
      <point x="15" y="435" type="curve"/>
      <point x="15" y="450" type="line"/>
      <point x="223" y="450" type="line"/>
      <point x="223" y="435" type="line"/>
      <point x="173" y="431"/>
      <point x="160" y="414"/>
      <point x="160" y="351" type="curve" smooth="yes"/>
      <point x="160" y="37" type="line"/>
      <point x="306" y="37" type="line"/>
      <point x="306" y="369" type="line" smooth="yes"/>
      <point x="306" y="418"/>
      <point x="294" y="430"/>
      <point x="245" y="435" type="curve"/>
      <point x="245" y="450" type="line"/>
      <point x="453" y="450" type="line"/>
      <point x="453" y="435" type="line"/>
      <point x="403" y="431"/>
      <point x="390" y="414"/>
      <point x="390" y="351" type="curve" smooth="yes"/>
      <point x="390" y="37" type="line"/>
      <point x="536" y="37" type="line"/>
      <point x="536" y="369" type="line" smooth="yes"/>
      <point x="536" y="418"/>
      <point x="524" y="430"/>
      <point x="475" y="435" type="curve"/>
      <point x="475" y="450" type="line"/>
      <point x="683" y="450" type="line"/>
      <point x="683" y="435" type="line"/>
      <point x="633" y="431"/>
      <point x="620" y="414"/>
      <point x="620" y="351" type="curve" smooth="yes"/>
      <point x="620" y="99" type="line" smooth="yes"/>
      <point x="620" y="36"/>
      <point x="633" y="19"/>
      <point x="683" y="15" type="curve"/>
      <point x="686" y="-122" type="line"/>
      <point x="668" y="-122" type="line"/>
      <point x="659" y="-49"/>
      <point x="629" y="0"/>
    </contour>
  </outline>
</glyph>
<glyph name="afii10092" format="1">
  <advance width="495"/>
  <unicode hex="044A"/>
  <outline>
    <contour>
      <point x="91" y="0" type="line"/>
      <point x="91" y="15" type="line"/>
      <point x="134" y="18"/>
      <point x="154" y="32"/>
      <point x="154" y="84" type="curve" smooth="yes"/>
      <point x="154" y="413" type="line"/>
      <point x="116" y="413" type="line" smooth="yes"/>
      <point x="56" y="413"/>
      <point x="41" y="398"/>
      <point x="32" y="325" type="curve"/>
      <point x="14" y="325" type="line"/>
      <point x="18" y="450" type="line"/>
      <point x="301" y="450" type="line"/>
      <point x="301" y="434" type="line"/>
      <point x="234" y="434"/>
      <point x="238" y="383"/>
      <point x="238" y="333" type="curve" smooth="yes"/>
      <point x="238" y="274" type="line"/>
      <point x="264" y="274" type="line" smooth="yes"/>
      <point x="305" y="274"/>
      <point x="326" y="272"/>
      <point x="350" y="270" type="curve" smooth="yes"/>
      <point x="407" y="263"/>
      <point x="433" y="244"/>
      <point x="452" y="225" type="curve" smooth="yes"/>
      <point x="471" y="206"/>
      <point x="480" y="172"/>
      <point x="480" y="142" type="curve" smooth="yes"/>
      <point x="480" y="110"/>
      <point x="460" y="59"/>
      <point x="424" y="37" type="curve" smooth="yes"/>
      <point x="387" y="14"/>
      <point x="336" y="0"/>
      <point x="258" y="0" type="curve" smooth="yes"/>
    </contour>
    <contour>
      <point x="238" y="238" type="curve"/>
      <point x="238" y="77" type="line" smooth="yes"/>
      <point x="238" y="55"/>
      <point x="237" y="36"/>
      <point x="262" y="36" type="curve" smooth="yes"/>
      <point x="328" y="36"/>
      <point x="321" y="40"/>
      <point x="342" y="54" type="curve" smooth="yes"/>
      <point x="368" y="71"/>
      <point x="385" y="102"/>
      <point x="385" y="132" type="curve" smooth="yes"/>
      <point x="385" y="168"/>
      <point x="366" y="213"/>
      <point x="319" y="230" type="curve" smooth="yes"/>
      <point x="302" y="236"/>
      <point x="320" y="238"/>
    </contour>
  </outline>
</glyph>
<glyph name="afii10093" format="1">
  <advance width="620"/>
  <unicode hex="044B"/>
  <outline>
    <contour>
      <point x="274" y="270" type="curve" smooth="yes"/>
      <point x="331" y="263"/>
      <point x="357" y="244"/>
      <point x="376" y="225" type="curve" smooth="yes"/>
      <point x="395" y="206"/>
      <point x="404" y="172"/>
      <point x="404" y="142" type="curve" smooth="yes"/>
      <point x="404" y="110"/>
      <point x="384" y="59"/>
      <point x="348" y="37" type="curve" smooth="yes"/>
      <point x="311" y="14"/>
      <point x="260" y="0"/>
      <point x="182" y="0" type="curve" smooth="yes"/>
      <point x="15" y="0" type="line"/>
      <point x="15" y="15" type="line"/>
      <point x="58" y="18"/>
      <point x="78" y="32"/>
      <point x="78" y="84" type="curve" smooth="yes"/>
      <point x="78" y="333" type="line" smooth="yes"/>
      <point x="78" y="383"/>
      <point x="82" y="434"/>
      <point x="15" y="434" type="curve"/>
      <point x="15" y="450" type="line"/>
      <point x="225" y="450" type="line"/>
      <point x="225" y="434" type="line"/>
      <point x="158" y="434"/>
      <point x="162" y="383"/>
      <point x="162" y="333" type="curve" smooth="yes"/>
      <point x="162" y="274" type="line"/>
      <point x="188" y="274" type="line" smooth="yes"/>
      <point x="229" y="274"/>
      <point x="250" y="272"/>
    </contour>
    <contour>
      <point x="162" y="238" type="curve"/>
      <point x="162" y="77" type="line" smooth="yes"/>
      <point x="162" y="55"/>
      <point x="161" y="36"/>
      <point x="186" y="36" type="curve" smooth="yes"/>
      <point x="252" y="36"/>
      <point x="245" y="40"/>
      <point x="266" y="54" type="curve" smooth="yes"/>
      <point x="292" y="71"/>
      <point x="309" y="102"/>
      <point x="309" y="132" type="curve" smooth="yes"/>
      <point x="309" y="168"/>
      <point x="290" y="213"/>
      <point x="243" y="230" type="curve" smooth="yes"/>
      <point x="226" y="236"/>
      <point x="244" y="238"/>
    </contour>
    <contour>
      <point x="460" y="99" type="curve" smooth="yes"/>
      <point x="460" y="351" type="line" smooth="yes"/>
      <point x="460" y="414"/>
      <point x="447" y="431"/>
      <point x="397" y="435" type="curve"/>
      <point x="397" y="450" type="line"/>
      <point x="605" y="450" type="line"/>
      <point x="605" y="435" type="line"/>
      <point x="556" y="430"/>
      <point x="544" y="418"/>
      <point x="544" y="369" type="curve" smooth="yes"/>
      <point x="544" y="81" type="line" smooth="yes"/>
      <point x="544" y="32"/>
      <point x="556" y="20"/>
      <point x="605" y="15" type="curve"/>
      <point x="605" y="0" type="line"/>
      <point x="397" y="0" type="line"/>
      <point x="397" y="15" type="line"/>
      <point x="447" y="19"/>
      <point x="460" y="36"/>
    </contour>
  </outline>
</glyph>
<glyph name="afii10096" format="1">
  <advance width="666"/>
  <unicode hex="044E"/>
  <outline>
    <contour>
      <point x="419" y="432" type="curve" smooth="yes"/>
      <point x="348" y="432"/>
      <point x="316" y="360"/>
      <point x="316" y="275" type="curve" smooth="yes"/>
      <point x="316" y="154"/>
      <point x="339" y="18"/>
      <point x="442" y="18" type="curve" smooth="yes"/>
      <point x="513" y="18"/>
      <point x="545" y="90"/>
      <point x="545" y="175" type="curve" smooth="yes"/>
      <point x="545" y="296"/>
      <point x="522" y="432"/>
    </contour>
    <contour>
      <point x="226" y="216" type="curve"/>
      <point x="162" y="216" type="line"/>
      <point x="162" y="81" type="line" smooth="yes"/>
      <point x="162" y="32"/>
      <point x="174" y="20"/>
      <point x="223" y="15" type="curve"/>
      <point x="223" y="0" type="line"/>
      <point x="15" y="0" type="line"/>
      <point x="15" y="15" type="line"/>
      <point x="65" y="19"/>
      <point x="78" y="36"/>
      <point x="78" y="99" type="curve" smooth="yes"/>
      <point x="78" y="351" type="line" smooth="yes"/>
      <point x="78" y="414"/>
      <point x="65" y="431"/>
      <point x="15" y="435" type="curve"/>
      <point x="15" y="450" type="line"/>
      <point x="223" y="450" type="line"/>
      <point x="223" y="435" type="line"/>
      <point x="174" y="430"/>
      <point x="162" y="418"/>
      <point x="162" y="369" type="curve" smooth="yes"/>
      <point x="162" y="253" type="line"/>
      <point x="228" y="253" type="line"/>
      <point x="239" y="376"/>
      <point x="311" y="460"/>
      <point x="432" y="460" type="curve" smooth="yes"/>
      <point x="560" y="460"/>
      <point x="637" y="365"/>
      <point x="637" y="234" type="curve" smooth="yes"/>
      <point x="637" y="96"/>
      <point x="556" y="-10"/>
      <point x="430" y="-10" type="curve" smooth="yes"/>
      <point x="307" y="-10"/>
      <point x="231" y="86"/>
    </contour>
  </outline>
</glyph>
<glyph name="afii10097" format="1">
  <advance width="499"/>
  <unicode hex="044F"/>
  <outline>
    <contour>
      <point x="290" y="196" type="line"/>
      <point x="136" y="0" type="line"/>
      <point x="13" y="0" type="line"/>
      <point x="13" y="16" type="line"/>
      <point x="57" y="19"/>
      <point x="56" y="23"/>
      <point x="87" y="56" type="curve"/>
      <point x="203" y="200" type="line"/>
      <point x="146" y="207"/>
      <point x="136" y="226"/>
      <point x="117" y="245" type="curve" smooth="yes"/>
      <point x="98" y="264"/>
      <point x="89" y="288"/>
      <point x="89" y="318" type="curve" smooth="yes"/>
      <point x="89" y="350"/>
      <point x="109" y="394"/>
      <point x="145" y="416" type="curve" smooth="yes"/>
      <point x="182" y="439"/>
      <point x="217" y="450"/>
      <point x="295" y="450" type="curve" smooth="yes"/>
      <point x="484" y="450" type="line"/>
      <point x="484" y="435" type="line"/>
      <point x="441" y="432"/>
      <point x="421" y="418"/>
      <point x="421" y="366" type="curve" smooth="yes"/>
      <point x="421" y="117" type="line" smooth="yes"/>
      <point x="421" y="67"/>
      <point x="417" y="16"/>
      <point x="484" y="16" type="curve"/>
      <point x="484" y="0" type="line"/>
      <point x="274" y="0" type="line"/>
      <point x="274" y="16" type="line"/>
      <point x="341" y="16"/>
      <point x="337" y="67"/>
      <point x="337" y="117" type="curve" smooth="yes"/>
      <point x="337" y="196" type="line"/>
    </contour>
    <contour>
      <point x="337" y="232" type="curve"/>
      <point x="337" y="373" type="line" smooth="yes"/>
      <point x="337" y="395"/>
      <point x="338" y="414"/>
      <point x="313" y="414" type="curve" smooth="yes"/>
      <point x="247" y="414"/>
      <point x="232" y="410"/>
      <point x="211" y="396" type="curve" smooth="yes"/>
      <point x="185" y="379"/>
      <point x="168" y="358"/>
      <point x="168" y="328" type="curve" smooth="yes"/>
      <point x="168" y="292"/>
      <point x="187" y="257"/>
      <point x="234" y="240" type="curve" smooth="yes"/>
      <point x="251" y="234"/>
      <point x="255" y="232"/>
    </contour>
  </outline>
</glyph>
<glyph name="uni0450" format="1">
  <advance width="444"/>
  <unicode hex="0450"/>
  <outline>
    <contour>
      <point x="408" y="164" type="curve"/>
      <point x="424" y="157" type="line"/>
      <point x="382" y="49"/>
      <point x="307" y="-10"/>
      <point x="212" y="-10" type="curve" smooth="yes"/>
      <point x="97" y="-10"/>
      <point x="25" y="76"/>
      <point x="25" y="214" type="curve" smooth="yes"/>
      <point x="25" y="296"/>
      <point x="52" y="367"/>
      <point x="99" y="408" type="curve" smooth="yes"/>
      <point x="137" y="442"/>
      <point x="184" y="460"/>
      <point x="234" y="460" type="curve" smooth="yes"/>
      <point x="286" y="460"/>
      <point x="332" y="439"/>
      <point x="362" y="403" type="curve"/>
      <point x="387" y="371"/>
      <point x="397" y="342"/>
      <point x="405" y="277" type="curve"/>
      <point x="97" y="277" type="line"/>
      <point x="99" y="216"/>
      <point x="106" y="183"/>
      <point x="124" y="145" type="curve"/>
      <point x="153" y="88"/>
      <point x="196" y="59"/>
      <point x="253" y="59" type="curve" smooth="yes"/>
      <point x="317" y="59"/>
      <point x="360" y="88"/>
    </contour>
    <contour>
      <point x="99" y="309" type="curve"/>
      <point x="303" y="309" type="line"/>
      <point x="290" y="396"/>
      <point x="266" y="424"/>
      <point x="205" y="424" type="curve" smooth="yes"/>
      <point x="144" y="424"/>
      <point x="110" y="387"/>
    </contour>
    <contour>
      <point x="336" y="510" type="line"/>
      <point x="296" y="510" type="line"/>
      <point x="142" y="607" type="line" smooth="yes"/>
      <point x="124" y="619"/>
      <point x="113" y="634"/>
      <point x="113" y="650" type="curve" smooth="yes"/>
      <point x="113" y="669"/>
      <point x="126" y="681"/>
      <point x="147" y="681" type="curve" smooth="yes"/>
      <point x="162" y="681"/>
      <point x="171" y="676"/>
      <point x="189" y="658" type="curve" smooth="yes"/>
    </contour>
  </outline>
</glyph>
<glyph name="afii10099" format="1">
  <advance width="548"/>
  <unicode hex="0452"/>
  <outline>
    <contour>
      <point x="352" y="460" type="curve" smooth="yes"/>
      <point x="426" y="460"/>
      <point x="473" y="405"/>
      <point x="473" y="311" type="curve" smooth="yes"/>
      <point x="473" y="1" type="line" smooth="yes"/>
      <point x="473" y="-141"/>
      <point x="414" y="-217"/>
      <point x="304" y="-217" type="curve" smooth="yes"/>
      <point x="250" y="-217"/>
      <point x="210" y="-194"/>
      <point x="210" y="-162" type="curve" smooth="yes"/>
      <point x="210" y="-140"/>
      <point x="228" y="-123"/>
      <point x="251" y="-123" type="curve" smooth="yes"/>
      <point x="267" y="-123"/>
      <point x="281" y="-132"/>
      <point x="299" y="-155" type="curve" smooth="yes"/>
      <point x="316" y="-176"/>
      <point x="326" y="-183"/>
      <point x="341" y="-183" type="curve" smooth="yes"/>
      <point x="355" y="-183"/>
      <point x="369" y="-175"/>
      <point x="375" y="-165" type="curve" smooth="yes"/>
      <point x="386" y="-145"/>
      <point x="389" y="-120"/>
      <point x="389" y="-44" type="curve" smooth="yes"/>
      <point x="389" y="309" type="line" smooth="yes"/>
      <point x="389" y="375"/>
      <point x="365" y="406"/>
      <point x="316" y="406" type="curve" smooth="yes"/>
      <point x="277" y="406"/>
      <point x="247" y="389"/>
      <point x="205" y="343" type="curve"/>
      <point x="205" y="102" type="line" smooth="yes"/>
      <point x="205" y="33"/>
      <point x="215" y="21"/>
      <point x="273" y="15" type="curve"/>
      <point x="273" y="0" type="line"/>
      <point x="57" y="0" type="line"/>
      <point x="57" y="15" type="line"/>
      <point x="115" y="23"/>
      <point x="121" y="32"/>
      <point x="121" y="102" type="curve" smooth="yes"/>
      <point x="121" y="492" type="line"/>
      <point x="9" y="492" type="line"/>
      <point x="9" y="546" type="line"/>
      <point x="121" y="546" type="line"/>
      <point x="121" y="573" type="line" smooth="yes"/>
      <point x="121" y="616"/>
      <point x="113" y="624"/>
      <point x="70" y="624" type="curve" smooth="yes"/>
      <point x="65" y="624"/>
      <point x="62" y="624"/>
      <point x="58" y="623" type="curve"/>
      <point x="58" y="639" type="line"/>
      <point x="85" y="647" type="line" smooth="yes"/>
      <point x="141" y="664"/>
      <point x="166" y="671"/>
      <point x="200" y="683" type="curve"/>
      <point x="205" y="680" type="line"/>
      <point x="205" y="546" type="line"/>
      <point x="320" y="546" type="line"/>
      <point x="320" y="492" type="line"/>
      <point x="205" y="492" type="line"/>
      <point x="205" y="376" type="line"/>
      <point x="251" y="436"/>
      <point x="293" y="460"/>
    </contour>
  </outline>
</glyph>
<glyph name="afii10100" format="1">
  <advance width="400"/>
  <unicode hex="0453"/>
  <outline>
    <contour>
      <point x="363" y="450" type="line"/>
      <point x="367" y="325" type="line"/>
      <point x="349" y="325" type="line"/>
      <point x="340" y="398"/>
      <point x="325" y="413"/>
      <point x="265" y="413" type="curve" smooth="yes"/>
      <point x="162" y="413" type="line"/>
      <point x="162" y="81" type="line" smooth="yes"/>
      <point x="162" y="32"/>
      <point x="174" y="20"/>
      <point x="223" y="15" type="curve"/>
      <point x="223" y="0" type="line"/>
      <point x="15" y="0" type="line"/>
      <point x="15" y="15" type="line"/>
      <point x="65" y="19"/>
      <point x="78" y="36"/>
      <point x="78" y="99" type="curve" smooth="yes"/>
      <point x="78" y="351" type="line" smooth="yes"/>
      <point x="78" y="414"/>
      <point x="65" y="431"/>
      <point x="15" y="435" type="curve"/>
      <point x="15" y="450" type="line"/>
    </contour>
    <contour>
      <point x="119" y="510" type="line"/>
      <point x="79" y="510" type="line"/>
      <point x="226" y="658" type="line" smooth="yes"/>
      <point x="244" y="676"/>
      <point x="253" y="681"/>
      <point x="268" y="681" type="curve" smooth="yes"/>
      <point x="290" y="681"/>
      <point x="303" y="669"/>
      <point x="303" y="649" type="curve" smooth="yes"/>
      <point x="303" y="633"/>
      <point x="294" y="620"/>
      <point x="273" y="607" type="curve" smooth="yes"/>
    </contour>
  </outline>
</glyph>
<glyph name="afii10104" format="1">
  <advance width="278"/>
  <unicode hex="0457"/>
  <outline>
    <contour>
      <point x="34" y="599" type="curve" smooth="yes"/>
      <point x="62" y="599"/>
      <point x="85" y="576"/>
      <point x="85" y="549" type="curve" smooth="yes"/>
      <point x="85" y="522"/>
      <point x="62" y="500"/>
      <point x="34" y="500" type="curve" smooth="yes"/>
      <point x="7" y="500"/>
      <point x="-14" y="522"/>
      <point x="-14" y="550" type="curve" smooth="yes"/>
      <point x="-14" y="576"/>
      <point x="9" y="599"/>
    </contour>
    <contour>
      <point x="233" y="599" type="curve" smooth="yes"/>
      <point x="261" y="599"/>
      <point x="284" y="576"/>
      <point x="284" y="549" type="curve" smooth="yes"/>
      <point x="284" y="522"/>
      <point x="261" y="500"/>
      <point x="233" y="500" type="curve" smooth="yes"/>
      <point x="206" y="500"/>
      <point x="185" y="522"/>
      <point x="185" y="550" type="curve" smooth="yes"/>
      <point x="185" y="576"/>
      <point x="208" y="599"/>
    </contour>
    <contour>
      <point x="175" y="460" type="line"/>
      <point x="179" y="457" type="line"/>
      <point x="179" y="102" type="line" smooth="yes"/>
      <point x="179" y="30"/>
      <point x="187" y="20"/>
      <point x="253" y="15" type="curve"/>
      <point x="253" y="0" type="line"/>
      <point x="16" y="0" type="line"/>
      <point x="16" y="15" type="line"/>
      <point x="85" y="19"/>
      <point x="95" y="30"/>
      <point x="95" y="102" type="curve" smooth="yes"/>
      <point x="95" y="334" type="line" smooth="yes"/>
      <point x="95" y="378"/>
      <point x="86" y="394"/>
      <point x="62" y="394" type="curve" smooth="yes"/>
      <point x="53" y="394"/>
      <point x="40" y="393"/>
      <point x="28" y="391" type="curve" smooth="yes"/>
      <point x="20" y="390" type="line"/>
      <point x="20" y="405" type="line"/>
    </contour>
  </outline>
</glyph>
<glyph name="afii10106" format="1">
  <advance width="714"/>
  <unicode hex="0459"/>
  <outline>
    <contour>
      <point x="497" y="450" type="line"/>
      <point x="497" y="434" type="line"/>
      <point x="430" y="434"/>
      <point x="434" y="383"/>
      <point x="434" y="333" type="curve" smooth="yes"/>
      <point x="434" y="254" type="line"/>
      <point x="482" y="254" type="line" smooth="yes"/>
      <point x="523" y="254"/>
      <point x="544" y="252"/>
      <point x="568" y="250" type="curve" smooth="yes"/>
      <point x="625" y="243"/>
      <point x="651" y="224"/>
      <point x="670" y="205" type="curve" smooth="yes"/>
      <point x="689" y="186"/>
      <point x="698" y="162"/>
      <point x="698" y="132" type="curve" smooth="yes"/>
      <point x="698" y="100"/>
      <point x="678" y="59"/>
      <point x="642" y="37" type="curve" smooth="yes"/>
      <point x="605" y="14"/>
      <point x="554" y="0"/>
      <point x="476" y="0" type="curve" smooth="yes"/>
      <point x="287" y="0" type="line"/>
      <point x="287" y="15" type="line"/>
      <point x="337" y="19"/>
      <point x="350" y="36"/>
      <point x="350" y="99" type="curve" smooth="yes"/>
      <point x="350" y="413" type="line"/>
      <point x="204" y="413" type="line"/>
      <point x="204" y="221" type="line" smooth="yes"/>
      <point x="204" y="44"/>
      <point x="134" y="-9"/>
      <point x="80" y="-9" type="curve" smooth="yes"/>
      <point x="49" y="-9"/>
      <point x="14" y="0"/>
      <point x="14" y="32" type="curve" smooth="yes"/>
      <point x="14" y="54"/>
      <point x="22" y="74"/>
      <point x="47" y="75" type="curve" smooth="yes"/>
      <point x="74" y="76"/>
      <point x="82" y="50"/>
      <point x="109" y="50" type="curve" smooth="yes"/>
      <point x="145" y="50"/>
      <point x="163" y="154"/>
      <point x="163" y="217" type="curve" smooth="yes"/>
      <point x="163" y="351" type="line" smooth="yes"/>
      <point x="163" y="414"/>
      <point x="150" y="431"/>
      <point x="100" y="435" type="curve"/>
      <point x="100" y="450" type="line"/>
    </contour>
    <contour>
      <point x="434" y="218" type="curve"/>
      <point x="434" y="77" type="line" smooth="yes"/>
      <point x="434" y="55"/>
      <point x="433" y="36"/>
      <point x="458" y="36" type="curve" smooth="yes"/>
      <point x="524" y="36"/>
      <point x="539" y="40"/>
      <point x="560" y="54" type="curve" smooth="yes"/>
      <point x="586" y="71"/>
      <point x="603" y="92"/>
      <point x="603" y="122" type="curve" smooth="yes"/>
      <point x="603" y="158"/>
      <point x="584" y="193"/>
      <point x="537" y="210" type="curve" smooth="yes"/>
      <point x="520" y="216"/>
      <point x="516" y="218"/>
    </contour>
  </outline>
</glyph>
<glyph name="afii10107" format="1">
  <advance width="706"/>
  <unicode hex="045A"/>
  <outline>
    <contour>
      <point x="487" y="450" type="line"/>
      <point x="487" y="434" type="line"/>
      <point x="420" y="434"/>
      <point x="424" y="383"/>
      <point x="424" y="333" type="curve" smooth="yes"/>
      <point x="424" y="254" type="line"/>
      <point x="472" y="254" type="line" smooth="yes"/>
      <point x="513" y="254"/>
      <point x="534" y="252"/>
      <point x="558" y="250" type="curve" smooth="yes"/>
      <point x="615" y="243"/>
      <point x="641" y="224"/>
      <point x="660" y="205" type="curve" smooth="yes"/>
      <point x="679" y="186"/>
      <point x="688" y="162"/>
      <point x="688" y="132" type="curve" smooth="yes"/>
      <point x="688" y="100"/>
      <point x="668" y="59"/>
      <point x="632" y="37" type="curve" smooth="yes"/>
      <point x="595" y="14"/>
      <point x="544" y="0"/>
      <point x="466" y="0" type="curve" smooth="yes"/>
      <point x="277" y="0" type="line"/>
      <point x="277" y="15" type="line"/>
      <point x="327" y="19"/>
      <point x="340" y="36"/>
      <point x="340" y="99" type="curve" smooth="yes"/>
      <point x="340" y="216" type="line"/>
      <point x="165" y="216" type="line"/>
      <point x="165" y="81" type="line" smooth="yes"/>
      <point x="165" y="32"/>
      <point x="177" y="20"/>
      <point x="226" y="15" type="curve"/>
      <point x="226" y="0" type="line"/>
      <point x="18" y="0" type="line"/>
      <point x="18" y="15" type="line"/>
      <point x="68" y="19"/>
      <point x="81" y="36"/>
      <point x="81" y="99" type="curve" smooth="yes"/>
      <point x="81" y="351" type="line" smooth="yes"/>
      <point x="81" y="414"/>
      <point x="68" y="431"/>
      <point x="18" y="435" type="curve"/>
      <point x="18" y="450" type="line"/>
      <point x="226" y="450" type="line"/>
      <point x="226" y="435" type="line"/>
      <point x="177" y="430"/>
      <point x="165" y="418"/>
      <point x="165" y="369" type="curve" smooth="yes"/>
      <point x="165" y="253" type="line"/>
      <point x="340" y="253" type="line"/>
      <point x="340" y="351" type="line" smooth="yes"/>
      <point x="340" y="414"/>
      <point x="327" y="431"/>
      <point x="277" y="435" type="curve"/>
      <point x="277" y="450" type="line"/>
    </contour>
    <contour>
      <point x="424" y="218" type="curve"/>
      <point x="424" y="77" type="line" smooth="yes"/>
      <point x="424" y="55"/>
      <point x="423" y="36"/>
      <point x="448" y="36" type="curve" smooth="yes"/>
      <point x="514" y="36"/>
      <point x="529" y="40"/>
      <point x="550" y="54" type="curve" smooth="yes"/>
      <point x="576" y="71"/>
      <point x="593" y="92"/>
      <point x="593" y="122" type="curve" smooth="yes"/>
      <point x="593" y="158"/>
      <point x="574" y="193"/>
      <point x="527" y="210" type="curve" smooth="yes"/>
      <point x="510" y="216"/>
      <point x="506" y="218"/>
    </contour>
  </outline>
</glyph>
<glyph name="afii10109" format="1">
  <advance width="508"/>
  <unicode hex="045C"/>
  <outline>
    <contour>
      <point x="174" y="383" type="curve" smooth="yes"/>
      <point x="174" y="252" type="line"/>
      <point x="203" y="252" type="line" smooth="yes"/>
      <point x="244" y="252"/>
      <point x="278" y="304"/>
      <point x="291" y="352" type="curve" smooth="yes"/>
      <point x="306" y="406"/>
      <point x="321" y="460"/>
      <point x="382" y="460" type="curve" smooth="yes"/>
      <point x="418" y="460"/>
      <point x="442" y="444"/>
      <point x="442" y="406" type="curve" smooth="yes"/>
      <point x="442" y="380"/>
      <point x="420" y="368"/>
      <point x="398" y="368" type="curve" smooth="yes"/>
      <point x="367" y="368"/>
      <point x="373" y="394"/>
      <point x="347" y="394" type="curve" smooth="yes"/>
      <point x="317" y="394"/>
      <point x="300" y="263"/>
      <point x="252" y="245" type="curve"/>
      <point x="335" y="230"/>
      <point x="366" y="130"/>
      <point x="420" y="56" type="curve"/>
      <point x="450" y="20"/>
      <point x="454" y="18"/>
      <point x="498" y="15" type="curve"/>
      <point x="498" y="0" type="line"/>
      <point x="360" y="0" type="line"/>
      <point x="235" y="200" type="line" smooth="yes"/>
      <point x="218" y="228"/>
      <point x="192" y="224"/>
      <point x="174" y="224" type="curve"/>
      <point x="174" y="67" type="line" smooth="yes"/>
      <point x="174" y="32"/>
      <point x="189" y="18"/>
      <point x="229" y="16" type="curve" smooth="yes"/>
      <point x="249" y="15" type="line"/>
      <point x="249" y="0" type="line"/>
      <point x="15" y="0" type="line"/>
      <point x="15" y="15" type="line"/>
      <point x="87" y="27"/>
      <point x="90" y="30"/>
      <point x="90" y="82" type="curve" smooth="yes"/>
      <point x="90" y="368" type="line" smooth="yes"/>
      <point x="90" y="420"/>
      <point x="87" y="423"/>
      <point x="15" y="435" type="curve"/>
      <point x="15" y="450" type="line"/>
      <point x="249" y="450" type="line"/>
      <point x="249" y="435" type="line"/>
      <point x="229" y="434" type="line" smooth="yes"/>
      <point x="189" y="432"/>
      <point x="174" y="418"/>
    </contour>
    <contour>
      <point x="184" y="510" type="line"/>
      <point x="144" y="510" type="line"/>
      <point x="291" y="658" type="line" smooth="yes"/>
      <point x="309" y="676"/>
      <point x="318" y="681"/>
      <point x="333" y="681" type="curve" smooth="yes"/>
      <point x="355" y="681"/>
      <point x="368" y="669"/>
      <point x="368" y="649" type="curve" smooth="yes"/>
      <point x="368" y="633"/>
      <point x="359" y="620"/>
      <point x="338" y="607" type="curve" smooth="yes"/>
    </contour>
  </outline>
</glyph>
